<?xml version="1.0" standalone="no"?>
<!DOCTYPE svg PUBLIC "-//W3C//DTD SVG 1.1//EN" "http://www.w3.org/Graphics/SVG/1.1/DTD/svg11.dtd" >
<svg xmlns="http://www.w3.org/2000/svg">
<metadata></metadata>
<defs>
<font id="itsadzokes01regular" horiz-adv-x="2928" >
<font-face units-per-em="4096" ascent="3520" descent="-576" />
<missing-glyph horiz-adv-x="1300" />
<glyph horiz-adv-x="0" />
<glyph unicode="&#xd;" horiz-adv-x="240" />
<glyph unicode=" "  horiz-adv-x="1300" />
<glyph unicode="&#x09;" horiz-adv-x="1300" />
<glyph unicode="&#xa0;" horiz-adv-x="1300" />
<glyph unicode="!" horiz-adv-x="1052" d="M239 288q0 -117 84.5 -201.5t201.5 -84.5t201.5 84.5t84.5 201.5t-84.5 201.5t-201.5 84.5t-201.5 -84.5t-84.5 -201.5zM337 288q0 77 55.5 132.5t132.5 55.5t132.5 -55.5t55.5 -132.5t-55.5 -132.5t-132.5 -55.5t-132.5 55.5t-55.5 132.5zM233 2646l212 -1496h193 q133 613 194 1378q2 20 2 30q0 34 -7 53q-9 27 -28 31t-66 4h-500zM120 2744h611q64 0 96 -8q105 -28 105 -178q0 -19 -2 -39q-65 -816 -213 -1467h-357zM141 288q0 158 113 271t271 113t271 -113t113 -271t-113 -271t-271 -113t-271 113t-113 271zM346 2548h388h2 q0 -2 -1 -12q-57 -710 -176 -1288h-29z" />
<glyph unicode="&#x22;" horiz-adv-x="1584" d="M367 2158h46l41 83q144 304 144 618q0 42 -4 74l-323 85q22 -77 47 -213q49 -283 49 -537v-110zM1135 2158h46l41 83q144 304 144 618q0 42 -4 74l-323 85q22 -77 47 -213q49 -283 49 -537v-110zM269 2060v208q0 245 -48 520q-48 274 -101 328l34 34l513 -135 q29 -29 29 -156q0 -336 -154 -660l-67 -139h-206zM1037 2060v208q0 245 -48 520q-48 274 -101 328l34 34l513 -135q29 -29 29 -156q0 -336 -154 -660l-67 -139h-206zM454 2520q-13 147 -40 302l-11 60l97 -26q0 -170 -46 -336zM1222 2520q-13 147 -40 302l-11 60l97 -26 q0 -170 -46 -336z" />
<glyph unicode="#" horiz-adv-x="2709" d="M1014 1598l-65 -784h728l62 784h-725zM120 574l24 240h565l65 784h-577l24 240h571l45 514h240l-45 -514h728l43 514h240l-43 -514h589l-24 -240h-586l-62 -784h595l-24 -240h-605l-43 -513h-240l43 513h-726l-43 -513h-240l43 513h-557zM1739 1696q43 0 72 -31.5 t26 -74.5l-62 -784q-3 -40 -30.5 -65t-67.5 -25h-728q-43 0 -72 31.5t-26 74.5l65 784q3 40 30.5 65t67.5 25h725zM228 672h449q43 0 72 -31.5t26 -74.5l-34 -407h43l35 423q3 40 30.5 65t67.5 25h726q43 0 72 -31.5t26 -74.5l-34 -407h43l35 423q3 40 30.5 65t67.5 25h516 l5 44h-487q-43 0 -72 31.5t-26 74.5l62 784q3 40 30.5 65t67.5 25h497l5 44h-481q-43 0 -72 31.5t-26 74.5l34 408h-43l-35 -424q-3 -40 -30.5 -65t-67.5 -25h-728q-43 0 -72 32t-26 75l36 407h-43l-37 -425q-3 -40 -30.5 -64.5t-67.5 -24.5h-482l-5 -44h469q43 0 72 -31.5 t26 -74.5l-65 -784q-3 -40 -30.5 -65t-67.5 -25h-476z" />
<glyph unicode="$" horiz-adv-x="2425" d="M231 372q31 21 84 26q-45 55 -78 112zM2020 2343q-8 -4 -18 -7q-12 -4 -22 -6l-16 -3q-6 -1 -23.5 -2t-25.5 -2q57 -51 97 -111l17 -25zM1809 1299l-842 403q-94 55 -161 106q-150 114 -150 323q0 140 76 237q-115 -42 -208 -107q-253 -174 -253 -475q0 -180 104 -316 q114 -149 343 -253l626 -284l109 -55q287 -174 287 -465q0 -64 -16.5 -120t-52.5 -107q-15 -22 -35 -42l26 6q120 29 203.5 68t146 91t99 104.5t59 115.5t30 117.5t7.5 116.5q0 162 -97.5 295t-300.5 241zM1016 1787v636q-262 -62 -262 -292q0 -160 111 -245q63 -48 151 -99 zM1304 1643v802q-29 1 -60 1q-70 0 -130 -6v-707l19 -10zM1402 794v-668q240 66 240 287q0 236 -240 381zM1304 844l-190 86v-831q19 -1 39 -1q82 0 151 9v737zM1304 2680h98v-144q134 -14 239 -54q160 -61 270 -61q106 0 119 75h78l43 -677h-78q-14 147 -142 339 q-83 124 -260 206q-119 55 -269 73v-840l451 -210q451 -240 452 -624q0 -676 -903 -753v-143h-98v137q-73 -4 -151 -4q-20 0 -39 1v-134h-98v140q-104 11 -194 41q-195 66 -374 206q-61 48 -120 48q-110 0 -110 -268h-98l29 739h98q46 -331 479 -582q117 -68 290 -86v869 l-339 154q-251 114 -380 283q-123 161 -124 375q0 353 295 556q221 152 548 190v148h98v-140q63 4 130 4q31 0 60 -1v137zM1765 1212q181 -97 266 -212q78 -107 78 -237v-1q0 -54 -7 -102q-6 -44 -25 -98q-18 -51 -47 -92.5t-81 -85.5q-51 -43 -121 -76q10 51 10 105 q0 48 -6.5 94.5t-28.5 108.5t-57 118t-98.5 117.5t-147.5 111.5l-113 59l-629 284q-206 94 -305 224q-84 109 -84 256v1q0 237 190 379q-1 -17 -1 -35q0 -257 188 -401q71 -54 175 -114z" />
<glyph unicode="%" horiz-adv-x="3360" d="M2956 965q0 39 -2 76q90 -131 90 -292q0 -160 -89 -290q1 33 1 74v432zM2027 1045q-1 -35 -1 -80v-432q0 -39 2 -76q-90 131 -90 294q0 164 89 294zM2491 1498q293 0 521 -223t228 -525.5t-228 -526t-521 -223.5t-521 223.5t-228 525.5q0 307 225.5 528t523.5 221z M2491 1400q-168 0 -218.5 -120t-50.5 -315v-216v-216q0 -195 50.5 -315t218.5 -120t218.5 120t50.5 315v216v216q0 195 -50.5 315t-218.5 120zM2858 965v-432q0 -215 -29 -284q-16 -38 -31 -68q76 44 145 112q199 195 199 456.5t-199 455.5q-69 68 -145 112q60 -129 60 -352 zM2181 183q-57 144 -57 350v432q0 215 29 284q17 41 33 72q-78 -44 -149 -114q-197 -193 -197 -456t199 -458q68 -66 142 -110zM1334 1963q0 39 -2 76q90 -131 90 -292q0 -160 -89 -290q1 33 1 74v432zM405 2043q-1 -35 -1 -80v-432q0 -39 2 -76q-90 131 -90 294 q0 164 89 294zM869 2496q293 0 521 -223t228 -525.5t-228 -526t-521 -223.5t-521 223.5t-228 525.5q0 307 225.5 528t523.5 221zM869 2398q-168 0 -218.5 -120t-50.5 -315v-216v-216q0 -195 50.5 -315t218.5 -120t218.5 120t50.5 315v216v216q0 195 -50.5 315t-218.5 120z M2602 2496l-1780 -2496h-109l1781 2496h108zM1236 1963v-432q0 -215 -29 -284q-16 -38 -31 -68q76 44 145 112q199 195 199 456.5t-199 455.5q-69 68 -145 112q60 -129 60 -352zM559 1181q-57 144 -57 350v432q0 215 29 284q17 41 33 72q-78 -44 -149 -114 q-197 -193 -197 -456t199 -458q68 -66 142 -110z" />
<glyph unicode="&#x26;" horiz-adv-x="3080" d="M2605 1550q38 -31 70 -73q7 40 28 73h-98zM2362 323l-759 1212q-282 450 -282 691q0 27 3 52q8 59 35 107q-129 -46 -244 -132q-238 -177 -238 -522q0 -100 146 -357q33 -57 73 -120l634 -979q61 -94 153 -164q139 -105 390 -105q235 0 407 30q-108 43 -205 144 q-83 98 -113 143zM792 142q-22 17 -42 36q-189 178 -190 510v2q0 318 119 514q-120 -54 -225 -120q-236 -147 -236 -394v-2q0 -109 36.5 -198t118 -163t206.5 -124q91 -37 213 -61zM779 1731q0 394 277.5 600.5t632.5 206.5q374 0 641 -225v-369h-98q-1 115 -65 257 q-108 239 -478 239q-270 0 -270 -214q0 -212 267 -639l758 -1211q18 -27 36 -51q316 194 316 554q0 111 -38 240q-34 115 -142 273q-109 158 -284 158v98h628v-98q-190 0 -190 -106q0 -21 57 -202q67 -213 67 -363q0 -412 -348 -631q104 -108 218 -136q56 -14 156 -14v-98 q-232 -92 -647 -92q-263 0 -446 121q-232 -29 -515 -29q-1190 0 -1192 688v2q0 301 282 477q219 137 497 226q-120 219 -120 338zM1728 116q-44 47 -81 106l-633 979q-42 65 -76 123q-280 -162 -280 -634v-2q1 -590 654 -590q225 0 416 18zM2279 270q34 -51 124 -156l7 -7 q-66 -3 -137 -3q-218 0 -331 85q-79 59 -130 139l-633 979q-47 73 -72 115q-53 94 -85 165.5t-39.5 99.5t-7.5 44q0 296 199 443l49 35q9 -266 297 -726zM493 992q-31 -136 -31 -302v-2q0 -198 63 -351q-50 28 -87 62q-65 59 -93 128q-29 71 -29 161v2q0 185 177 302z" />
<glyph unicode="'" horiz-adv-x="816" d="M367 2158h46l41 83q144 304 144 618q0 42 -4 74l-323 85q22 -77 47 -213q49 -283 49 -537v-110zM454 2520q-13 147 -40 302l-11 60l97 -26q0 -170 -46 -336zM475 2060h-206v208q0 245 -48 520q-48 274 -101 328l34 34l513 -135q29 -29 29 -156q0 -336 -154 -660z" />
<glyph unicode="(" horiz-adv-x="1216" d="M120 1248q0 980 962 1389l14 -48q-304 -290 -304 -1341q0 -973 304 -1341l-14 -48q-962 415 -962 1389zM864 2417q-646 -392 -646 -1169q0 -783 664 -1178q-188 410 -188 1178q0 788 170 1169zM677 2154q-81 -359 -81 -906q0 -542 92 -913q-372 346 -372 913 q0 564 361 906z" />
<glyph unicode=")" horiz-adv-x="1216" d="M334 70q664 395 664 1178q0 777 -646 1169q170 -381 170 -1169q0 -768 -188 -1178zM1096 1248q0 -974 -962 -1389l-14 48q304 368 304 1341q0 1051 -304 1341l14 48q962 -409 962 -1389zM527 335q93 372 93 913q0 547 -81 906q361 -342 361 -906q0 -567 -373 -913z" />
<glyph unicode="*" horiz-adv-x="1306" d="M192 2070q0 13 34 13q10 0 67 -4t105 -4q82 0 173 19l-57 24q-72 24 -154 77l-137 91q-55 38 -79 37h-5l-9 -3l-10 24l283 134h5q14 0 33.5 -40.5t65 -122t112.5 -153.5l-9 62q-14 82 -15 154q0 43 5 112.5t5 93.5q0 58 -19 72l19 24l259 -178q10 -10 10 -14 q0 -14 -31.5 -52.5t-74.5 -115.5t-67 -168l48 43q61 53 155 99l152 74q58 29 58 51h28l-28 -315q0 -14 -29 -14q-10 0 -67.5 4.5t-105.5 4.5q-91 0 -173 -19l53 -19q72 -24 154 -77l136 -92q56 -38 80 -38q5 0 4.5 2.5t4.5 2.5l15 -29l-288 -134h-5q-14 0 -33.5 43 t-62.5 121.5t-106 147.5l10 -53q14 -82 14 -149q0 -48 -4.5 -122t-4.5 -94q0 -58 14 -67l-14 -24l-264 178q-5 5 -5 14q0 14 31 55t72 115.5t65 156.5l-48 -39q-62 -53 -156 -101t-151.5 -74t-57.5 -50h-29zM328 2334l86 -57l3 -2l-44 80zM699 2497l-1 -14q-5 -63 -5 -97 q27 47 50 80zM1028 2246l-81 -40l-18 -9q44 -1 95 -5zM980 1842l-88 60l-9 6q29 -52 47 -89zM612 1680l1 10q4 65 4 108q-28 -50 -52 -85zM379 1977q-43 1 -93 4l-4 1l-5 -57l79 40z" />
<glyph unicode="+" horiz-adv-x="2362" d="M1282 1346h960l-10 -192h-950v-946l-192 10v936h-970l10 192h960v984l192 -10v-974z" />
<glyph unicode="," horiz-adv-x="1008" d="M120 288q0 158 113 271t271 113t271 -113t113 -271q0 -372 -175 -600q-173 -226 -387 -226v98q106 0 202 78.5t96 169.5q0 96 -120 96q-158 0 -271 113t-113 271zM218 288q0 -117 84.5 -201.5t201.5 -84.5q34 0 62 -6q113 -23 146 -121q78 171 78 413q0 117 -84.5 201.5 t-201.5 84.5t-201.5 -84.5t-84.5 -201.5zM316 288q0 77 55.5 132.5t132.5 55.5t132.5 -55.5t55.5 -132.5q0 -122 -22 -224q-38 19 -84 28q-39 8 -82 8q-77 0 -132.5 55.5t-55.5 132.5z" />
<glyph unicode="-" horiz-adv-x="1960" d="M1816 1152h-1696l24 192h1696z" />
<glyph unicode="." horiz-adv-x="1008" d="M218 288q0 -117 84.5 -201.5t201.5 -84.5t201.5 84.5t84.5 201.5t-84.5 201.5t-201.5 84.5t-201.5 -84.5t-84.5 -201.5zM316 288q0 77 55.5 132.5t132.5 55.5t132.5 -55.5t55.5 -132.5t-55.5 -132.5t-132.5 -55.5t-132.5 55.5t-55.5 132.5zM233 559q113 113 271 113 t271 -113t113 -271t-113 -271t-271 -113t-271 113t-113 271t113 271z" />
<glyph unicode="/" horiz-adv-x="1885" d="M1636 2466l-39 27l-1349 -2463l36 -26zM1765 2496l-1448 -2635l-197 139l1443 2635z" />
<glyph unicode="0" horiz-adv-x="2736" d="M1881 2091q66 -185 66 -843q0 -655 -65 -842q-43 -124 -101 -215q-26 -42 -54 -75q237 86 441 291q350 353 350 841.5t-350 840.5q-205 206 -443 292q29 -34 55 -77q57 -90 101 -213zM1010 2382q-242 -85 -446 -293q-346 -353 -346 -841.5t350 -840.5q205 -207 445 -293 q-29 35 -56 78q-57 90 -102 213q-65 179 -65 843q0 654 64 842q43 125 100 215q27 43 56 77zM1368 2456q-285 0 -421 -398q-59 -172 -59 -810q0 -647 59 -810q144 -398 421 -398q282 0 421 398q60 172 60 810q0 640 -60 810q-142 398 -421 398zM1368 2540q490 0 869 -381.5 t379 -910.5t-379 -910.5t-869 -381.5t-869 381.5t-379 910.5t374.5 910.5t873.5 381.5zM1974 2124l-4 10q65 -51 128 -114q322 -324 322 -772t-322 -772q-63 -63 -128 -114l4 11q71 204 71 875q0 675 -71 876zM766 362q-65 51 -128 114q-322 324 -322 772q0 449 318 773 q65 67 134 119l-6 -19q-70 -203 -70 -873q0 -682 71 -877z" />
<glyph unicode="1" horiz-adv-x="1776" d="M602 1630v-1196q0 -223 -141 -336h854q-141 113 -141 336v1964h-312q-122 -318 -449 -464l31 -14q103 -55 139 -166q15 -43 19 -124zM504 1630q0 240 -288 240v98q456 125 576 528h480v-2062q0 -336 384 -336v-98h-1536v98q384 0 384 336v1196zM700 1633q-5 98 -24 152 q-27 80 -79 138q220 142 330 377h149v-1866q0 -134 45 -238h-466q45 104 45 238v1199z" />
<glyph unicode="2" horiz-adv-x="2456" d="M2238 202q-42 -61 -101 -104h101v104zM1267 98q-13 13 -23 28t-15 27.5t-8.5 26.5t-4.5 22q-1 7 -2 17t-1 11q0 46 20 95q12 29 49 87l552 782q250 373 250 616q0 115 -30 208.5t-94.5 172t-173 133.5t-258.5 85q100 -105 100 -279q0 -122 -92.5 -315t-295.5 -480 l-719 -1016q-93 -144 -180 -221h926zM1136 2540q1046 0 1046 -730q0 -273 -267 -672l-553 -783q-51 -72 -51 -125q0 -132 329 -132h148q450 0 450 482h98v-580h-2216v98q142 0 320 276l720 1018q370 523 370 738q0 312 -394 312q-482 0 -643 -305q-75 -142 -75 -242h-98v368 q328 277 816 277zM1118 196h-562q23 32 46 68l718 1015q208 293 304 493q102 213 102 358q0 63 -11 120l27 -13q90 -47 142 -109q53 -63 77 -139q25 -79 25 -179q0 -214 -232 -561l-553 -783q-44 -67 -59 -104q-27 -67 -27 -132q0 -7 1 -13v-3v-3q1 -6 2 -15z" />
<glyph unicode="3" horiz-adv-x="2365" d="M1308 79q180 22 321 63.5t238 99t160 132.5t91.5 160t28.5 186q0 53 -11 101t-38 99t-70 96t-110.5 89.5t-155 81t-208 69t-266.5 54.5q287 -212 287 -590q0 -453 -267 -641zM1257 2420q174 -146 174 -452q0 -281 -207 -444q149 26 262 64.5t183 82t113.5 97t60 105 t16.5 109.5q0 85 -33 154t-103.5 126t-187.5 97t-278 61zM1228 1418q1016 -137 1017 -698q0 -764 -1387 -764q-418 0 -738 245v379h98q6 -270 166 -382q206 -144 474 -144q619 0 619 666q0 485 -538 652q-125 39 -125 65q0 16 47 28q472 114 472 503q0 474 -466 474 q-253 0 -385 -122q-133 -122 -141 -377h-98v371q275 226 624 226q1090 0 1090 -558q0 -435 -729 -557v-7zM1566 227q107 198 107 493q0 245 -110 431q93 -26 162 -55q79 -33 139 -72q58 -38 93 -75q34 -36 55 -75q21 -40 29 -75q8 -37 8 -79v-1q0 -84 -23 -154 q-23 -67 -74 -128q-52 -62 -135 -111q-87 -51 -216 -90q-17 -4 -35 -9zM1476 2275q14 -4 28 -9q100 -34 157 -80q53 -43 76.5 -92t23.5 -112q0 -43 -12 -80q-11 -34 -43 -73q-33 -41 -89 -76q-54 -33 -143 -65q55 125 55 280q0 174 -53 307z" />
<glyph unicode="4" horiz-adv-x="2482" d="M1308 2331v-1563q0 -42 -28 -70t-70 -28h-978l-14 -21v-23h992q42 0 70 -28t28 -70v-94q0 -223 -141 -336h854q-141 113 -141 336v94q0 42 28 70t70 28h98v44h-98q-42 0 -70 28t-28 70v1630h-537zM294 768h916v1423zM120 678l1170 1818h688v-1728h196v-240h-196v-94 q0 -336 384 -336v-98h-1536v98q384 0 384 336v94h-1090v150zM1406 2300h376v-1866q0 -134 45 -238h-466q45 104 45 238v1866z" />
<glyph unicode="5" horiz-adv-x="2358" d="M1957 2111l-20 287h-1620q-1 -55 -4 -92l-24 -290l11 13q116 133 315 133h975q193 0 282 -19q55 -11 85 -32zM1309 76q179 22 319 65t236 103t158 138.5t90 168t28 195.5t-28 195.5t-89.5 168t-157 138t-234.5 102.5t-317 65q254 -190 254 -659q0 -486 -259 -680z M129 1247l86 1067q5 62 5 182h1808l48 -672h-98q-24 178 -81.5 209t-306.5 31h-975q-154 0 -241 -99q-86 -99 -104 -304l-25 -293q265 168 655 168q1338 0 1338 -790t-1338 -790q-473 0 -780 306v318h98q6 -282 238 -411q206 -115 444 -115q570 0 570 702q0 682 -570 682 q-433 0 -699 -223zM404 2221l7 79h1435l3 -53q-94 13 -259 13h-975q-115 0 -211 -39zM1557 222q109 210 109 534q0 308 -105 512q21 -6 94.5 -28.5t156 -74.5t133.5 -116.5t74 -138t23 -164.5t-23 -165t-74.5 -138.5t-134.5 -116.5t-157 -75t-96 -29z" />
<glyph unicode="6" horiz-adv-x="2640" d="M1850 840q0 -233 -37.5 -405t-108.5 -276q-34 -50 -74 -87q62 8 120 19q188 37 314 103.5t207 165.5t116 216.5t35 263.5q0 142 -35 256.5t-116 211t-207 161.5t-314 101q-57 11 -118 19q39 -37 72 -85q71 -102 108.5 -269.5t37.5 -394.5zM925 1488q-42 -12 -82 15 l-17 12q-42 30 -41 81q5 583 272 808q-420 -86 -629.5 -377t-209.5 -803q0 -586 268 -878q186 -202 513 -264q-34 34 -63 77q-71 104 -108.5 276t-37.5 405q0 227 38 395q34 155 97 253zM1320 1606q-432 0 -432 -766q0 -786 432 -786t432 786q0 766 -432 766zM900 1583 q225 121 420 121q1200 0 1200 -864q0 -884 -1200 -884t-1200 1268q0 1316 1344 1316q462 0 826 -296v-318h-98q-6 279 -243 411q-173 105 -485 105q-574 0 -581 -847zM1948 840q0 238 -40 416q-23 108 -60 191q98 -27 171 -65q109 -57 177 -138t97 -176q31 -101 31 -228 q0 -132 -31 -236q-29 -98 -98 -182t-177 -141q-73 -39 -172 -67q37 87 62 200q40 182 40 426zM779 253q-130 61 -220 159q-243 263 -243 812q0 481 191 746q112 156 293 246q-110 -243 -113 -620v-1q0 -101 83 -160l13 -10q-30 -76 -51 -169q-40 -178 -40 -416 q0 -244 40 -426q20 -89 47 -161z" />
<glyph unicode="7" horiz-adv-x="2410" d="M742 98h529q11 912 231 1424q-710 -769 -760 -1424zM218 2095l3 3q25 21 53.5 34t64.5 19t57 7q20 2 60 4h891q123 0 207 -21q53 -13 92.5 -36t60 -45t33.5 -50t16.5 -45t4.5 -35q286 348 392 468h-1935v-303zM640 0q0 805 952 1757q72 72 72 158q0 149 -317 149h-891 q-177 0 -200 -86l-38 -154h-98v672h2170v-98q-21 -2 -517 -608q-405 -495 -405 -1790h-728zM852 196q67 418 415 890q-80 -382 -93 -890h-322zM1788 2116l-10 10q-30 34 -83 64q-51 29 -117 46q-96 24 -231 24h-893q-45 -2 -67 -4q-24 -1 -64 -8q-4 -1 -7 -2v54h1624z" />
<glyph unicode="8" horiz-adv-x="2813" d="M934 1920q0 153 32 268.5t80 181.5q21 29 46 53q-18 -2 -36 -5q-153 -24 -256 -67t-169.5 -107t-95.5 -140t-29 -170q0 -148 131 -252q129 -102 409 -158q-28 34 -48 74q-28 56 -46 139t-18 183zM1721 2423q25 -23 47 -53q48 -66 79.5 -181.5t31.5 -268.5 q0 -100 -17.5 -183t-45.5 -139q-21 -41 -50 -75q4 1 8 1q126 23 221.5 57.5t153.5 73.5t94.5 87t50 93.5t13.5 98.5q0 94 -29 170t-95.5 140t-169.5 107t-256 67q-18 3 -36 5zM1862 1303l16 -19q45 -58 76 -133.5t50 -186t19 -244.5q0 -137 -21.5 -250t-57 -191t-86.5 -137 q-34 -39 -69 -67l77 10q201 31 337.5 87.5t225 140t127.5 184t39 223.5q0 54 -10 103t-35.5 101.5t-65.5 98.5t-104.5 91t-148 82t-199.5 69q-79 21 -170 38zM1025 74q-35 28 -69 68q-52 59 -87.5 137t-57 191t-21.5 250q0 134 19 244.5t50 186t76 133.5l18 22 q-89 -16 -167 -36q-119 -31 -203.5 -67.5t-149.5 -82.5t-105 -92.5t-65.5 -100t-35 -103t-9.5 -104.5q0 -123 38.5 -223t127 -183.5t224.5 -140.5t338 -88q38 -6 79 -11zM1035 1426q-627 123 -627 508q0 606 998.5 606t998.5 -606q0 -396 -614 -506v-13q902 -140 902 -695 q-1 -764 -1287 -764t-1286 764q0 571 915 698v8zM1406.5 1470q374.5 0 374.5 450q0 522 -374.5 522t-374.5 -522q0 -450 374.5 -450zM1330 1367q-442 0 -442 -647q0 -666 519 -666q518 0 518 666q0 647 -442 647h-153zM836 1920q0 -110 20 -203l10 -44q-107 38 -168 86 q-94 74 -94 175q0 76 23 135q21 56 71 104q53 51 140 88q25 10 54 19q-11 -31 -20 -65q-36 -129 -36 -295zM1946 1668q6 23 11 49q20 93 20 203q0 166 -36 295l-20 65q29 -9 54 -19q86 -36 140 -88q51 -49 71 -104q23 -59 23 -135q0 -38 -9 -71q-8 -29 -34 -62 q-26 -35 -71 -65q-48 -32 -133 -62zM2023 217l11 21q40 89 64 214q23 122 23 268q0 142 -20 261q-17 101 -44 175q77 -23 135 -50q75 -33 131 -72q55 -38 87 -75q32 -36 51 -77q20 -41 28 -78q8 -39 8 -83v-1q0 -105 -32 -188q-31 -80 -104 -148q-75 -71 -195 -121 q-63 -25 -143 -46zM758 1161q-28 -77 -46 -180q-20 -119 -20 -261q0 -146 23 -268q24 -125 64 -214l11 -22q-81 21 -144 47q-120 50 -195 122q-72 68 -103 147q-32 83 -32 188q0 45 8 85q7 38 27 81q19 42 51 77q32 37 87 77q57 40 132 72q59 26 137 49z" />
<glyph unicode="9" horiz-adv-x="2640" d="M790 1656q0 233 37.5 405t108.5 276q34 50 74 87q-62 -8 -120 -19q-188 -37 -314 -103.5t-207 -165.5t-116 -216.5t-35 -263.5q0 -142 35 -256.5t116 -211t207 -161.5t314 -101q57 -11 118 -19q-39 37 -72 85q-71 102 -108.5 269.5t-37.5 394.5zM1715 1008q42 12 82 -15 l17 -12q42 -30 41 -81q-5 -583 -272 -808q420 86 629.5 377t209.5 803q0 586 -268 878q-186 202 -513 264q34 -34 63 -77q71 -104 108.5 -276t37.5 -405q0 -227 -38 -395q-34 -155 -97 -253zM1320 890q432 0 432 766q0 786 -432 786t-432 -786q0 -766 432 -766zM1740 913 q-225 -121 -420 -121q-1200 0 -1200 864q0 884 1200 884t1200 -1268q0 -1316 -1344 -1316q-475 0 -826 286v318h98q6 -267 243 -411q176 -95 485 -95q574 0 581 847zM692 1656q0 -238 40 -416q24 -107 60 -191q-98 27 -171 65q-109 56 -177 138q-68 81 -97 176 q-31 100 -31 228q0 132 31 236q29 99 97.5 182.5t177.5 140.5q73 39 172 67q-38 -87 -62 -200q-40 -182 -40 -426zM1861 2243q130 -61 220 -159q243 -263 243 -812q0 -481 -191 -746q-112 -156 -293 -246q110 242 113 620v1q0 102 -83 160l-13 10q31 76 51 169 q40 179 40 416q0 244 -40 426q-20 89 -47 161z" />
<glyph unicode=":" horiz-adv-x="1008" d="M218 288q0 -117 84.5 -201.5t201.5 -84.5t201.5 84.5t84.5 201.5t-84.5 201.5t-201.5 84.5t-201.5 -84.5t-84.5 -201.5zM218 1688q0 -117 84.5 -201.5t201.5 -84.5t201.5 84.5t84.5 201.5t-84.5 201.5t-201.5 84.5t-201.5 -84.5t-84.5 -201.5zM316 288q0 77 55.5 132.5 t132.5 55.5t132.5 -55.5t55.5 -132.5t-55.5 -132.5t-132.5 -55.5t-132.5 55.5t-55.5 132.5zM233 559q113 113 271 113t271 -113t113 -271t-113 -271t-271 -113t-271 113t-113 271t113 271zM316 1688q0 77 55.5 132.5t132.5 55.5t132.5 -55.5t55.5 -132.5t-55.5 -132.5 t-132.5 -55.5t-132.5 55.5t-55.5 132.5zM233 1959q113 113 271 113t271 -113t113 -271t-113 -271t-271 -113t-271 113t-113 271t113 271z" />
<glyph unicode=";" horiz-adv-x="1008" d="M120 1688q0 158 113 271t271 113t271 -113t113 -271t-113 -271t-271 -113t-271 113t-113 271zM120 288q0 158 113 271t271 113t271 -113t113 -271q0 -355 -185 -590.5t-377 -235.5v98q106 0 202 78.5t96 169.5q0 96 -120 96q-158 0 -271 113t-113 271zM218 1688 q0 -117 84.5 -201.5t201.5 -84.5t201.5 84.5t84.5 201.5t-84.5 201.5t-201.5 84.5t-201.5 -84.5t-84.5 -201.5zM218 288q0 -117 84.5 -201.5t201.5 -84.5q34 0 62 -6q105 -21 141 -108q83 171 83 400q0 117 -84.5 201.5t-201.5 84.5t-201.5 -84.5t-84.5 -201.5zM316 1688 q0 77 55.5 132.5t132.5 55.5t132.5 -55.5t55.5 -132.5t-55.5 -132.5t-132.5 -55.5t-132.5 55.5t-55.5 132.5zM316 288q0 77 55.5 132.5t132.5 55.5t132.5 -55.5t55.5 -132.5q0 -120 -25 -222q-36 17 -81 26q-39 8 -82 8q-77 0 -132.5 55.5t-55.5 132.5z" />
<glyph unicode="&#x3c;" horiz-adv-x="1128" d="M120 1290l888 896v-357l-307 -312q-163 -166 -163 -268.5t163 -269.5l307 -312v-357l-888 896v84zM218 1250v-4l692 -698v79l-279 283q-146 149 -180 265q-11 36 -11.5 71.5t11.5 75.5q32 110 173 257l7 7l279 283v79z" />
<glyph unicode="=" horiz-adv-x="2376" d="M2232 1531h-2112l24 192h2112zM2232 763h-2112l24 192h2112z" />
<glyph unicode="&#x3e;" horiz-adv-x="1128" d="M1008 1290v-84l-888 -896v357l307 312q163 166 163 268.5t-163 269.5l-307 312v357zM910 1250l-692 698v-79l279 -283q146 -149 180 -265q11 -36 11.5 -71.5t-11.5 -75.5q-32 -110 -173 -257l-7 -7l-279 -283v-79l692 698v4z" />
<glyph unicode="?" horiz-adv-x="1959" d="M674 1660l36 -446h205l5 65q5 50 34 100q70 123 307 277q281 183 335 230q145 127 145 280q0 237 -205 374q-86 58 -200 93q68 -84 68 -208q0 -27 -5 -55t-19 -68t-47 -82t-82 -76l-449 -284q-65 -44 -96.5 -92.5t-31.5 -107.5zM234 2465q11 14 24 29q-11 6 -22 15z M526 288q0 -118 84 -202t201.5 -84t202 84.5t84.5 201.5t-84.5 201.5t-202 84.5t-201.5 -84t-84 -202zM576 1660q0 166 173 282l447 283q110 78 110 200q0 259 -403 259q-294 0 -471 -156q-209 -180 -209 -336l-103 -2l30 528l102 -3q0 -48 21.5 -94.5t50.5 -46.5 q16 0 64 34l106 74q58 41 168.5 73.5t240.5 32.5q439 0 688 -167q248 -166 248 -455q0 -198 -179 -354q-61 -53 -346 -238t-296 -304l-14 -154h-384q-44 538 -44 544zM772 1664q0 26 16 50q21 32 68 64l449 284q63 44 104 97q44 55 64 111q17 48 23 83q6 36 6 72v19 q141 -105 141 -278q0 -109 -112 -206q-49 -43 -324 -222q-257 -167 -338 -310q-33 -57 -43 -116h-25zM624 288q0 77 55 132.5t132.5 55.5t133 -55.5t55.5 -132.5t-55.5 -132.5t-133 -55.5t-132.5 55.5t-55 132.5zM540.5 559q112.5 113 271 113t271.5 -113t113 -271 t-113 -271t-271.5 -113t-271 113t-112.5 271t112.5 271z" />
<glyph unicode="@" horiz-adv-x="3759" d="M1269 917q0 172 44 412q37 204 94.5 361t139.5 270q32 44 68 81q-154 -50 -266 -147q-232 -200 -306 -601q-22 -122 -22 -229q0 -237 116 -367q94 -105 230 -160q-24 33 -42 73q-25 54 -40.5 133t-15.5 174zM2746 1978q-70 -60 -187 -60q-35 0 -62 22q-77 62 -175 99 q20 -27 36 -57q26 -52 43 -129t17 -170q0 -200 -42 -393q-77 -353 -195 -569l46 48l8 8q43 37 87 51q4 1 13 2l21 4q13 2 20 3q75 0 130 -61q6 -6 32 -44q3 -5 7 -15l2 -3q2 41 9 91zM3535 1264q6 66 6 130q0 334 -157 626q-187 347 -551 554q-363 206 -820 206l-2 1 q-457 -1 -855 -207q-400 -206 -648 -554q-246 -345 -284 -756q-5 -52 -5 -129v-4q0 -334 157 -624q188 -348 551.5 -554t820 -206t855.5 206l40 -86q-423 -218 -904 -218t-867 218q-384 218 -584 589q-167 311 -168 668q0 69 6 140q38 437 303 807.5t689 588.5t904 219 q480 -1 865 -219q383 -217 585 -588q167 -307 167 -668q0 -69 -6 -140q-79 -892 -769 -892q-291 0 -410 310q-34 57 -78 57q-35 0 -77 -36q-295 -323 -588 -323q-422 0 -647 252q-141 159 -141 432q0 113 24 247q163 881 1043 881q351 0 569 -176q118 0 153 75 q17 40 55 40.5t97 -40.5l-211 -1302q-9 -56 -9 -97q0 -224 242 -224q577 0 649 796zM1708 478q390 0 572 833q40 183 40 372q0 411 -341 411q-428 0 -570 -783q-42 -228 -42 -394q0 -439 341 -439zM1171 917q0 -56 5 -107q-57 97 -57 254q0 99 21 212q49 265 170 431 q-57 -159 -94 -361q-45 -248 -45 -429zM2622 1824l-147 -908q-46 19 -95 19q52 150 91 334q45 204 45 414q0 76 -10 144q8 -2 20 -4q16 -3 33 -3q32 0 63 4z" />
<glyph unicode="A" horiz-adv-x="3252" d="M1980 1430h-296q-796 0 -796 -746q0 -630 516 -630q341 0 586 202q-10 298 -10 625v549zM445 2023q0 103 62 191q134 187 413 266q213 60 426 60q1402 0 1402 -1272v-834q0 -336 384 -336v-98h-960q-48 0 -101 80t-72 68q-242 -192 -595 -192q-1284 0 -1284 728 q0 844 1644 844h216v220q0 694 -634 694q-170 0 -340 -38q-109 -24 -109 -81q0 -39 51 -93q86 -84 86 -208q0 -122 -86 -208t-208 -86t-208 86t-87 209zM543 2023q0 -82 58 -140q57 -57 138.5 -57t139 57.5t57.5 138.5q0 83 -58 139q-53 56 -70 107q-1 4 -2.5 12t-3 21 t-3.5 22v8q-136 -66 -212 -174q-44 -62 -44 -134zM1017 74q-29 24 -57 54q-52 56 -88.5 130t-59 183.5t-22.5 242.5q0 408 224 626q76 73 98 77q-228 -35 -386 -91q-178 -64 -292 -157t-165 -205t-51 -250q0 -116 39 -211t127 -174t224 -133q136 -52 337 -82zM2110 192 q16 -18 43 -58q18 -27 29 -36h609q-141 113 -141 336v834q0 175 -27 323t-88 279.5t-155 232t-232 175t-316 115.5q246 -199 246 -645v-867q0 -324 10 -622l2 -48zM641 2024q0 41 26 76q31 44 75 80q26 -44 66 -87q30 -29 30 -71q0 -41 -28.5 -69.5t-69.5 -28.5t-69 29 q-30 29 -30 71zM823 1225q-131 -218 -131 -541q0 -143 25 -262q25 -122 67 -207v-1q-78 19 -140 44q-120 47 -195 114q-71 64 -101 138q-32 77 -32 174q0 117 42 209q42 91 138 171q101 83 264 140q30 11 63 21zM2229 196q-26 37 -43 57v10q-10 296 -10 618v867 q0 259 -78 445l3 -2q124 -67 207.5 -156t137.5 -206q56 -120 80 -255q26 -139 26 -306v-834q0 -134 45 -238h-368z" />
<glyph unicode="B" horiz-adv-x="3224" d="M1272 2398v-933h104q704 0 704 519q0 414 -704 414h-104zM1959 1415q1145 -138 1145 -695q0 -720 -1344 -720h-1640v98q370 0 384 293v1719q0 288 -384 288v98h1256q1344 0 1344 -476.5t-761 -590.5v-14zM1272 98h488q576 0 576 622t-768 647h-296v-1269zM1982 1532 q640 104 640 486q0 172 -264 266q-129 46 -234 61l-150 21q124 -90 157 -168q47 -111 47 -192q0 -216 -86 -352q-36 -67 -110 -122zM1174 98v2300h-698q126 -101 126 -288v-1721q-9 -189 -136 -291h708zM2189 120q23 2 41 5l129 21q306 52 474 194q173 147 173 380 q0 414 -817 562q249 -191 249 -615q0 -323 -179 -486q-45 -45 -70 -61zM2227 2221q297 -77 297 -203q0 -221 -303 -327q55 143 55 253q0 170 -49 277zM1076 196h-418q37 88 42 190v1724q0 102 -35 190h411v-2104zM2444 1121q464 -136 464 -401q0 -192 -156 -324 q-140 -118 -317 -135q97 189 97 363q0 325 -88 497z" />
<glyph unicode="C" horiz-adv-x="2676" d="M2520 1962q0 -120 -86.5 -210.5t-206.5 -90.5t-205.5 85.5t-85.5 205.5q0 81 39 146q48 100 48 128q0 70 -91 113q-217 103 -468 103q-414 0 -504 -317q-72 -254 -72 -877q0 -730 72 -892q134 -302 504 -302q369 0 673 170q202 113 350 276l69 -70q-157 -173 -371 -292 q-328 -182 -721 -182q-653 0 -998 331q-346 331 -346 961q0 628 350 961q347 331 994 331q412 0 694 -134q362 -172 362 -444zM2092 2328q18 -29 23 -71q7 -50 -4 -85.5t-44 -100.5t-33 -131.5t57 -123.5t135.5 -57t137 61t58.5 142q0 214 -330 366zM1025 101 q-97 84 -166 240t-69 850t76 961q41 144 138 236q-282 -74 -466 -250q-320 -304 -320 -891t316 -889q191 -184 491 -257zM2208 2151q116 -86 116 -189q0 -41 -30.5 -73t-68 -32t-65.5 28t-28 61.5t8 46.5t17 32q38 82 51 126zM776 2193q-84 -284 -84 -945q0 -728 78 -944 q-454 257 -454 944q0 686 460 945z" />
<glyph unicode="D" horiz-adv-x="3224" d="M1760 2398h-488v-2300h488q365 0 470 254q106 259 106 897t-106 895q-105 254 -470 254zM1760 2496q646 0 994 -331q350 -333 350 -917q0 -586 -346 -917q-348 -331 -998 -331h-1640v98q370 0 384 293v1671q0 336 -384 336v98h1640zM2207 148q294 73 483 254 q316 301 316 846q0 542 -320 846q-189 180 -478 253q73 -69 113 -166q113 -275 113 -933t-113 -933q-40 -98 -114 -167zM1174 2398h-713q141 -113 141 -336v-1673q-9 -189 -136 -291h708v2300zM2434 2157q103 -56 185 -134q289 -275 289 -775q0 -503 -285 -775 q-84 -80 -190 -136q99 297 99 911q0 612 -98 909zM1076 2300v-2104h-417q36 85 41 190v1676q0 134 -45 238h421z" />
<glyph unicode="E" d="M1464 54q445 0 713 150q304 170 483 452l83 -53q-189 -297 -518 -485q-283 -162 -761 -162q-652 0 -998 331t-346 961q0 628 350 961q347 331 994 331q646 0 994 -331q350 -333 350 -961h-1920q0 -730 72 -892q134 -302 504 -302zM888 1346h1152q0 647 -72 803 q-135 293 -504 293q-366 0 -470 -245q-106 -251 -106 -851zM790 1346q0 621 114 889q24 57 60 104q22 28 44 50q-284 -74 -470 -251q-320 -304 -320 -890q0 -588 316 -890q192 -184 491 -257q-97 84 -155 215q-80 181 -80 932v98zM1909 2392q91 -80 148 -202 q81 -176 81 -844h570q-25 514 -318 792q-190 181 -481 254zM692 1346v-98q0 -726 78 -944q-94 53 -169 125q-285 273 -285 819q0 544 289 819q80 76 181 131q-94 -288 -94 -852zM2163 2186q88 -51 160 -119q235 -223 279 -623h-366q-6 541 -73 742z" />
<glyph unicode="F" horiz-adv-x="2796" d="M120 2496h2496l80 -710l-98 -10q-91 622 -710 622h-616v-1077h240q336 0 336 359h98v-816h-98q0 359 -336 359h-240v-789q0 -336 384 -336v-98h-1536v98q384 0 384 336v1628q0 336 -384 336v98zM1174 434v1964h-713q141 -113 141 -336v-1628q0 -223 -141 -336h854 q-141 113 -141 336zM1848 1187v170q-44 -53 -108 -85q64 -32 108 -85zM2552 2188l-24 210h-206q140 -76 230 -210zM1076 2300v-1866q0 -130 46 -238h-468q46 107 46 238v1628q0 130 -46 238h422z" />
<glyph unicode="G" horiz-adv-x="2916" d="M1459 -44q-648 0 -993.5 331t-345.5 961t350.5 961t998.5 331q239 0 397 -62q155 -61 279 -61q125 0 140 75h98l43 -677h-98q-12 136 -162 359q-83 123 -265.5 195.5t-431.5 72.5q-419 0 -509 -317q-72 -254 -72 -877q0 -730 72 -892q134 -302 499 -302q189 0 305 86.5 t116 273.5v400q0 336 -384 336v98h1360v-98q-304 0 -304 -336v-644q-33 4 -70 4q-198 0 -487 -127q-207 -91 -536 -91zM2294 2352q-15 -9 -33 -15q-37 -14 -93 -17q46 -42 79.5 -91.5t60.5 -94.5zM1004 2387q-280 -74 -466 -249q-320 -302 -320 -890t315 -890 q192 -184 492 -257q-97 85 -155 215q-80 181 -80 932q0 637 76 904q41 143 138 235zM1837 1150q141 -113 141 -336v-400q0 -194 -106 -308q45 14 84 31q289 127 498 134v543q0 224 119 336h-736zM775 2192l-4 -14q-79 -280 -79 -930q0 -726 78 -945q-94 53 -169 126 q-285 273 -285 819t289 818q76 72 170 126zM2031 1052h364q-39 -104 -39 -238v-453q-133 -18 -291 -75q11 61 11 128v400q0 134 -45 238z" />
<glyph unicode="H" horiz-adv-x="3504" d="M3043 98q-141 113 -141 336v1628q0 223 141 336h-834q121 -113 121 -336v-1628q0 -239 -121 -336h834zM2849 196h-456q35 104 35 238v1628q0 157 -35 238h456q-45 -104 -45 -238v-1628q0 -134 45 -238zM2232 1345v717q0 336 -284 336v98h1436v-98q-384 0 -384 -336v-1628 q0 -336 384 -336v-98h-1436v98q284 0 284 336v813h-960v-813q0 -336 284 -336v-98h-1436v98q384 0 384 336v1628q0 336 -384 336v98h1436v-98q-284 0 -284 -336v-717h960zM461 98h834q-121 97 -121 336v1628q0 223 121 336h-834q141 -113 141 -336v-1628q0 -223 -141 -336z M655 196q45 104 45 238v1628q0 134 -45 238h456q-35 -81 -35 -238v-1628q0 -134 35 -238h-456z" />
<glyph unicode="I" horiz-adv-x="1776" d="M120 2496h1536v-98q-384 0 -384 -336v-1628q0 -336 384 -336v-98h-1536v98q384 0 384 336v1628q0 336 -384 336v98zM461 98h854q-141 113 -141 336v1628q0 223 141 336h-854q141 -113 141 -336v-1628q0 -223 -141 -336zM655 196q45 104 45 238v1628q0 134 -45 238h466 q-45 -104 -45 -238v-1628q0 -134 45 -238h-466z" />
<glyph unicode="J" horiz-adv-x="1804" d="M148 2496h1536v-98q-384 0 -384 -336v-1231q0 -612 -432 -805q-157 -70 -349 -70q-300 0 -519 44v98q532 0 532 569v1395q0 336 -384 336v98zM1343 2398h-854q141 -113 141 -336v-1395q0 -232 -81.5 -384t-236.5 -223q98 -6 207 -6q171 0 309 61q89 40 156.5 100.5 t117 147t75 204.5t25.5 264v1231q0 223 141 336zM1149 2300q-45 -104 -45 -238v-1231q0 -136 -23 -243q-22 -103 -65 -177q-42 -73 -97 -122q-56 -50 -131 -84q-93 -42 -205 -51q29 38 52 83q93 174 93 430v1395q0 134 -45 238h466z" />
<glyph unicode="K" horiz-adv-x="3252" d="M120 2496h1536v-98q-384 0 -384 -336v-1258l1063 1357q56 71 56 122q0 109 -265 115v98h816v-98q-141 0 -254 -53q-146 -78 -259 -223l-464 -592q158 0 227 -48t179 -279l418 -829q139 -276 403 -276v-98q-278 -44 -546 -44q-502 0 -729 446l-328 644l-317 -398v-214 q0 -336 384 -336v-98h-1536v98q384 0 384 336v1628q0 336 -384 336v98zM1174 434v1628q0 223 141 336h-854q141 -113 141 -336v-1628q0 -223 -141 -336h854q-141 113 -141 336zM1904 1452l-256 -327q17 -13 28 -35l328 -644q102 -201 261.5 -296.5t380.5 -95.5q143 0 288 13 q-142 83 -233 263l-418 830q-82 172 -134 229l-13 13q-42 30 -171 30q-36 0 -61 20zM1076 434q0 -134 45 -238h-466q45 104 45 238v1628q0 134 -45 238h466q-45 -104 -45 -238v-1628zM2447 2398q29 -33 37 -76q49 42 101 76h-138zM2077 1323q42 -46 118 -206l419 -831 q37 -73 82 -134h-50q-194 0 -330 82q-135 81 -224 257l-322 631l168 214q31 8 125 -11z" />
<glyph unicode="L" horiz-adv-x="2716" d="M1272 98h536q619 0 710 622l98 -10l-80 -710h-2411v98q350 0 379 254v1710q0 336 -384 336v98h1531v-98q-379 0 -379 -336v-1964zM474 98h700v1964q0 224 140 336h-853q141 -113 141 -336v-1710q0 -6 -1 -11q-17 -155 -127 -243zM2472 308q-90 -134 -230 -210h206z M665 196q25 62 34 134q1 11 1 22v1710q0 134 -45 238h465q-44 -104 -44 -238v-1866h-411z" />
<glyph unicode="M" horiz-adv-x="5232" d="M504 434v1628q0 336 -384 336v98h960q43 0 97.5 -64t64.5 -64q247 172 510 172q746 0 1040 -320q269 320 688 320q1248 0 1248 -908v-1198q0 -336 384 -336v-98h-1496v98q344 0 344 336v1150q0 858 -480 858q-374 0 -626 -301q146 -197 146 -559v-1148q0 -336 344 -336 v-98h-1456v98q344 0 344 336v1150q0 858 -480 858q-247 0 -487 -178q7 -60 7 -202v-1628q0 -336 344 -336v-98h-1496v98q384 0 384 336zM461 2398q141 -113 141 -336v-1628q0 -223 -141 -336h843q-130 113 -130 336v1628q0 136 -6 191q-10 88 -96 145h-611zM4771 98 q-141 113 -141 336v1198q0 128 -27 235.5t-87.5 201.5t-155 163.5t-233 119t-317.5 71.5q248 -220 248 -839v-1150q0 -223 -130 -336h843zM2720 2154q-196 214 -638 269q248 -220 248 -839v-1150q0 -223 -130 -336h832q-130 113 -130 336v1148q0 330 -127 501q-41 55 -55 71 zM655 2300h384q5 -5 10 -11q18 -21 21 -48q6 -49 6 -179v-1628q0 -134 42 -238h-463q45 104 45 238v1628q0 134 -45 238zM4577 196h-463q42 104 42 238v1150q0 439 -122 695q31 -9 108.5 -36.5t158.5 -88t132.5 -140t75 -173t23.5 -209.5v-1198q0 -134 45 -238zM2648 2087 q11 -12 49 -63q107 -145 107 -442v-1148q0 -134 42 -238h-460q42 104 42 238v1150q0 439 -122 695q225 -65 342 -192z" />
<glyph unicode="N" horiz-adv-x="3504" d="M461 2398q141 -113 141 -336v-1628q0 -223 -141 -336h843q-130 113 -130 336v1628q0 136 -6 191q-2 19 2 36q-6 4 -12 9q-18 16 -63 70q-17 21 -29 30h-605zM3043 98q-141 113 -141 336v1198q0 128 -27 235.5t-87.5 201.5t-155 163.5t-233 119t-317.5 71.5 q248 -220 248 -839v-1150q0 -223 -130 -336h843zM504 434v1628q0 336 -384 336v98h955q43 0 96.5 -66t63.5 -66q252 176 517 176q1248 0 1248 -908v-1198q0 -336 384 -336v-98h-1496v98q344 0 344 336v1150q0 858 -480 858q-247 0 -487 -178q7 -60 7 -202v-1628 q0 -336 344 -336v-98h-1496v98q384 0 384 336zM655 2300h370q39 -48 46 -65q5 -51 5 -173v-1628q0 -134 42 -238h-463q45 104 45 238v1628q0 134 -45 238zM2849 196h-463q42 104 42 238v1150q0 439 -122 695q31 -9 108.5 -36.5t158.5 -88t132.5 -140t75 -173t23.5 -209.5 v-1198q0 -134 45 -238z" />
<glyph unicode="O" d="M866 344q-76 267 -76 904t76 904q41 145 138 236q-282 -74 -466 -250q-320 -304 -320 -890q0 -588 317 -891q185 -177 470 -251q-98 92 -139 238zM1912 2391q73 -69 113 -166q113 -275 113 -977t-113 -977q-40 -98 -114 -167q294 73 483 254q316 301 316 890 q0 586 -320 890q-188 180 -478 253zM771 318l6 -18q-97 54 -175 128q-286 274 -286 820q0 544 289 819q76 73 171 126l-5 -15q-79 -280 -79 -930t79 -930zM2137 293q99 301 99 955q0 652 -98 953q103 -56 185 -134q289 -275 289 -819q0 -547 -285 -819q-84 -80 -190 -136z M1464 -44q-652 0 -998 331t-346 961q0 628 350 961q347 331 994 331q646 0 994 -331q350 -333 350 -961q0 -630 -346 -961q-348 -331 -998 -331zM1464 54q365 0 470 254q106 259 106 940q0 683 -106 940q-105 254 -470 254q-414 0 -504 -317q-72 -254 -72 -877t72 -877 q90 -317 504 -317z" />
<glyph unicode="P" horiz-adv-x="3224" d="M1076 434q0 -134 45 -238h-466q45 104 45 238v1676q-5 106 -41 190h417v-1866zM2411 2194q97 -40 175 -95q322 -227 322 -563q0 -166 -75 -289q-76 -125 -233 -217q-79 -47 -185 -80l23 46q44 99 69 238q25 137 25 302q0 182 -25 332q-25 153 -68 261q-13 34 -28 65z M1174 434v1964h-708q127 -101 136 -291v-1673q0 -224 -141 -336h854q-141 113 -141 336zM2166 795q297 41 483 151q179 105 268 251q89 145 89 339q0 387 -363 643q-192 135 -484 187q47 -40 94 -101q56 -74 95 -172t62.5 -240.5t23.5 -316.5q0 -156 -23.5 -284t-62.5 -216 t-95 -155q-43 -51 -87 -86zM1272 2398v-1628h488q576 0 576 766q0 862 -576 862h-488zM120 2496h1640q602 0 939 -237q405 -285 405 -722.5t-405 -675.5q-323 -189 -939 -189h-488v-238q0 -336 384 -336v-98h-1536v98q384 0 384 336v1671q-14 293 -384 293v98z" />
<glyph unicode="Q" d="M866 344q-76 267 -76 904t76 904q41 145 138 236q-282 -74 -466 -250q-320 -304 -320 -890q0 -588 317 -891q185 -177 470 -251q-98 92 -139 238zM1912 2391q73 -69 113 -166q113 -275 113 -977t-113 -977q-40 -98 -114 -167q294 73 483 254q316 301 316 890 q0 586 -320 890q-188 180 -478 253zM771 318l6 -18q-97 54 -175 128q-286 274 -286 820q0 544 289 819q76 73 171 126l-5 -15q-79 -280 -79 -930t79 -930zM2137 293q99 301 99 955q0 652 -98 953q103 -56 185 -134q289 -275 289 -819q0 -547 -285 -819q-84 -80 -190 -136z M976 13q-306 80 -510 274q-346 331 -346 961q0 625 350 961q350 331 994 331q643 0 994 -331q350 -336 350 -961q0 -630 -346 -961q-350 -331 -998 -331q-594 0 -594 -170q0 -68 163 -68l1079 1q205 0 205 198h77q5 -35 5 -72q0 -421 -470 -421h-1302q0 474 349 589z M1464 54q365 0 470 254q106 259 106 940q0 683 -106 940q-105 254 -470 254q-414 0 -504 -317q-72 -254 -72 -877t72 -877q90 -317 504 -317zM2248 -356q-60 -23 -136 -23q-198 0 -563.5 -0.5t-515.5 -0.5q-78 0 -131 14q-97 27 -120 101q-40 -85 -53 -213h1200 q229 0 319 122zM1464 2442z" />
<glyph unicode="R" horiz-adv-x="3252" d="M2871 62q-21 14 -36 30l-21 25l-439 632q-53 40 -189 46q-36 2 -61 24t-31 58t10.5 65t50.5 42q336 133 493.5 306.5t157.5 387.5q0 244 -363 500q-180 127 -448 180q27 -22 53 -50q58 -62 97.5 -143t64 -201t24.5 -266q0 -150 -23.5 -274t-62.5 -209t-95 -150t-114 -103 q-57 -36 -127 -60q-21 -7 -54 -17l244 -435q111 -198 270.5 -297t373.5 -99q111 0 225 8zM1174 433v1964h-708q127 -101 136 -291v-1673q0 -224 -141 -336h854q-141 113 -141 336zM120 2495h1440q602 0 939 -237q405 -285 405 -580q0 -503 -713 -785q182 -9 257 -78 l446 -642q53 -76 298 -76v-97q-279 -44 -546 -44q-479 0 -729 446l-258 460h-387v-429q0 -336 384 -336v-98h-1536v98q384 0 384 336v1671q-14 293 -384 293v98zM1272 2397v-1437h288q576 0 576 738q0 699 -576 699h-288zM1901 831q53 20 94 51q2 -38 18 -71q17 -37 47 -65 q75 -46 121 -49q93 -7 125 -21l364 -524h-24q-186 0 -322 84q-138 86 -236 262zM2247 2177q76 -35 139 -79q322 -226 322 -420q0 -176 -132 -322q-122 -134 -371 -245q17 30 32 63q44 96 70 232q25 133 25 292q0 156 -26 286q-24 111 -59 193zM1076 433q0 -134 45 -238h-466 q45 104 45 238v1676q-5 106 -41 190h417v-1866z" />
<glyph unicode="S" horiz-adv-x="2425" d="M2007 2155l-15 190q-17 -9 -53 -19q-15 -5 -65 -7q58 -51 98 -110q19 -27 35 -54zM250 275q31 18 62 23q39 5 71 0q-68 79 -112 169zM1626 98q156 34 269.5 94.5t181 143.5t99 182.5t31.5 220.5q0 162 -97 295t-301 241l-719 336q-177 91 -284 173q-150 114 -150 343 q0 140 71 236q-110 -42 -203 -106q-253 -174 -253 -495q0 -179 104 -316q113 -149 342 -253l680 -308l53 -29q25 -15 61.5 -41.5t66 -54.5t61 -68.5t53 -84t35 -100.5t13.5 -118q0 -182 -114 -291zM1990 2492l88 10l53 -677l-98 -10q-14 149 -142 339q-83 123 -260.5 205.5 t-426.5 82.5q-450 0 -450 -315q0 -180 111 -265q101 -77 268 -163l720 -336q451 -240 452 -624q0 -783 -1152 -783q-174 0 -335 48q-191 58 -350 156q-69 43 -119 43q-113 0 -133 -213l-96 10l81 720l98 -10q49 -349 427 -559q175 -97 427 -97q489 0 489 335q0 259 -288 408 l-677 307q-252 114 -380 283q-123 162 -124 375q0 373 295 576q294 202 736 202q235 0 397 -62q160 -61 270 -61q106 0 119 75zM1826 267q12 58 12 122q0 73 -16 141q-16 67 -43 121q-26 53 -63 100q-36 46 -71 80q-34 32 -76 63q-40 29 -69 46q-27 16 -60 33l-682 310 q-207 94 -305 222q-84 111 -84 257v2q0 256 190 398q-1 -17 -1 -35q0 -277 188 -421q114 -87 301 -183l719 -335q181 -96 265 -212q78 -107 78 -237v-1q0 -105 -27 -190q-26 -82 -82 -150q-55 -68 -150 -119z" />
<glyph unicode="T" d="M2447 2398q145 -77 238 -214l-25 214h-213zM1750 2398h-572v-1964q0 -223 -141 -336h854q-141 113 -141 336v1964zM481 2398h-213l-25 -214q93 137 238 214zM180 2496h2568l80 -710l-98 -10q-91 622 -730 622h-152v-1964q0 -336 384 -336v-98h-1536v98q384 0 384 336 v1964h-152q-639 0 -730 -622l-98 10zM1652 2300v-1866q0 -134 45 -238h-466q45 104 45 238v1866h376z" />
<glyph unicode="U" horiz-adv-x="3444" d="M2983 98q-141 113 -141 336v1997q-180 -77 -572 -86v-1911q0 -112 7 -194q4 -51 60 -112q21 -23 34 -30h612zM401 2398q141 -113 141 -336v-1198q0 -124 25 -227.5t81 -195.5t143 -161.5t214.5 -120.5t291.5 -77q-183 158 -183 496v1484q0 203 -42 291q-20 45 -52 45 h-619zM2940 434q0 -336 384 -336v-98h-960q-43 0 -99.5 62.5t-66.5 62.5q-247 -169 -506 -169q-1248 0 -1248 908v1198q0 336 -384 336v98h960q192 0 192 -434v-1484q0 -524 480 -524q247 0 487 178q-7 86 -7 202v2008q504 0 672 99l96 -1v-2106zM2789 196h-381 q-32 37 -34 52q-6 78 -6 186v1816q225 10 376 46v-1862q0 -134 45 -238zM595 2300h393q28 -76 28 -238v-1484q0 -195 57 -340l-31 12q-114 45 -190 106q-73 59 -120 136q-48 79 -70 167q-22 93 -22 205v1198q0 134 -45 238z" />
<glyph unicode="V" horiz-adv-x="2858" d="M1265 391l117 -307q6 -16 16.5 -23t35.5 -7h54l271 683l2 4q-38 14 -55 55l-532 1310q-78 212 -157 273q-22 17 -45 19h-575q94 -82 157 -239zM2402 2398q20 -23 33 -52q23 29 49 52h-82zM1174 355l-711 1767q-69 171 -173 233q-72 43 -230 43v98h912q163 0 293 -355 l532 -1308l528 1308q33 82 33 103q0 154 -244 154v98h624v-98q-215 -5 -316 -276l-572 -1421l-295 -745h-121q-107 0 -143 93zM959 2300q57 -47 123 -230l533 -1311q11 -26 28 -48l-201 -508l-86 224l-711 1768q-23 57 -50 105h364z" />
<glyph unicode="W" horiz-adv-x="4394" d="M2801 391l117 -307q6 -16 16.5 -23t35.5 -7h54l271 683l2 4q-38 14 -55 55l-532 1310q-27 72 -27 131q0 96 62 161h-812q94 -82 157 -239zM397 2398q94 -82 157 -239l711 -1768l117 -307q6 -16 16.5 -23t35.5 -7h54l271 683l2 4q-38 14 -55 55l-532 1310 q-78 212 -157 273q-22 17 -45 19h-575zM3938 2398q20 -23 33 -52q23 29 49 52h-82zM2710 355l-500 1241l-360 -895l-295 -745h-121q-107 0 -143 93l-117 306l-711 1767q-69 171 -173 233q-72 43 -230 43v98h912q163 0 293 -355l532 -1308l361 894l-159 395q-69 171 -173 233 q-72 43 -230 43v98h1462v-98q-277 -2 -277 -161q0 -42 20 -96l532 -1308l528 1308q33 82 33 103q0 154 -244 154v98h624v-98q-215 -5 -316 -276l-572 -1421l-295 -745h-121q-107 0 -143 93zM3179 711l-201 -508l-86 224l-711 1768q-23 57 -50 105h459q-5 -30 -5 -63 q0 -77 33 -167l533 -1311q11 -26 28 -48zM595 2300h364q57 -47 123 -230l533 -1311q11 -27 28 -48l-201 -508l-86 224l-711 1768q-23 57 -50 105z" />
<glyph unicode="X" horiz-adv-x="2872" d="M1543 399q45 -88 45 -161q0 -83 -52 -140h878q-120 83 -195 232l-894 1767q-70 139 -129 209q-74 86 -126 92h-595q103 -90 175 -232zM598 98q-19 26 -26 58q-31 -33 -61 -58h87zM2178 2398q24 -28 37 -63q38 35 76 63h-113zM2306 374q140 -276 446 -276v-98h-1496v98 q234 9 234 140q0 50 -34 117l-296 585l-429 -585q-68 -92 -68 -151q0 -106 217 -106h16v-98h-776v98q150 0 212 10q117 25 293 266l486 665l-548 1083q-74 145 -182 226q-67 50 -221 50v98h912q166 -8 341 -355l265 -526l375 526q77 108 77 118q0 139 -258 139v98h776v-98 q-153 0 -259 -53q-118 -68 -229 -223l-432 -605zM1631 444l-893 1767q-24 47 -52 89h374q19 -8 62 -58q51 -60 116 -189l893 -1768q24 -47 53 -89h-501q3 21 3 42q0 97 -55 206z" />
<glyph unicode="Y" horiz-adv-x="3026" d="M2450 2398q35 -35 49 -82q44 47 93 82h-142zM1992 98q-141 113 -141 336v719q-44 7 -68 48l-513 893q-63 121 -120.5 196t-102.5 99q-16 8 -32 9h-624q119 -82 201 -228l675 -1210q12 -22 12 -48v-478q0 -223 -141 -336h854zM1868 1250l511 891q32 56 32 109 q0 145 -301 148v98h796v-98q-269 0 -427 -276l-530 -927v-761q0 -336 384 -336v-98h-1536v98q384 0 384 336v478l-675 1210q-154 276 -446 276v98h955q157 0 341 -355zM1798 196h-466q45 104 45 238v478q0 51 -25 95l-675 1210q-24 44 -52 83h379q27 -16 68 -70 q52 -68 112 -183l514 -895q22 -38 55 -62v-656q0 -134 45 -238z" />
<glyph unicode="Z" d="M2558 2398h-917q15 -15 26.5 -32t17.5 -30.5t10 -29.5t5 -25t2 -21l1 -11q0 -113 -64 -211l-1111 -1718q-99 -144 -189 -222h963q-15 15 -26 32t-17 30.5t-10 29.5t-5 25t-2 21l-1 11q0 120 59 211l1111 1717q118 182 147 223zM2664 308q-90 -134 -230 -210h206z M570 2398h-206l-24 -210q91 134 230 210zM276 2496h2532v-98q-102 0 -162 -46q-8 -6 -153 -230l-1111 -1717q-43 -66 -43 -158q0 -149 328 -149h333q619 0 710 622l98 -10l-80 -710h-2608v98q136 0 326 276l1111 1717q48 74 48 158q0 149 -331 149h-270q-619 0 -710 -622 l-98 10zM1148 196h-589l50 69l1113 1719q79 123 79 265q0 26 -5 51h579l-47 -72l-1110 -1716q-75 -115 -75 -265q0 -26 5 -51z" />
<glyph unicode="[" horiz-adv-x="1584" d="M931 -43q-141 113 -141 336v1903q0 223 141 336h-713v-2575h713zM1272 2532q-384 0 -384 -336v-1903q0 -336 384 -336h192v-98h-1344v2771h1344v-98h-192zM737 55h-421v2379h421q-45 -104 -45 -238v-1903q0 -134 45 -238z" />
<glyph unicode="\" horiz-adv-x="1885" d="M249 2466l1352 -2462l36 26l-1349 2463zM120 2496l202 139l1443 -2635l-197 -139z" />
<glyph unicode="]" horiz-adv-x="1584" d="M653 -6h713v2538h-713q141 -113 141 -336v-1866q0 -223 -141 -336zM120 2630h1344v-2734h-1344v98h192q384 0 384 336v1866q0 336 -384 336h-192v98zM847 92q45 104 45 238v1866q0 134 -45 238h421v-2342h-421z" />
<glyph unicode="^" horiz-adv-x="1363" d="M696 3138l547 -543l-176 -176l-117 115q-166 164 -268 164t-269 -164l-117 -115l-176 176l547 543h29zM682 3014l-423 -419l38 -38l47 47q149 147 264 181q36 11 74 11q34 1 74 -11q109 -33 256 -174l7 -7l47 -47l38 38z" />
<glyph unicode="_" horiz-adv-x="3504" d="M3286 -43v44h-3068v-44h3068zM3384 -141h-3264v240h3264v-240z" />
<glyph unicode="`" horiz-adv-x="1320" d="M1174 2679h-202l-306 289q-142 134 -343 139v48h624q24 0 53 -38q26 -54 174 -438zM714 3057l19 -18l278 -262h20q-87 225 -111 280h-206z" />
<glyph unicode="a" horiz-adv-x="3252" d="M1980 1430h-296q-796 0 -796 -746q0 -630 516 -630q341 0 586 202q-10 298 -10 625v549zM445 2023q0 103 62 191q134 187 413 266q213 60 426 60q1402 0 1402 -1272v-834q0 -336 384 -336v-98h-960q-48 0 -101 80t-72 68q-242 -192 -595 -192q-1284 0 -1284 728 q0 844 1644 844h216v220q0 694 -634 694q-170 0 -340 -38q-109 -24 -109 -81q0 -39 51 -93q86 -84 86 -208q0 -122 -86 -208t-208 -86t-208 86t-87 209zM543 2023q0 -82 58 -140q57 -57 138.5 -57t139 57.5t57.5 138.5q0 83 -58 139q-53 56 -70 107q-1 4 -2.5 12t-3 21 t-3.5 22v8q-136 -66 -212 -174q-44 -62 -44 -134zM1017 74q-29 24 -57 54q-52 56 -88.5 130t-59 183.5t-22.5 242.5q0 408 224 626q76 73 98 77q-228 -35 -386 -91q-178 -64 -292 -157t-165 -205t-51 -250q0 -116 39 -211t127 -174t224 -133q136 -52 337 -82zM2110 192 q16 -18 43 -58q18 -27 29 -36h609q-141 113 -141 336v834q0 175 -27 323t-88 279.5t-155 232t-232 175t-316 115.5q246 -199 246 -645v-867q0 -324 10 -622l2 -48zM641 2024q0 41 26 76q31 44 75 80q26 -44 66 -87q30 -29 30 -71q0 -41 -28.5 -69.5t-69.5 -28.5t-69 29 q-30 29 -30 71zM823 1225q-131 -218 -131 -541q0 -143 25 -262q25 -122 67 -207v-1q-78 19 -140 44q-120 47 -195 114q-71 64 -101 138q-32 77 -32 174q0 117 42 209q42 91 138 171q101 83 264 140q30 11 63 21zM2229 196q-26 37 -43 57v10q-10 296 -10 618v867 q0 259 -78 445l3 -2q124 -67 207.5 -156t137.5 -206q56 -120 80 -255q26 -139 26 -306v-834q0 -134 45 -238h-368z" />
<glyph unicode="b" horiz-adv-x="3224" d="M1272 2398v-933h104q704 0 704 519q0 414 -704 414h-104zM1959 1415q1145 -138 1145 -695q0 -720 -1344 -720h-1640v98q370 0 384 293v1719q0 288 -384 288v98h1256q1344 0 1344 -476.5t-761 -590.5v-14zM1272 98h488q576 0 576 622t-768 647h-296v-1269zM1982 1532 q640 104 640 486q0 172 -264 266q-129 46 -234 61l-150 21q124 -90 157 -168q47 -111 47 -192q0 -216 -86 -352q-36 -67 -110 -122zM1174 98v2300h-698q126 -101 126 -288v-1721q-9 -189 -136 -291h708zM2189 120q23 2 41 5l129 21q306 52 474 194q173 147 173 380 q0 414 -817 562q249 -191 249 -615q0 -323 -179 -486q-45 -45 -70 -61zM2227 2221q297 -77 297 -203q0 -221 -303 -327q55 143 55 253q0 170 -49 277zM1076 196h-418q37 88 42 190v1724q0 102 -35 190h411v-2104zM2444 1121q464 -136 464 -401q0 -192 -156 -324 q-140 -118 -317 -135q97 189 97 363q0 325 -88 497z" />
<glyph unicode="c" horiz-adv-x="2676" d="M2520 1962q0 -120 -86.5 -210.5t-206.5 -90.5t-205.5 85.5t-85.5 205.5q0 81 39 146q48 100 48 128q0 70 -91 113q-217 103 -468 103q-414 0 -504 -317q-72 -254 -72 -877q0 -730 72 -892q134 -302 504 -302q369 0 673 170q202 113 350 276l69 -70q-157 -173 -371 -292 q-328 -182 -721 -182q-653 0 -998 331q-346 331 -346 961q0 628 350 961q347 331 994 331q412 0 694 -134q362 -172 362 -444zM2092 2328q18 -29 23 -71q7 -50 -4 -85.5t-44 -100.5t-33 -131.5t57 -123.5t135.5 -57t137 61t58.5 142q0 214 -330 366zM1025 101 q-97 84 -166 240t-69 850t76 961q41 144 138 236q-282 -74 -466 -250q-320 -304 -320 -891t316 -889q191 -184 491 -257zM2208 2151q116 -86 116 -189q0 -41 -30.5 -73t-68 -32t-65.5 28t-28 61.5t8 46.5t17 32q38 82 51 126zM776 2193q-84 -284 -84 -945q0 -728 78 -944 q-454 257 -454 944q0 686 460 945z" />
<glyph unicode="d" horiz-adv-x="3224" d="M1760 2398h-488v-2300h488q365 0 470 254q106 259 106 897t-106 895q-105 254 -470 254zM1760 2496q646 0 994 -331q350 -333 350 -917q0 -586 -346 -917q-348 -331 -998 -331h-1640v98q370 0 384 293v1671q0 336 -384 336v98h1640zM2207 148q294 73 483 254 q316 301 316 846q0 542 -320 846q-189 180 -478 253q73 -69 113 -166q113 -275 113 -933t-113 -933q-40 -98 -114 -167zM1174 2398h-713q141 -113 141 -336v-1673q-9 -189 -136 -291h708v2300zM2434 2157q103 -56 185 -134q289 -275 289 -775q0 -503 -285 -775 q-84 -80 -190 -136q99 297 99 911q0 612 -98 909zM1076 2300v-2104h-417q36 85 41 190v1676q0 134 -45 238h421z" />
<glyph unicode="e" d="M1464 54q445 0 713 150q304 170 483 452l83 -53q-189 -297 -518 -485q-283 -162 -761 -162q-652 0 -998 331t-346 961q0 628 350 961q347 331 994 331q646 0 994 -331q350 -333 350 -961h-1920q0 -730 72 -892q134 -302 504 -302zM888 1346h1152q0 647 -72 803 q-135 293 -504 293q-366 0 -470 -245q-106 -251 -106 -851zM790 1346q0 621 114 889q24 57 60 104q22 28 44 50q-284 -74 -470 -251q-320 -304 -320 -890q0 -588 316 -890q192 -184 491 -257q-97 84 -155 215q-80 181 -80 932v98zM1909 2392q91 -80 148 -202 q81 -176 81 -844h570q-25 514 -318 792q-190 181 -481 254zM692 1346v-98q0 -726 78 -944q-94 53 -169 125q-285 273 -285 819q0 544 289 819q80 76 181 131q-94 -288 -94 -852zM2163 2186q88 -51 160 -119q235 -223 279 -623h-366q-6 541 -73 742z" />
<glyph unicode="f" horiz-adv-x="2796" d="M120 2496h2496l80 -710l-98 -10q-91 622 -710 622h-616v-1077h240q336 0 336 359h98v-816h-98q0 359 -336 359h-240v-789q0 -336 384 -336v-98h-1536v98q384 0 384 336v1628q0 336 -384 336v98zM1174 434v1964h-713q141 -113 141 -336v-1628q0 -223 -141 -336h854 q-141 113 -141 336zM1848 1187v170q-44 -53 -108 -85q64 -32 108 -85zM2552 2188l-24 210h-206q140 -76 230 -210zM1076 2300v-1866q0 -130 46 -238h-468q46 107 46 238v1628q0 130 -46 238h422z" />
<glyph unicode="g" horiz-adv-x="2916" d="M1459 -44q-648 0 -993.5 331t-345.5 961t350.5 961t998.5 331q239 0 397 -62q155 -61 279 -61q125 0 140 75h98l43 -677h-98q-12 136 -162 359q-83 123 -265.5 195.5t-431.5 72.5q-419 0 -509 -317q-72 -254 -72 -877q0 -730 72 -892q134 -302 499 -302q189 0 305 86.5 t116 273.5v400q0 336 -384 336v98h1360v-98q-304 0 -304 -336v-644q-33 4 -70 4q-198 0 -487 -127q-207 -91 -536 -91zM2294 2352q-15 -9 -33 -15q-37 -14 -93 -17q46 -42 79.5 -91.5t60.5 -94.5zM1004 2387q-280 -74 -466 -249q-320 -302 -320 -890t315 -890 q192 -184 492 -257q-97 85 -155 215q-80 181 -80 932q0 637 76 904q41 143 138 235zM1837 1150q141 -113 141 -336v-400q0 -194 -106 -308q45 14 84 31q289 127 498 134v543q0 224 119 336h-736zM775 2192l-4 -14q-79 -280 -79 -930q0 -726 78 -945q-94 53 -169 126 q-285 273 -285 819t289 818q76 72 170 126zM2031 1052h364q-39 -104 -39 -238v-453q-133 -18 -291 -75q11 61 11 128v400q0 134 -45 238z" />
<glyph unicode="h" horiz-adv-x="3504" d="M3043 98q-141 113 -141 336v1628q0 223 141 336h-834q121 -113 121 -336v-1628q0 -239 -121 -336h834zM2849 196h-456q35 104 35 238v1628q0 157 -35 238h456q-45 -104 -45 -238v-1628q0 -134 45 -238zM2232 1345v717q0 336 -284 336v98h1436v-98q-384 0 -384 -336v-1628 q0 -336 384 -336v-98h-1436v98q284 0 284 336v813h-960v-813q0 -336 284 -336v-98h-1436v98q384 0 384 336v1628q0 336 -384 336v98h1436v-98q-284 0 -284 -336v-717h960zM461 98h834q-121 97 -121 336v1628q0 223 121 336h-834q141 -113 141 -336v-1628q0 -223 -141 -336z M655 196q45 104 45 238v1628q0 134 -45 238h456q-35 -81 -35 -238v-1628q0 -134 35 -238h-456z" />
<glyph unicode="i" horiz-adv-x="1776" d="M120 1958h1536v-98q-384 0 -384 -336v-1090q0 -336 384 -336v-98h-1536v98q384 0 384 336v1090q0 336 -384 336v98zM461 98h854q-141 113 -141 336v1090q0 223 141 336h-854q141 -113 141 -336v-1090q0 -223 -141 -336zM602 2766q0 -117 84.5 -201.5t201.5 -84.5 t201.5 84.5t84.5 201.5t-84.5 201.5t-201.5 84.5t-201.5 -84.5t-84.5 -201.5zM655 196q45 104 45 238v1090q0 134 -45 238h466q-45 -104 -45 -238v-1090q0 -134 45 -238h-466zM617 3037q113 113 271 113t271 -113t113 -271t-113 -271t-271 -113t-271 113t-113 271t113 271z M700 2766q0 77 55.5 132.5t132.5 55.5t132.5 -55.5t55.5 -132.5t-55.5 -132.5t-132.5 -55.5t-132.5 55.5t-55.5 132.5z" />
<glyph unicode="j" horiz-adv-x="1540" d="M630 2766q0 -117 84.5 -201.5t201.5 -84.5t201.5 84.5t84.5 201.5t-84.5 201.5t-201.5 84.5t-201.5 -84.5t-84.5 -201.5zM532 1958q506 0 672 98h96v-1225q0 -875 -781 -875q-300 0 -519 44v98q532 0 532 569v857q0 336 -384 336v98h384zM728 2766q0 77 55.5 132.5 t132.5 55.5t132.5 -55.5t55.5 -132.5t-55.5 -132.5t-132.5 -55.5t-132.5 55.5t-55.5 132.5zM645 3037q113 113 271 113t271 -113t113 -271t-113 -271t-271 -113t-271 113t-113 271t113 271zM1202 1946q-200 -86 -670 -86h-43q141 -113 141 -336v-857q0 -232 -81.5 -384 t-236.5 -223q98 -6 207 -6q127 0 229 24t188 80.5t144 145t90 221.5t32 306v1115zM582 154q29 39 53 83q93 174 93 430v857q0 135 -46 240q256 8 422 48v-981q0 -161 -29 -283q-28 -116 -77 -191q-47 -71 -116 -117q-72 -47 -156 -67q-66 -15 -144 -19z" />
<glyph unicode="k" horiz-adv-x="3252" d="M120 2496h1536v-98q-384 0 -384 -336v-1258l1063 1357q56 71 56 122q0 109 -265 115v98h816v-98q-141 0 -254 -53q-146 -78 -259 -223l-464 -592q158 0 227 -48t179 -279l418 -829q139 -276 403 -276v-98q-278 -44 -546 -44q-502 0 -729 446l-328 644l-317 -398v-214 q0 -336 384 -336v-98h-1536v98q384 0 384 336v1628q0 336 -384 336v98zM1174 434v1628q0 223 141 336h-854q141 -113 141 -336v-1628q0 -223 -141 -336h854q-141 113 -141 336zM1904 1452l-256 -327q17 -13 28 -35l328 -644q102 -201 261.5 -296.5t380.5 -95.5q143 0 288 13 q-142 83 -233 263l-418 830q-82 172 -134 229l-13 13q-42 30 -171 30q-36 0 -61 20zM1076 434q0 -134 45 -238h-466q45 104 45 238v1628q0 134 -45 238h466q-45 -104 -45 -238v-1628zM2447 2398q29 -33 37 -76q49 42 101 76h-138zM2077 1323q42 -46 118 -206l419 -831 q37 -73 82 -134h-50q-194 0 -330 82q-135 81 -224 257l-322 631l168 214q31 8 125 -11z" />
<glyph unicode="l" horiz-adv-x="2716" d="M1272 98h536q619 0 710 622l98 -10l-80 -710h-2411v98q350 0 379 254v1710q0 336 -384 336v98h1531v-98q-379 0 -379 -336v-1964zM474 98h700v1964q0 224 140 336h-853q141 -113 141 -336v-1710q0 -6 -1 -11q-17 -155 -127 -243zM2472 308q-90 -134 -230 -210h206z M665 196q25 62 34 134q1 11 1 22v1710q0 134 -45 238h465q-44 -104 -44 -238v-1866h-411z" />
<glyph unicode="m" horiz-adv-x="5232" d="M504 434v1628q0 336 -384 336v98h960q43 0 97.5 -64t64.5 -64q247 172 510 172q746 0 1040 -320q269 320 688 320q1248 0 1248 -908v-1198q0 -336 384 -336v-98h-1496v98q344 0 344 336v1150q0 858 -480 858q-374 0 -626 -301q146 -197 146 -559v-1148q0 -336 344 -336 v-98h-1456v98q344 0 344 336v1150q0 858 -480 858q-247 0 -487 -178q7 -60 7 -202v-1628q0 -336 344 -336v-98h-1496v98q384 0 384 336zM461 2398q141 -113 141 -336v-1628q0 -223 -141 -336h843q-130 113 -130 336v1628q0 136 -6 191q-10 88 -96 145h-611zM4771 98 q-141 113 -141 336v1198q0 128 -27 235.5t-87.5 201.5t-155 163.5t-233 119t-317.5 71.5q248 -220 248 -839v-1150q0 -223 -130 -336h843zM2720 2154q-196 214 -638 269q248 -220 248 -839v-1150q0 -223 -130 -336h832q-130 113 -130 336v1148q0 330 -127 501q-41 55 -55 71 zM655 2300h384q5 -5 10 -11q18 -21 21 -48q6 -49 6 -179v-1628q0 -134 42 -238h-463q45 104 45 238v1628q0 134 -45 238zM4577 196h-463q42 104 42 238v1150q0 439 -122 695q31 -9 108.5 -36.5t158.5 -88t132.5 -140t75 -173t23.5 -209.5v-1198q0 -134 45 -238zM2648 2087 q11 -12 49 -63q107 -145 107 -442v-1148q0 -134 42 -238h-460q42 104 42 238v1150q0 439 -122 695q225 -65 342 -192z" />
<glyph unicode="n" horiz-adv-x="3504" d="M461 2398q141 -113 141 -336v-1628q0 -223 -141 -336h843q-130 113 -130 336v1628q0 136 -6 191q-2 19 2 36q-6 4 -12 9q-18 16 -63 70q-17 21 -29 30h-605zM3043 98q-141 113 -141 336v1198q0 128 -27 235.5t-87.5 201.5t-155 163.5t-233 119t-317.5 71.5 q248 -220 248 -839v-1150q0 -223 -130 -336h843zM504 434v1628q0 336 -384 336v98h955q43 0 96.5 -66t63.5 -66q252 176 517 176q1248 0 1248 -908v-1198q0 -336 384 -336v-98h-1496v98q344 0 344 336v1150q0 858 -480 858q-247 0 -487 -178q7 -60 7 -202v-1628 q0 -336 344 -336v-98h-1496v98q384 0 384 336zM655 2300h370q39 -48 46 -65q5 -51 5 -173v-1628q0 -134 42 -238h-463q45 104 45 238v1628q0 134 -45 238zM2849 196h-463q42 104 42 238v1150q0 439 -122 695q31 -9 108.5 -36.5t158.5 -88t132.5 -140t75 -173t23.5 -209.5 v-1198q0 -134 45 -238z" />
<glyph unicode="o" d="M866 344q-76 267 -76 904t76 904q41 145 138 236q-282 -74 -466 -250q-320 -304 -320 -890q0 -588 317 -891q185 -177 470 -251q-98 92 -139 238zM1912 2391q73 -69 113 -166q113 -275 113 -977t-113 -977q-40 -98 -114 -167q294 73 483 254q316 301 316 890 q0 586 -320 890q-188 180 -478 253zM771 318l6 -18q-97 54 -175 128q-286 274 -286 820q0 544 289 819q76 73 171 126l-5 -15q-79 -280 -79 -930t79 -930zM2137 293q99 301 99 955q0 652 -98 953q103 -56 185 -134q289 -275 289 -819q0 -547 -285 -819q-84 -80 -190 -136z M1464 -44q-652 0 -998 331t-346 961q0 628 350 961q347 331 994 331q646 0 994 -331q350 -333 350 -961q0 -630 -346 -961q-348 -331 -998 -331zM1464 54q365 0 470 254q106 259 106 940q0 683 -106 940q-105 254 -470 254q-414 0 -504 -317q-72 -254 -72 -877t72 -877 q90 -317 504 -317z" />
<glyph unicode="p" horiz-adv-x="3224" d="M1076 434q0 -134 45 -238h-466q45 104 45 238v1676q-5 106 -41 190h417v-1866zM2411 2194q97 -40 175 -95q322 -227 322 -563q0 -166 -75 -289q-76 -125 -233 -217q-79 -47 -185 -80l23 46q44 99 69 238q25 137 25 302q0 182 -25 332q-25 153 -68 261q-13 34 -28 65z M1174 434v1964h-708q127 -101 136 -291v-1673q0 -224 -141 -336h854q-141 113 -141 336zM2166 795q297 41 483 151q179 105 268 251q89 145 89 339q0 387 -363 643q-192 135 -484 187q47 -40 94 -101q56 -74 95 -172t62.5 -240.5t23.5 -316.5q0 -156 -23.5 -284t-62.5 -216 t-95 -155q-43 -51 -87 -86zM1272 2398v-1628h488q576 0 576 766q0 862 -576 862h-488zM120 2496h1640q602 0 939 -237q405 -285 405 -722.5t-405 -675.5q-323 -189 -939 -189h-488v-238q0 -336 384 -336v-98h-1536v98q384 0 384 336v1671q-14 293 -384 293v98z" />
<glyph unicode="q" d="M866 344q-76 267 -76 904t76 904q41 145 138 236q-282 -74 -466 -250q-320 -304 -320 -890q0 -588 317 -891q185 -177 470 -251q-98 92 -139 238zM1912 2391q73 -69 113 -166q113 -275 113 -977t-113 -977q-40 -98 -114 -167q294 73 483 254q316 301 316 890 q0 586 -320 890q-188 180 -478 253zM771 318l6 -18q-97 54 -175 128q-286 274 -286 820q0 544 289 819q76 73 171 126l-5 -15q-79 -280 -79 -930t79 -930zM2137 293q99 301 99 955q0 652 -98 953q103 -56 185 -134q289 -275 289 -819q0 -547 -285 -819q-84 -80 -190 -136z M976 13q-306 80 -510 274q-346 331 -346 961q0 625 350 961q350 331 994 331q643 0 994 -331q350 -336 350 -961q0 -630 -346 -961q-350 -331 -998 -331q-594 0 -594 -170q0 -68 163 -68l1079 1q205 0 205 198h77q5 -35 5 -72q0 -421 -470 -421h-1302q0 474 349 589z M1464 54q365 0 470 254q106 259 106 940q0 683 -106 940q-105 254 -470 254q-414 0 -504 -317q-72 -254 -72 -877t72 -877q90 -317 504 -317zM2248 -356q-60 -23 -136 -23q-198 0 -563.5 -0.5t-515.5 -0.5q-78 0 -131 14q-97 27 -120 101q-40 -85 -53 -213h1200 q229 0 319 122zM1464 2442z" />
<glyph unicode="r" horiz-adv-x="3252" d="M2871 62q-21 14 -36 30l-21 25l-439 632q-53 40 -189 46q-36 2 -61 24t-31 58t10.5 65t50.5 42q336 133 493.5 306.5t157.5 387.5q0 244 -363 500q-180 127 -448 180q27 -22 53 -50q58 -62 97.5 -143t64 -201t24.5 -266q0 -150 -23.5 -274t-62.5 -209t-95 -150t-114 -103 q-57 -36 -127 -60q-21 -7 -54 -17l244 -435q111 -198 270.5 -297t373.5 -99q111 0 225 8zM1174 433v1964h-708q127 -101 136 -291v-1673q0 -224 -141 -336h854q-141 113 -141 336zM120 2495h1440q602 0 939 -237q405 -285 405 -580q0 -503 -713 -785q182 -9 257 -78 l446 -642q53 -76 298 -76v-97q-279 -44 -546 -44q-479 0 -729 446l-258 460h-387v-429q0 -336 384 -336v-98h-1536v98q384 0 384 336v1671q-14 293 -384 293v98zM1272 2397v-1437h288q576 0 576 738q0 699 -576 699h-288zM1901 831q53 20 94 51q2 -38 18 -71q17 -37 47 -65 q75 -46 121 -49q93 -7 125 -21l364 -524h-24q-186 0 -322 84q-138 86 -236 262zM2247 2177q76 -35 139 -79q322 -226 322 -420q0 -176 -132 -322q-122 -134 -371 -245q17 30 32 63q44 96 70 232q25 133 25 292q0 156 -26 286q-24 111 -59 193zM1076 433q0 -134 45 -238h-466 q45 104 45 238v1676q-5 106 -41 190h417v-1866z" />
<glyph unicode="s" horiz-adv-x="2545" d="M2067 2151l-15 195q-26 -13 -59 -20q-2 0 -60 -5h-2q59 -52 99 -112q20 -30 37 -58zM250 275q31 18 62 23q39 5 71 0q-68 79 -112 169zM1739 108q157 35 271 92t183 133.5t101.5 166.5t32.5 199q0 178 -110 321.5t-346 253.5l-720 336q-187 89 -293 176 q-167 136 -167 341q0 133 66 226q-96 -39 -178 -96q-253 -174 -253 -495q0 -179 104 -316q110 -145 347 -253l680 -308q403 -209 403 -496q0 -175 -121 -281zM2050 2492l88 10l53 -677l-98 -10q-13 145 -144 339q-83 123 -259.5 205.5t-425.5 82.5q-475 0 -475 -315 q0 -158 131 -265q97 -79 273 -163l720 -336q511 -240 512 -664q0 -743 -1272 -743q-174 0 -335 48q-191 58 -350 156q-69 43 -119 43q-113 0 -133 -213l-96 10l81 720l98 -10q49 -349 427 -559q175 -97 427 -97q609 0 609 335q0 228 -348 408l-677 307q-260 118 -385 283 q-123 162 -124 375q0 373 295 576q294 202 741 202q237 0 397 -60q163 -61 272 -61q104 0 117 73zM1947 279q11 53 11 110q0 174 -116 321t-342 263l-682 309q-215 97 -310 223q-84 111 -84 257v2q0 242 169 382v-19q0 -251 203 -417q115 -94 313 -188l721 -337 q214 -100 309 -224q90 -117 90 -262v-1q0 -90 -27 -164q-26 -72 -82 -135q-57 -63 -154 -111z" />
<glyph unicode="t" d="M2447 2398q145 -77 238 -214l-25 214h-213zM1750 2398h-572v-1964q0 -223 -141 -336h854q-141 113 -141 336v1964zM481 2398h-213l-25 -214q93 137 238 214zM180 2496h2568l80 -710l-98 -10q-91 622 -730 622h-152v-1964q0 -336 384 -336v-98h-1536v98q384 0 384 336 v1964h-152q-639 0 -730 -622l-98 10zM1652 2300v-1866q0 -134 45 -238h-466q45 104 45 238v1866h376z" />
<glyph unicode="u" horiz-adv-x="3444" d="M2983 98q-141 113 -141 336v1997q-180 -77 -572 -86v-1911q0 -112 7 -194q4 -51 60 -112q21 -23 34 -30h612zM401 2398q141 -113 141 -336v-1198q0 -124 25 -227.5t81 -195.5t143 -161.5t214.5 -120.5t291.5 -77q-183 158 -183 496v1484q0 203 -42 291q-20 45 -52 45 h-619zM2940 434q0 -336 384 -336v-98h-960q-43 0 -99.5 62.5t-66.5 62.5q-247 -169 -506 -169q-1248 0 -1248 908v1198q0 336 -384 336v98h960q192 0 192 -434v-1484q0 -524 480 -524q247 0 487 178q-7 86 -7 202v2008q504 0 672 99l96 -1v-2106zM2789 196h-381 q-32 37 -34 52q-6 78 -6 186v1816q225 10 376 46v-1862q0 -134 45 -238zM595 2300h393q28 -76 28 -238v-1484q0 -195 57 -340l-31 12q-114 45 -190 106q-73 59 -120 136q-48 79 -70 167q-22 93 -22 205v1198q0 134 -45 238z" />
<glyph unicode="v" horiz-adv-x="2858" d="M1265 391l117 -307q6 -16 16.5 -23t35.5 -7h54l271 683l2 4q-38 14 -55 55l-532 1310q-78 212 -157 273q-22 17 -45 19h-575q94 -82 157 -239zM2402 2398q20 -23 33 -52q23 29 49 52h-82zM1174 355l-711 1767q-69 171 -173 233q-72 43 -230 43v98h912q163 0 293 -355 l532 -1308l528 1308q33 82 33 103q0 154 -244 154v98h624v-98q-215 -5 -316 -276l-572 -1421l-295 -745h-121q-107 0 -143 93zM959 2300q57 -47 123 -230l533 -1311q11 -26 28 -48l-201 -508l-86 224l-711 1768q-23 57 -50 105h364z" />
<glyph unicode="w" horiz-adv-x="4394" d="M2801 391l117 -307q6 -16 16.5 -23t35.5 -7h54l271 683l2 4q-38 14 -55 55l-532 1310q-27 72 -27 131q0 96 62 161h-812q94 -82 157 -239zM397 2398q94 -82 157 -239l711 -1768l117 -307q6 -16 16.5 -23t35.5 -7h54l271 683l2 4q-38 14 -55 55l-532 1310 q-78 212 -157 273q-22 17 -45 19h-575zM3938 2398q20 -23 33 -52q23 29 49 52h-82zM2710 355l-500 1241l-360 -895l-295 -745h-121q-107 0 -143 93l-117 306l-711 1767q-69 171 -173 233q-72 43 -230 43v98h912q163 0 293 -355l532 -1308l361 894l-159 395q-69 171 -173 233 q-72 43 -230 43v98h1462v-98q-277 -2 -277 -161q0 -42 20 -96l532 -1308l528 1308q33 82 33 103q0 154 -244 154v98h624v-98q-215 -5 -316 -276l-572 -1421l-295 -745h-121q-107 0 -143 93zM3179 711l-201 -508l-86 224l-711 1768q-23 57 -50 105h459q-5 -30 -5 -63 q0 -77 33 -167l533 -1311q11 -26 28 -48zM595 2300h364q57 -47 123 -230l533 -1311q11 -27 28 -48l-201 -508l-86 224l-711 1768q-23 57 -50 105z" />
<glyph unicode="x" horiz-adv-x="2872" d="M1543 399q45 -88 45 -161q0 -83 -52 -140h878q-120 83 -195 232l-894 1767q-70 139 -129 209q-74 86 -126 92h-595q103 -90 175 -232zM598 98q-19 26 -26 58q-31 -33 -61 -58h87zM2178 2398q24 -28 37 -63q38 35 76 63h-113zM2306 374q140 -276 446 -276v-98h-1496v98 q234 9 234 140q0 50 -34 117l-296 585l-429 -585q-68 -92 -68 -151q0 -106 217 -106h16v-98h-776v98q150 0 212 10q117 25 293 266l486 665l-548 1083q-74 145 -182 226q-67 50 -221 50v98h912q166 -8 341 -355l265 -526l375 526q77 108 77 118q0 139 -258 139v98h776v-98 q-153 0 -259 -53q-118 -68 -229 -223l-432 -605zM1631 444l-893 1767q-24 47 -52 89h374q19 -8 62 -58q51 -60 116 -189l893 -1768q24 -47 53 -89h-501q3 21 3 42q0 97 -55 206z" />
<glyph unicode="y" horiz-adv-x="3026" d="M2450 2398q35 -35 49 -82q44 47 93 82h-142zM1992 98q-141 113 -141 336v719q-44 7 -68 48l-513 893q-63 121 -120.5 196t-102.5 99q-16 8 -32 9h-624q119 -82 201 -228l675 -1210q12 -22 12 -48v-478q0 -223 -141 -336h854zM1868 1250l511 891q32 56 32 109 q0 145 -301 148v98h796v-98q-269 0 -427 -276l-530 -927v-761q0 -336 384 -336v-98h-1536v98q384 0 384 336v478l-675 1210q-154 276 -446 276v98h955q157 0 341 -355zM1798 196h-466q45 104 45 238v478q0 51 -25 95l-675 1210q-24 44 -52 83h379q27 -16 68 -70 q52 -68 112 -183l514 -895q22 -38 55 -62v-656q0 -134 45 -238z" />
<glyph unicode="z" d="M2558 2398h-917q15 -15 26.5 -32t17.5 -30.5t10 -29.5t5 -25t2 -21l1 -11q0 -113 -64 -211l-1111 -1718q-99 -144 -189 -222h963q-15 15 -26 32t-17 30.5t-10 29.5t-5 25t-2 21l-1 11q0 120 59 211l1111 1717q118 182 147 223zM2664 308q-90 -134 -230 -210h206z M570 2398h-206l-24 -210q91 134 230 210zM276 2496h2532v-98q-102 0 -162 -46q-8 -6 -153 -230l-1111 -1717q-43 -66 -43 -158q0 -149 328 -149h333q619 0 710 622l98 -10l-80 -710h-2608v98q136 0 326 276l1111 1717q48 74 48 158q0 149 -331 149h-270q-619 0 -710 -622 l-98 10zM1148 196h-589l50 69l1113 1719q79 123 79 265q0 26 -5 51h579l-47 -72l-1110 -1716q-75 -115 -75 -265q0 -26 5 -51z" />
<glyph unicode="{" horiz-adv-x="1378" d="M809 200q0 16 27 269q26 243 26 315q0 22 -55 60q-80 55 -272 92q-70 13 -122 27q6 -27 10 -94q0 -121 -35 -310q-31 -172 -31 -189q0 -123 127 -257q125 -132 241 -132h163q-56 56 -72 142q-4 19 -7 77zM901 2515h-176q-113 0 -239 -140q-129 -144 -129 -263 q0 -23 31 -190q35 -185 35 -296q0 -51 -14 -106q49 13 128 27q188 32 269 88q52 36 56 74q0 56 -26 297q-27 251 -27 267q0 151 92 242zM907 200q0 -115 69.5 -166t164.5 -51h117v-100h-533q-158 0 -312 162.5t-154 324.5q0 26 33 206.5t33 292.5q0 92 -40 144 q-26 34 -79 88q-86 90 -86 147q0 61 86 147q90 90 101 125q18 57 18 106q0 101 -33 277.5t-33 208.5q0 155 154 328q155 173 312 173h533v-98h-117q-94 0 -164 -63q-70 -64 -70 -179q0 -11 26.5 -257t26.5 -307q0 -86 -98.5 -154.5t-308 -104.5t-272.5 -88.5t-63 -113.5 t63 -118.5t272.5 -97.5t308 -106.5t98.5 -141.5q0 -77 -26.5 -325t-26.5 -259zM711 197q4 -68 9 -92l6 -26h-1q-74 0 -170 101q-100 106 -100 190q0 8 30 171q32 174 35 298q171 -33 231 -75q11 -8 12 -9q-4 -79 -24 -275q-28 -258 -28 -283zM732 2417q-21 -67 -21 -144 q0 -22 28 -278q22 -202 25 -269q-5 -5 -14 -11q-62 -43 -229 -72q-2 116 -36 297q-30 159 -30 172q0 81 104 197q1 2 5 5q92 97 154 103h7h7z" />
<glyph unicode="|" horiz-adv-x="1008" d="M120 2613h768v-2730h-768v2730zM218 2515v-2534h572v2534h-572zM316 2417h376v-2338h-376v2338z" />
<glyph unicode="}" horiz-adv-x="1190" d="M516 784q0 -68 25 -318q26 -250 26 -278q0 -128 -79 -206q106 11 226.5 138t120.5 250q0 17 -33 197.5t-33 261t6 115.5q-122 -43 -190.5 -89.5t-68.5 -70.5zM567 2273l-51 -564q0 -30 56 -74q78 -55 207 -98q-10 48 -10 123.5t33 252.5t33 199q0 118 -125.5 258 t-234.5 145q92 -91 92 -242zM418 1709l51 564q0 115 -70 178.5t-164 63.5h-115v98h347q157 0 311.5 -173t154.5 -328q0 -32 -33 -208.5t-33 -249.5t14.5 -122t101.5 -136t87 -146t-69 -131.5t-101.5 -114t-32.5 -144.5t33 -283.5t33 -206.5q0 -162 -154 -324.5t-312 -162.5 h-347v100h115q96 0 165 51t69 166q0 11 -25.5 259t-25.5 324t97.5 142.5t214 106.5t179.5 97.5t63 118.5t-63 113.5t-179.5 88.5t-214 104.5t-97.5 154.5zM665 212l-50 544q16 13 59 37q7 -107 35 -261t28 -162q0 -71 -72 -158zM673 1686l-59 40v1q3 66 26.5 291t24.5 252 q72 -92 72 -158q0 -13 -28.5 -167.5t-35.5 -258.5z" />
<glyph unicode="~" horiz-adv-x="2740" d="M1754 709q222 1 408 170q221 201 256 384l9 50q-111 -104 -284 -104q-177 0 -347 106q-156 97 -272 214q-99 99 -248 183q-138 78 -285 78q-227 0 -418 -169q-214 -190 -251 -385l-8 -43q111 97 278 97q181 0 356 -105q161 -97 277 -214q99 -99 248 -183q140 -79 281 -79 zM1754 611q-168 0 -329 91.5t-269 199.5t-259 199t-305 91q-273 0 -340 -322l-39 -187l-93 5l106 566q42 228 282 440q218 194 483 194q173 0 333.5 -91t268.5 -199t254.5 -199.5t295.5 -91.5t235 96q85 95 110 231l34 187l98 -10l-106 -566q-40 -215 -286 -439 q-214 -194 -474 -195zM1754 807h-1q-115 0 -231 66q-138 79 -227 168q-125 125 -297 228q-198 119 -406 119q-55 0 -105 -9q56 84 151 168q163 145 353 145q121 0 237 -66q137 -78 226 -167q125 -124 290 -227q194 -121 399 -121q55 0 106 9q-57 -82 -153 -169 q-157 -144 -342 -144z" />
<glyph unicode="&#xa1;" horiz-adv-x="1051" d="M813 2157q0 117 -84.5 201.5t-201.5 84.5t-201.5 -84.5t-84.5 -201.5t84.5 -201.5t201.5 -84.5t201.5 84.5t84.5 201.5zM715 2157q0 -77 -55.5 -132.5t-132.5 -55.5t-132.5 55.5t-55.5 132.5t55.5 132.5t132.5 55.5t132.5 -55.5t55.5 -132.5zM819 -201l-212 1496h-193 q-133 -613 -194 -1378q-2 -20 -2 -30q0 -34 7 -53q9 -27 28 -31t66 -4h500zM932 -299h-611q-64 0 -96 8q-105 28 -105 178q0 19 2 39q65 816 213 1467h357zM911 2157q0 -158 -113 -271t-271 -113t-271 113t-113 271t113 271t271 113t271 -113t113 -271zM706 -103h-388h-2 q0 2 1 12q57 710 176 1288h29z" />
<glyph unicode="&#xa2;" horiz-adv-x="2676" d="M2061 2057q-27 -45 -27 -100q0 -79 57 -136t136 -57q78 0 136 60q59 62 59 143q0 210 -306 355l-24 11l9 -15q20 -40 20 -82q0 -51 -60 -179zM870 356q-80 181 -80 932q0 608 76 874q18 62 46.5 115t74.5 101l20 20q-285 -72 -469 -249q-320 -309 -320 -861 q0 -588 316 -890q192 -184 492 -257q-17 15 -33 32q-47 49 -74 91.5t-49 91.5zM1420 2680h98v-136q377 -8 640 -133q362 -172 362 -444q0 -120 -86.5 -210.5t-206.5 -90.5t-205.5 85.5t-85.5 205.5q0 81 39 146q48 100 48 128q0 70 -91 113q-194 92 -414 102v-2351 q337 12 619 169q201 112 350 276l69 -70q-158 -174 -371 -292q-305 -169 -667 -181v-130h-98v129q-619 11 -954 331q-346 331 -346 961q0 593 350 931q331 320 950 326v135zM1420 95v2351q-376 -16 -460 -311q-72 -253 -72 -847q0 -730 72 -892q126 -284 460 -301z M2208 2156q116 -88 116 -189q0 -42 -32 -75q-29 -30 -65 -30q-39 0 -67 28t-28 67q0 19 18 59q49 105 58 140zM776 2204l-5 -15q-79 -279 -79 -901q0 -726 78 -944q-93 53 -169 125q-285 273 -285 819q0 510 290 790q76 73 170 126z" />
<glyph unicode="&#xa4;" horiz-adv-x="1886" d="M390 1998l-270 272l144 130l264 -267q177 137 413 137q235 0 414 -137l282 281l129 -139l-275 -277q137 -179 137 -414t-137 -413l266 -264l-144 -129l-258 257q-180 -137 -414 -137q-235 0 -413 137l-254 -257l-130 144l246 248q-138 179 -138 414t138 414zM446 1584 q0 -205 146 -349.5t350 -144.5t348.5 144.5t144.5 349.5t-144.5 349.5t-348.5 144.5t-350 -144.5t-146 -349.5z" />
<glyph unicode="&#xa5;" horiz-adv-x="2966" d="M1279 434q0 -223 -141 -336h854q-141 112 -141 336v719q-48 7 -70 53l-453 893q-65 146 -124 214.5t-105 81.5q-8 2 -24 3h-617q119 -82 195 -232l615 -1210q11 -21 11 -44v-478zM1868 1250l451 891q32 62 32 109q0 145 -301 148v98h796v-98q-287 0 -427 -276l-470 -927 v-301h613l-24 -140h-589v-142h613l-24 -140h-589v-38q0 -336 384 -336v-98h-1536v98q384 0 384 336v38h-1h-650l24 140h626v142h-650l24 140h627v18l-615 1210q-140 276 -446 276v98h955q183 0 341 -355zM2390 2398q33 -33 47 -77q40 44 86 77h-133zM1377 434v478 q0 47 -21 89l-615 1210q-25 47 -53 89h384h1h1q7 -3 18 -12q16 -14 37 -38q50 -58 110 -193l454 -896q22 -44 60 -71v-656q0 -134 45 -238h-466q45 104 45 238z" />
<glyph unicode="&#xa6;" horiz-adv-x="1008" d="M218 2018h572v1020h-572v-1020zM790 1038h-572v-1081h572v1081zM120 1920v1216h768v-1216h-768zM888 1136v-1277h-768v1277h768zM316 2116v824h376v-824h-376zM692 940v-885h-376v885h376z" />
<glyph unicode="&#xa7;" horiz-adv-x="2076" d="M649 1110q-204 164 -204 486q2 39 3 51q3 23 9 44q-72 -38 -121 -89q-118 -120 -118 -319q0 -228 258 -437l665 -538q254 -238 254 -503q0 -27 -6 -53q196 100 196 356q0 207 -252 444l-57 54zM688 -227q0 4 -0.5 10t-0.5 8q0 88 49 181q26 50 26 86q0 64 -46 120 q-39 48 -97 48q-59 0 -103 -47q-47 -50 -47 -128q0 -131 168 -245q25 -18 51 -33zM1396 2714q0 -1 0.5 -3t0.5 -3v-4v-3q0 -85 -41 -176q-24 -52 -24 -91q0 -65 45 -121q18 -23 39 -35q11 -6 23 -9q6 -2 28 -3q53 0 95 46q45 51 45 129q0 131 -168 245zM800 1885l628 -504 q204 -163 204 -466v-16q-1 -12 -2 -23q0 -9 -2 -23t-5 -30q-3 -11 -7 -23q73 39 124 90q118 120 118 319q0 228 -253 437l-650 537q-274 236 -274 504q0 27 6 53q-196 -100 -196 -356q0 -207 252 -444zM1078 2910q206 0 416.5 -143t210.5 -326q0 -116 -70.5 -194.5 t-167.5 -78.5q-100 0 -166.5 83.5t-66.5 182.5q0 60 32.5 131.5t32.5 135.5q0 141 -220 141q-300 0 -300 -155q0 -223 239 -429l649 -536q289 -239 289 -513q0 -469 -556 -586q283 -266 283 -515q0 -526 -685 -526q-206 0 -416.5 143t-210.5 326q0 116 73 194.5t175 78.5 q104 0 172.5 -83.5t68.5 -182.5q0 -60 -37.5 -131.5t-37.5 -135.5q0 -141 217 -141q295 0 295 155q0 223 -220 429l-663 536q-294 238 -294 513q0 469 556 586q-283 266 -283 515q0 526 685 526zM1337 682q197 33 197 233q0 256 -167 390l-628 504q-196 -33 -196 -213 q0 -276 167 -410zM1468 -20q-60 212 -262 402l-669 540q-221 180 -221 361q0 106 40 182q37 -276 231 -432l624 -501l55 -52q221 -209 221 -372q0 -74 -19 -128zM618 -52q-51 53 -51 103q0 39 21 61q14 16 31 16q12 0 21 -12q24 -32 24 -58q0 -12 -15 -40q-18 -35 -31 -70z M1462 2365q-32 22 -32 67q0 19 15 52q13 28 21 52q43 -49 43 -95q0 -44 -20 -64q-13 -13 -27 -12zM865 1959l-54 52q-222 209 -222 373q0 74 19 129q64 -215 284 -405l650 -537q218 -180 218 -362q0 -103 -38 -178q-35 269 -232 427z" />
<glyph unicode="&#xa8;" horiz-adv-x="2880" d="M1827 2899q0 -77 56.5 -133.5t133.5 -56.5t133.5 56.5t56.5 133.5t-56.5 133.5t-133.5 56.5t-133.5 -56.5t-56.5 -133.5zM594 2899q0 -77 56.5 -133.5t133.5 -56.5t133.5 56.5t56.5 133.5t-56.5 133.5t-133.5 56.5t-133.5 -56.5t-56.5 -133.5zM1925 2899q0 37 27.5 64.5 t64.5 27.5t64.5 -27.5t27.5 -64.5t-27.5 -64.5t-64.5 -27.5t-64.5 27.5t-27.5 64.5zM1814 3102q85 85 203 85t203 -85t85 -203t-85 -203t-203 -85t-203 85t-85 203t85 203zM692 2899q0 37 27.5 64.5t64.5 27.5t64.5 -27.5t27.5 -64.5t-27.5 -64.5t-64.5 -27.5t-64.5 27.5 t-27.5 64.5zM581 3102q85 85 203 85t203 -85t85 -203t-85 -203t-203 -85t-203 85t-85 203t85 203z" />
<glyph unicode="&#xa9;" horiz-adv-x="3746" d="M1468 154q-46 55 -78 126q-67 152 -67 733q0 467 63 680q25 83 72 146q-180 -59 -304 -178q-250 -237 -250 -663t247 -662q127 -123 317 -182zM2421 1789q2 -10 3.5 -26t2.5 -19q-1 -13 -3 -25v-1q-3 -14 -5 -17q-2 -6 -5 -18q-7 -19 -38 -86q-19 -32 -19 -71 q0 -55 40 -94q40 -40 95 -40q54 0 94 42q42 44 42 100q0 148 -207 255zM2726 1534q0 -96 -69 -168t-165 -72t-164.5 68t-68.5 164q0 65 31 117q38 80 39 103q0 56 -73 90q-174 82 -375 82q-326 0 -401 -253q-59 -200 -59 -652q0 -561 59 -693q107 -242 401.5 -242t538.5 136 q162 90 280 221l55 -56q-126 -138 -297 -233q-262 -146 -577 -146q-522 0 -798 265q-277 265 -277 733t280 734q278 265 795 265q330 0 556 -107q289 -138 289 -356zM1873.5 -517q456.5 0 838 206t599 554t217.5 757t-217.5 756.5t-599 554t-838 206.5t-838 -206.5 t-599.5 -554t-218 -756.5t218 -757t599.5 -554t838 -206zM988.5 -397q-404.5 218 -636.5 589t-232 808t232 807.5t636.5 589t885 218.5t885 -218.5t636 -589t231.5 -807.5t-231.5 -808t-636 -589t-885 -218t-885 218zM1270 1632q-45 -224 -45 -619q0 -442 39 -646 q-23 19 -45 40q-217 207 -217 591t219 592q23 22 49 42zM2493 1618q37 -41 37 -84q0 -17 -15 -32q-11 -12 -23 -12q-15 0 -26 11t-11 25q0 12 6 21q3 4 5 9z" />
<glyph unicode="&#xaa;" horiz-adv-x="2636" d="M2197 1270q-21 25 -36 55t-22.5 50t-12.5 54t-5.5 42.5t-1.5 38.5v651q0 126 -18 233t-58 203t-102.5 171.5t-154 134.5t-209.5 94q139 -163 139 -462v-125v-632q0 -202 7 -404q1 -32 40 -83q10 -13 18 -21h416zM757 2357q-170 -46 -295 -137q-244 -175 -244 -390 q0 -217 247 -401q118 -88 274 -137q-118 144 -118 538q0 305 72 436q20 37 45 69q9 11 19 22zM1618 2330q-212 97 -450 97q-273 0 -389 -209q-60 -108 -60 -388q0 -361 97 -477q116 -139 352 -139q266 0 457 157q-7 203 -7 407v552zM513 2988q300 165 618 165 q1086 0 1086 -992v-651q0 -262 299 -262v-76h-749q-37 0 -82 60t-53 60q-236 -154 -464 -155q-476 0 -762 213.5t-286 479.5t284.5 470t763.5 204q232 0 450 -94v125q0 541 -487 541q-301 0 -579 -151zM1829 1368q-7 10 -9 15l-4 131q-2 138 -2 264v757q0 135 -26 247 q44 -36 77 -76q52 -64 87 -147q36 -85 52 -181q17 -99 17 -217v-653q2 -41 2 -42q1 -13 6 -51q4 -26 9 -47h-209zM553 2164q-30 -133 -30 -334q0 -202 30 -343l-30 21q-207 154 -207 322q0 166 203 311q16 12 34 23z" />
<glyph unicode="&#xab;" horiz-adv-x="1944" d="M1008 2186v-357l-403 -312q-163 -126 -163 -269t163 -269l403 -312v-357l-888 896v84zM1824 2186v-357l-403 -312q-163 -126 -163 -269t163 -269l403 -312v-357l-888 896v84zM391 1071q-47 85 -47 177t47 176l-173 -174v-4zM608 852l302 -304v71zM608 1644l302 233v71z M1207 1071q-47 85 -47 177t47 176l-173 -174v-4zM1424 852l302 -304v71zM1424 1644l302 233v71z" />
<glyph unicode="&#xad;" horiz-adv-x="1960" d="M1816 1152h-1696l24 192h1696z" />
<glyph unicode="&#xae;" horiz-adv-x="3746" d="M2189 363q86 -154 209 -230.5t289 -76.5q67 0 144 12l-10 7q-3 2 -8 8l-14 14l-15 17l-350 503q-1 1 -2 1q-4 2 -6 4q-41 21 -130 26q-36 2 -61 24t-31 58t10.5 65t50.5 42q509 201 509 527q0 175 -282 374q-117 82 -281 125q41 -45 69 -103q34 -66 54.5 -163.5 t20.5 -216.5q0 -121 -19.5 -221t-52 -169t-78.5 -122t-94.5 -83.5t-106.5 -50.5l-19 -6zM1468 1910h-487q21 -27 36 -60q12 -26 18.5 -53t8.5 -43t6 -57v-1319q0 -122 -44 -205q-12 -23 -28 -44h562q-16 20 -28 44q-18 34 -27.5 71t-12 62.5t-4.5 71.5v1532zM1873.5 -517 q456.5 0 838 206t599 554t217.5 757t-217.5 756.5t-599 554t-838 206.5t-838 -206.5t-599.5 -554t-218 -756.5t218 -757t599.5 -554t838 -206zM988.5 -397q-404.5 218 -636.5 589t-232 808t232 807.5t636.5 589t885 218.5t885 -218.5t636 -589t231.5 -807.5t-231.5 -808 t-636 -589t-885 -218t-885 218zM2104 315l-228 407h-310v-344q0 -268 247 -268v-79h-1109v79q248 0 248 268v1317q-11 234 -248 235v78h1092q482 0 752 -190q324 -228 324 -454q0 -392 -571 -618q146 -7 206 -62l357 -514q42 -60 238 -60v-78q-235 -74 -415 -74 q-383 0 -583 357zM1566 1930v-1130h230q461 0 461 580q0 550 -461 550h-230zM2275 411l-106 189l1 -1q12 -7 29 -18t21.5 -13.5t14.5 -6.5t24 -7q15 -3 32 -4q51 -2 78 -10l266 -384q-105 9 -185 59q-101 64 -175 196zM2418 1669l17 -11l51 -38q25 -18 62 -51.5t63 -64 t45.5 -69t19.5 -71.5q0 -204 -280 -358q21 59 36 134q21 110 21 240t-23 237q-5 27 -12 52zM2378 536q1 0 2 -1h1l-1 -4q-2 -2 -2 0v5zM1388 227h-257q17 69 17 151v1324l-7 64q-3 19 -9 46h238v-1436q2 -52 5 -79q3 -30 13 -70z" />
<glyph unicode="&#xaf;" horiz-adv-x="2376" d="M2143 2354l5 44h-1915l-5 -44h1915zM2232 2256h-2112l24 240h2112z" />
<glyph unicode="&#xb0;" horiz-adv-x="1200" d="M600 3088q-240 0 -240 -432t240 -432t240 432t-240 432zM600 3136q178 0 329 -146.5t151 -333.5t-151 -333.5t-329 -146.5t-329 149t-151 331q0 187 151 333.5t329 146.5zM938 2656q-1 -45 -2 -71.5t-7 -79.5l-4 -35q57 87 57 186q0 100 -57 187q13 -83 13 -187z M275 2842q-57 -87 -57 -186q0 -96 57 -183q-13 82 -13 183q1 45 2 71.5t7 79.5z" />
<glyph unicode="&#xb1;" horiz-adv-x="2376" d="M2143 626l5 44h-1915l-5 -44h1915zM1282 2256h960l-10 -192h-950v-946l-192 10v936h-970l10 192h960v984l192 -10v-974zM2232 528h-2112l24 240h2112z" />
<glyph unicode="&#xb2;" horiz-adv-x="2045" d="M1827 1278q-35 -45 -78 -79h78v79zM1036 1199q-35 32 -35 110q0 46 26 98q8 16 40 65l443 605q195 266 195 465q0 87 -20 158t-63.5 131.5t-117 105.5t-175.5 71q34 -53 44 -120l3 -50q0 -241 -313 -672l-576 -793q-85 -117 -141 -174h690zM965 3146q838 0 838 -604 q0 -231 -214 -523l-443 -605q-47 -64 -47 -105q0 -120 269 -120h38q423 0 460 517h59v-605h-1805v88q51 0 110 38q54 34 178 204l576 793q294 405 294 614q0 220 -313 220q-398 0 -534 -253q-61 -114 -61 -259h-58v360q309 240 653 240zM904 1297h-351l13 19l577 793 q330 455 331 731q42 -30 68 -66q34 -46 49 -101q16 -58 16 -131q0 -166 -176 -407l-444 -607q-37 -57 -48 -78l-17 -42q-5 -10 -10.5 -31t-7.5 -44q-1 -12 -1 -24z" />
<glyph unicode="&#xb3;" horiz-adv-x="1939" d="M1077 3023q111 -122 111 -338q0 -192 -84 -315q90 22 158.5 51t111.5 60.5t69.5 68.5t37 72.5t10.5 75.5q0 124 -98 207t-316 118zM1200 2112q103 -157 103 -426q0 -333 -178 -493q159 24 275 69.5t185.5 110t102.5 142t33 171.5q0 308 -521 426zM710 1067 q-310 0 -590 216v399h58q20 -527 532 -527q495 0 495 531q0 533 -431 533q-62 0 -60 53q194 14 291 130q85 101 85 283q0 373 -373 373q-205 0 -317.5 -102.5t-121.5 -371.5h-59v363q272 199 498 199q872 0 872 -448q0 -354 -600 -450q830 -109 830 -562q0 -619 -1109 -619z M1265 2870q39 -18 64 -40q64 -53 64 -132q0 -26 -6 -48q-6 -19 -23 -43q-18 -24 -48 -46q-18 -14 -43 -27q13 71 13 151q0 101 -21 185zM1370 1959q253 -99 253 -273q0 -75 -25 -133.5t-80.5 -109t-114.5 -73.5l-59 -24q57 146 57 340q0 151 -31 273z" />
<glyph unicode="&#xb4;" horiz-adv-x="2208" d="M753 2679q89 326 174 438q29 38 53 38h624v-48q-201 -5 -343 -139l-306 -289h-202zM884 2777h32l278 262l19 18h-209q-55 -73 -120 -280z" />
<glyph unicode="&#xb5;" horiz-adv-x="3504" d="M774 -375q-47 -15 -87.5 14t-40.5 79v540q0 64 58.5 89.5t105.5 -17.5q218 -200 615 -255q-251 229 -251 887v1150q0 163 -35 239q-8 17 -15 27t-16.5 14t-13 4.5t-14.5 1.5h-619q141 -113 141 -336v-2564q4 -87 20 -155.5t34.5 -108.5t45 -70t45 -42t41.5 -22 q57 -24 110 -23q57 0 102 14.5t76 41t51 56t36 67.5q24 58 24 110q0 100 -44 162t-131 99q-54 22 -114 22q-49 0 -124 -24zM2189 2398q141 -113 141 -336v-1628q0 -92 7 -174q2 -24 -7 -45q19 -17 70 -80q21 -26 35 -37h608q-141 113 -141 336v1628q0 223 141 336h-854z M744 -282q90 29 154 29q80 0 152 -30q235 -98 235 -351q0 -72 -32 -148q-100 -238 -355 -239q-75 0 -148 31q-226 93 -246 486v2566q0 336 -384 336v98h960q192 0 192 -384v-1150q0 -908 480 -908q220 0 487 198q-7 86 -7 182v1628q0 336 -384 336v98h1536v-98 q-384 0 -384 -336v-1628q0 -336 384 -336v-98h-960q-43 0 -101.5 74.5t-68.5 74.5q-322 -193 -502 -193q-679 0 -1008 302v-540zM898 -449q41 0 77 -15q114 -48 114 -152q0 -50 -17 -90q-49 -119 -174 -119h-1q-180 0 -197 326v25q22 -5 42 -5zM1054 2300q22 -59 22 -188 v-1150q0 -469 126 -738q-198 62 -325 178q-58 53 -130 53q-24 0 -47 -6v1613q0 134 -45 238h399zM2383 2300h466q-45 -104 -45 -238v-1628q0 -134 45 -238h-373l-41 50v5q0 8 -1 17q-6 78 -6 166v1628q0 134 -45 238z" />
<glyph unicode="&#xb6;" horiz-adv-x="3197" d="M2101 2646q114 -112 114 -336v-2329h521q-141 113 -141 336v1993q0 223 141 336h-635zM922 -19h521v2329q0 224 114 336h-494v-2329q0 -223 -141 -336zM2117 -117v2427q0 336 -288 336t-288 -336v-2427h-960v98q384 0 384 336v931h-96q-293 0 -521 223t-228 524 q0 307 225.5 528t523.5 221h2208v-98q-384 0 -384 -336v-1993q0 -336 384 -336v-98h-960zM869 2646q-278 0 -464.5 -184t-186.5 -467t188.5 -466t462.5 -183h96v1300h-96zM2276 2548h266q-45 -104 -45 -238v-1993q0 -134 45 -238h-229v2231q0 135 -37 238zM1116 79 q45 104 45 238v2231h222q-38 -104 -38 -238v-2231h-229z" />
<glyph unicode="&#xb7;" horiz-adv-x="1008" d="M218 1248q0 -117 84.5 -201.5t201.5 -84.5t201.5 84.5t84.5 201.5t-84.5 201.5t-201.5 84.5t-201.5 -84.5t-84.5 -201.5zM316 1248q0 77 55.5 132.5t132.5 55.5t132.5 -55.5t55.5 -132.5t-55.5 -132.5t-132.5 -55.5t-132.5 55.5t-55.5 132.5zM233 1519q113 113 271 113 t271 -113t113 -271t-113 -271t-271 -113t-271 113t-113 271t113 271z" />
<glyph unicode="&#xb8;" horiz-adv-x="1295" d="M466 34l-43 -187q66 33 166 33q289 0 463 -169q123 -120 123 -332q0 -190 -181 -314q-127 -87 -394 -87q-275 0 -480 228l27 103q212 -232 435 -232q298 0 298 369q0 349 -289 349q-185 0 -284 -80l72 323zM892 -879q26 11 47 25q138 95 138 233q0 171 -93 262 q-22 22 -47 40q41 -97 41 -235q0 -207 -86 -325z" />
<glyph unicode="&#xb9;" horiz-adv-x="1469" d="M399 2687q115 -67 126 -244v-957q0 -163 -92 -258h595q-84 99 -84 258v1552h-217q-95 -233 -328 -351zM427 2443q0 192 -230 192v79q365 101 461 422h384v-1650q0 -268 307 -268v-88h-1229v88q307 0 307 268v957zM558 2669q149 108 232 271h56v-1454q0 -86 21 -160h-266 q22 73 22 160v960q-4 139 -65 223z" />
<glyph unicode="&#xba;" horiz-adv-x="2336" d="M681 1434q-60 211 -60 711t60 711q15 53 39 98q11 20 25 39q-168 -58 -284 -169q-243 -231 -243 -679q0 -450 240 -679q117 -112 288 -170q-14 20 -26 40q-24 45 -39 98zM1581 2996q26 -37 45 -81q89 -217 89 -770t-89 -770q-18 -44 -46 -82q177 58 298 173 q240 229 240 679q0 448 -243 679q-120 114 -294 172zM1168 1137q-509 0 -778 258q-270 258 -270 750q0 489 273 750q271 258 775 258t775 -258q273 -260 273 -750q0 -491 -270 -750q-271 -258 -778 -258zM1168 1214q285 0 367 198q82 200 82 733t-82 733q-82 198 -367 198 q-323 0 -393 -247q-56 -198 -56 -684t56 -684q70 -247 393 -247zM564 2785q-41 -224 -41 -640q0 -419 42 -643q-20 17 -39 35q-210 200 -210 608q0 405 212 608q17 17 36 32zM1763 1496q50 235 50 649q0 412 -49 646q23 -18 44 -38q212 -202 212 -608q0 -408 -209 -608 q-23 -22 -48 -41z" />
<glyph unicode="&#xbb;" horiz-adv-x="1944" d="M1824 1290v-84l-888 -896v357l403 312q163 126 163 269t-163 269l-403 312v357zM1008 1290v-84l-888 -896v357l403 312q163 126 163 269t-163 269l-403 312v357zM1336 852l-302 -233v-71zM1553 1072l173 174v4l-173 175q47 -85 47 -177t-47 -176zM1336 1644l-302 304v-71 zM520 852l-302 -233v-71zM737 1072l173 174v4l-173 175q47 -85 47 -177t-47 -176zM520 1644l-302 304v-71z" />
<glyph unicode="&#xbf;" horiz-adv-x="1959" d="M1285 784l-36 446h-205l-5 -65q-5 -50 -34 -100q-70 -123 -307 -277q-281 -183 -335 -230q-145 -127 -145 -280q0 -237 205 -374q86 -58 200 -93q-68 84 -68 208q0 27 5 55t19 68t47 82t82 76l449 284q65 44 96.5 92.5t31.5 107.5zM1725 -21q-11 -14 -24 -29 q11 -6 22 -15zM1433 2156q0 118 -84 202t-201.5 84t-202 -84.5t-84.5 -201.5t84.5 -201.5t202 -84.5t201.5 84t84 202zM1383 784q0 -166 -173 -282l-447 -283q-110 -78 -110 -200q0 -259 403 -259q294 0 471 156q209 180 209 336l103 2l-30 -528l-102 3q0 48 -21.5 94.5 t-50.5 46.5q-16 0 -64 -34l-106 -74q-58 -41 -168.5 -73.5t-240.5 -32.5q-439 0 -688 167q-248 166 -248 455q0 198 179 354q61 53 346 238t296 304l14 154h384q44 -538 44 -544zM1187 780q0 -26 -16 -50q-21 -32 -68 -64l-449 -284q-63 -44 -104 -97q-44 -55 -64 -111 q-17 -48 -23 -83q-6 -36 -6 -72v-19q-141 105 -141 278q0 109 112 206q49 43 324 222q257 167 338 310q33 57 43 116h25zM1335 2156q0 -77 -55 -132.5t-132.5 -55.5t-133 55.5t-55.5 132.5t55.5 132.5t133 55.5t132.5 -55.5t55 -132.5zM1418.5 1885q-112.5 -113 -271 -113 t-271.5 113t-113 271t113 271t271.5 113t271 -113t112.5 -271t-112.5 -271z" />
<glyph unicode="&#xc0;" horiz-adv-x="3252" d="M1980 1430h-296q-796 0 -796 -746q0 -630 516 -630q341 0 586 202q-10 298 -10 625v549zM445 2023q0 103 62 191q134 187 413 266q213 60 426 60q1402 0 1402 -1272v-834q0 -336 384 -336v-98h-960q-48 0 -101 80t-72 68q-242 -192 -595 -192q-1284 0 -1284 728 q0 844 1644 844h216v220q0 694 -634 694q-170 0 -340 -38q-109 -24 -109 -81q0 -39 51 -93q86 -84 86 -208q0 -122 -86 -208t-208 -86t-208 86t-87 209zM543 2023q0 -82 58 -140q57 -57 138.5 -57t139 57.5t57.5 138.5q0 83 -58 139q-53 56 -70 107q-1 4 -2.5 12t-3 21 t-3.5 22v8q-136 -66 -212 -174q-44 -62 -44 -134zM1017 74q-29 24 -57 54q-52 56 -88.5 130t-59 183.5t-22.5 242.5q0 408 224 626q76 73 98 77q-228 -35 -386 -91q-178 -64 -292 -157t-165 -205t-51 -250q0 -116 39 -211t127 -174t224 -133q136 -52 337 -82zM2110 192 q16 -18 43 -58q18 -27 29 -36h609q-141 113 -141 336v834q0 175 -27 323t-88 279.5t-155 232t-232 175t-316 115.5q246 -199 246 -645v-867q0 -324 10 -622l2 -48zM641 2024q0 41 26 76q31 44 75 80q26 -44 66 -87q30 -29 30 -71q0 -41 -28.5 -69.5t-69.5 -28.5t-69 29 q-30 29 -30 71zM823 1225q-131 -218 -131 -541q0 -143 25 -262q25 -122 67 -207v-1q-78 19 -140 44q-120 47 -195 114q-71 64 -101 138q-32 77 -32 174q0 117 42 209q42 91 138 171q101 83 264 140q30 11 63 21zM2229 196q-26 37 -43 57v10q-10 296 -10 618v867 q0 259 -78 445l3 -2q124 -67 207.5 -156t137.5 -206q56 -120 80 -255q26 -139 26 -306v-834q0 -134 45 -238h-368zM1702 2679h-202l-306 289q-142 134 -343 139v48h624q24 0 53 -38q26 -54 174 -438zM1242 3057l19 -18l278 -262h20q-87 225 -111 280h-206z" />
<glyph unicode="&#xc1;" horiz-adv-x="3252" d="M1246 2679q89 326 174 438q29 38 53 38h624v-48q-201 -5 -343 -139l-306 -289h-202zM1377 2777h32l278 262l19 18h-209q-55 -73 -120 -280zM1980 1430h-296q-796 0 -796 -746q0 -630 516 -630q341 0 586 202q-10 298 -10 625v549zM445 2023q0 103 62 191q134 187 413 266 q213 60 426 60q1402 0 1402 -1272v-834q0 -336 384 -336v-98h-960q-48 0 -101 80t-72 68q-242 -192 -595 -192q-1284 0 -1284 728q0 844 1644 844h216v220q0 694 -634 694q-170 0 -340 -38q-109 -24 -109 -81q0 -39 51 -93q86 -84 86 -208q0 -122 -86 -208t-208 -86t-208 86 t-87 209zM543 2023q0 -82 58 -140q57 -57 138.5 -57t139 57.5t57.5 138.5q0 83 -58 139q-53 56 -70 107q-1 4 -2.5 12t-3 21t-3.5 22v8q-136 -66 -212 -174q-44 -62 -44 -134zM1017 74q-29 24 -57 54q-52 56 -88.5 130t-59 183.5t-22.5 242.5q0 408 224 626q76 73 98 77 q-228 -35 -386 -91q-178 -64 -292 -157t-165 -205t-51 -250q0 -116 39 -211t127 -174t224 -133q136 -52 337 -82zM2110 192q16 -18 43 -58q18 -27 29 -36h609q-141 113 -141 336v834q0 175 -27 323t-88 279.5t-155 232t-232 175t-316 115.5q246 -199 246 -645v-867 q0 -324 10 -622l2 -48zM641 2024q0 41 26 76q31 44 75 80q26 -44 66 -87q30 -29 30 -71q0 -41 -28.5 -69.5t-69.5 -28.5t-69 29q-30 29 -30 71zM823 1225q-131 -218 -131 -541q0 -143 25 -262q25 -122 67 -207v-1q-78 19 -140 44q-120 47 -195 114q-71 64 -101 138 q-32 77 -32 174q0 117 42 209q42 91 138 171q101 83 264 140q30 11 63 21zM2229 196q-26 37 -43 57v10q-10 296 -10 618v867q0 259 -78 445l3 -2q124 -67 207.5 -156t137.5 -206q56 -120 80 -255q26 -139 26 -306v-834q0 -134 45 -238h-368z" />
<glyph unicode="&#xc2;" horiz-adv-x="3252" d="M1162 3149h767l278 -470h-184l-228 207q-138 125 -249 125q-112 0 -250 -125l-228 -207h-184zM2005 2827l-132 224h-135q60 -35 123 -92zM1354 3051h-136l-132 -224l144 132q63 57 124 92zM1980 1430h-296q-796 0 -796 -746q0 -630 516 -630q341 0 586 202 q-10 298 -10 625v549zM445 2023q0 103 62 191q134 187 413 266q213 60 426 60q1402 0 1402 -1272v-834q0 -336 384 -336v-98h-960q-48 0 -101 80t-72 68q-242 -192 -595 -192q-1284 0 -1284 728q0 844 1644 844h216v220q0 694 -634 694q-170 0 -340 -38q-109 -24 -109 -81 q0 -39 51 -93q86 -84 86 -208q0 -122 -86 -208t-208 -86t-208 86t-87 209zM543 2023q0 -82 58 -140q57 -57 138.5 -57t139 57.5t57.5 138.5q0 83 -58 139q-53 56 -70 107q-1 4 -2.5 12t-3 21t-3.5 22v8q-136 -66 -212 -174q-44 -62 -44 -134zM1017 74q-29 24 -57 54 q-52 56 -88.5 130t-59 183.5t-22.5 242.5q0 408 224 626q76 73 98 77q-228 -35 -386 -91q-178 -64 -292 -157t-165 -205t-51 -250q0 -116 39 -211t127 -174t224 -133q136 -52 337 -82zM2110 192q16 -18 43 -58q18 -27 29 -36h609q-141 113 -141 336v834q0 175 -27 323 t-88 279.5t-155 232t-232 175t-316 115.5q246 -199 246 -645v-867q0 -324 10 -622l2 -48zM641 2024q0 41 26 76q31 44 75 80q26 -44 66 -87q30 -29 30 -71q0 -41 -28.5 -69.5t-69.5 -28.5t-69 29q-30 29 -30 71zM823 1225q-131 -218 -131 -541q0 -143 25 -262 q25 -122 67 -207v-1q-78 19 -140 44q-120 47 -195 114q-71 64 -101 138q-32 77 -32 174q0 117 42 209q42 91 138 171q101 83 264 140q30 11 63 21zM2229 196q-26 37 -43 57v10q-10 296 -10 618v867q0 259 -78 445l3 -2q124 -67 207.5 -156t137.5 -206q56 -120 80 -255 q26 -139 26 -306v-834q0 -134 45 -238h-368z" />
<glyph unicode="&#xc3;" horiz-adv-x="3252" d="M2420 3108q1 -13 1 -26q0 -429 -449 -429q-99 0 -246 53l-371 134q-141 51 -216 51q-155 0 -188 -172h-98q-4 33 -4 63q0 416 436 416q111 0 262 -55l370 -135q121 -44 200 -44q145 0 205 144h98zM2298 2921q-66 -51 -172 -51q-117 0 -243 46l-370 135q-135 49 -247 49 q-233 0 -295 -161q58 46 159 46q111 0 258 -53l371 -134q131 -47 241 -47q234 0 298 170zM1980 1430h-296q-796 0 -796 -746q0 -630 516 -630q341 0 586 202q-10 298 -10 625v549zM445 2023q0 103 62 191q134 187 413 266q213 60 426 60q1402 0 1402 -1272v-834 q0 -336 384 -336v-98h-960q-48 0 -101 80t-72 68q-242 -192 -595 -192q-1284 0 -1284 728q0 844 1644 844h216v220q0 694 -634 694q-170 0 -340 -38q-109 -24 -109 -81q0 -39 51 -93q86 -84 86 -208q0 -122 -86 -208t-208 -86t-208 86t-87 209zM543 2023q0 -82 58 -140 q57 -57 138.5 -57t139 57.5t57.5 138.5q0 83 -58 139q-53 56 -70 107q-1 4 -2.5 12t-3 21t-3.5 22v8q-136 -66 -212 -174q-44 -62 -44 -134zM1017 74q-29 24 -57 54q-52 56 -88.5 130t-59 183.5t-22.5 242.5q0 408 224 626q76 73 98 77q-228 -35 -386 -91 q-178 -64 -292 -157t-165 -205t-51 -250q0 -116 39 -211t127 -174t224 -133q136 -52 337 -82zM2110 192q16 -18 43 -58q18 -27 29 -36h609q-141 113 -141 336v834q0 175 -27 323t-88 279.5t-155 232t-232 175t-316 115.5q246 -199 246 -645v-867q0 -324 10 -622l2 -48z M641 2024q0 41 26 76q31 44 75 80q26 -44 66 -87q30 -29 30 -71q0 -41 -28.5 -69.5t-69.5 -28.5t-69 29q-30 29 -30 71zM823 1225q-131 -218 -131 -541q0 -143 25 -262q25 -122 67 -207v-1q-78 19 -140 44q-120 47 -195 114q-71 64 -101 138q-32 77 -32 174q0 117 42 209 q42 91 138 171q101 83 264 140q30 11 63 21zM2229 196q-26 37 -43 57v10q-10 296 -10 618v867q0 259 -78 445l3 -2q124 -67 207.5 -156t137.5 -206q56 -120 80 -255q26 -139 26 -306v-834q0 -134 45 -238h-368z" />
<glyph unicode="&#xc4;" horiz-adv-x="3252" d="M1924 2995q0 -77 56.5 -133.5t133.5 -56.5t133.5 56.5t56.5 133.5t-56.5 133.5t-133.5 56.5t-133.5 -56.5t-56.5 -133.5zM691 2995q0 -77 56.5 -133.5t133.5 -56.5t133.5 56.5t56.5 133.5t-56.5 133.5t-133.5 56.5t-133.5 -56.5t-56.5 -133.5zM2022 2995q0 37 27.5 64.5 t64.5 27.5t64.5 -27.5t27.5 -64.5t-27.5 -64.5t-64.5 -27.5t-64.5 27.5t-27.5 64.5zM1911 3198q85 85 203 85t203 -85t85 -203t-85 -203t-203 -85t-203 85t-85 203t85 203zM789 2995q0 37 27.5 64.5t64.5 27.5t64.5 -27.5t27.5 -64.5t-27.5 -64.5t-64.5 -27.5t-64.5 27.5 t-27.5 64.5zM678 3198q85 85 203 85t203 -85t85 -203t-85 -203t-203 -85t-203 85t-85 203t85 203zM1980 1430h-296q-796 0 -796 -746q0 -630 516 -630q341 0 586 202q-10 298 -10 625v549zM445 2023q0 103 62 191q134 187 413 266q213 60 426 60q1402 0 1402 -1272v-834 q0 -336 384 -336v-98h-960q-48 0 -101 80t-72 68q-242 -192 -595 -192q-1284 0 -1284 728q0 844 1644 844h216v220q0 694 -634 694q-170 0 -340 -38q-109 -24 -109 -81q0 -39 51 -93q86 -84 86 -208q0 -122 -86 -208t-208 -86t-208 86t-87 209zM543 2023q0 -82 58 -140 q57 -57 138.5 -57t139 57.5t57.5 138.5q0 83 -58 139q-53 56 -70 107q-1 4 -2.5 12t-3 21t-3.5 22v8q-136 -66 -212 -174q-44 -62 -44 -134zM1017 74q-29 24 -57 54q-52 56 -88.5 130t-59 183.5t-22.5 242.5q0 408 224 626q76 73 98 77q-228 -35 -386 -91 q-178 -64 -292 -157t-165 -205t-51 -250q0 -116 39 -211t127 -174t224 -133q136 -52 337 -82zM2110 192q16 -18 43 -58q18 -27 29 -36h609q-141 113 -141 336v834q0 175 -27 323t-88 279.5t-155 232t-232 175t-316 115.5q246 -199 246 -645v-867q0 -324 10 -622l2 -48z M641 2024q0 41 26 76q31 44 75 80q26 -44 66 -87q30 -29 30 -71q0 -41 -28.5 -69.5t-69.5 -28.5t-69 29q-30 29 -30 71zM823 1225q-131 -218 -131 -541q0 -143 25 -262q25 -122 67 -207v-1q-78 19 -140 44q-120 47 -195 114q-71 64 -101 138q-32 77 -32 174q0 117 42 209 q42 91 138 171q101 83 264 140q30 11 63 21zM2229 196q-26 37 -43 57v10q-10 296 -10 618v867q0 259 -78 445l3 -2q124 -67 207.5 -156t137.5 -206q56 -120 80 -255q26 -139 26 -306v-834q0 -134 45 -238h-368z" />
<glyph unicode="&#xc5;" horiz-adv-x="3252" d="M1469 3269q116 0 214 -95t98 -217t-98 -217t-214 -95t-214 97t-98 215q0 122 98 217t214 95zM1469 3238q-156 0 -156 -281t156 -281t156 281t-156 281zM1980 1430h-296q-796 0 -796 -746q0 -630 516 -630q341 0 586 202q-10 298 -10 625v549zM445 2023q0 103 62 191 q134 187 413 266q213 60 426 60q1402 0 1402 -1272v-834q0 -336 384 -336v-98h-960q-48 0 -101 80t-72 68q-242 -192 -595 -192q-1284 0 -1284 728q0 844 1644 844h216v220q0 694 -634 694q-170 0 -340 -38q-109 -24 -109 -81q0 -39 51 -93q86 -84 86 -208q0 -122 -86 -208 t-208 -86t-208 86t-87 209zM543 2023q0 -82 58 -140q57 -57 138.5 -57t139 57.5t57.5 138.5q0 83 -58 139q-53 56 -70 107q-1 4 -2.5 12t-3 21t-3.5 22v8q-136 -66 -212 -174q-44 -62 -44 -134zM1017 74q-29 24 -57 54q-52 56 -88.5 130t-59 183.5t-22.5 242.5 q0 408 224 626q76 73 98 77q-228 -35 -386 -91q-178 -64 -292 -157t-165 -205t-51 -250q0 -116 39 -211t127 -174t224 -133q136 -52 337 -82zM2110 192q16 -18 43 -58q18 -27 29 -36h609q-141 113 -141 336v834q0 175 -27 323t-88 279.5t-155 232t-232 175t-316 115.5 q246 -199 246 -645v-867q0 -324 10 -622l2 -48zM641 2024q0 41 26 76q31 44 75 80q26 -44 66 -87q30 -29 30 -71q0 -41 -28.5 -69.5t-69.5 -28.5t-69 29q-30 29 -30 71zM823 1225q-131 -218 -131 -541q0 -143 25 -262q25 -122 67 -207v-1q-78 19 -140 44q-120 47 -195 114 q-71 64 -101 138q-32 77 -32 174q0 117 42 209q42 91 138 171q101 83 264 140q30 11 63 21zM2229 196q-26 37 -43 57v10q-10 296 -10 618v867q0 259 -78 445l3 -2q124 -67 207.5 -156t137.5 -206q56 -120 80 -255q26 -139 26 -306v-834q0 -134 45 -238h-368z" />
<glyph unicode="&#xc6;" horiz-adv-x="4788" d="M2822 154q-142 192 -145 713.5t-3 652.5q12 645 199 855q-236 -74 -416 -231q-64 -55 -127 -1q-191 162 -458 237q230 -210 230 -632v-1467q104 73 229 174q33 26 71.5 22.5t65.5 -35.5q161 -191 354 -288zM1041 74q-227 185 -227 602q0 502 321 711q-893 -134 -893 -703 q0 -518 799 -610zM823 2331q-136 -66 -196 -151q-63 -88 -63 -162t61 -135q57 -57 138.5 -57t139 57.5t57.5 139.5t-55 138t-64.5 83.5t-11 35.5t-3 21t-2.5 18t-1 8v4zM3810 2385q212 -231 212 -1039h569q-26 494 -318 781q-185 181 -463 258zM1370 2540q644 0 1023 -322 q369 322 983.5 322t965 -343.5t350.5 -948.5h-1459q-231 0 -461 77v-471q5 -446 115.5 -623t460 -177t653 169.5t483.5 452.5l83 -53q-194 -304 -518 -485q-327 -182 -701 -182q-346 0 -562 106t-393 317q-305 -254 -502 -336q-177 -87 -463 -87q-1284 0 -1284 728 q0 844 1644 844h216v220q0 694 -634 694q-172 0 -310.5 -31t-138.5 -88q0 -39 51 -93q86 -84 86 -207t-86 -209t-208 -86t-208 86t-86 199t61 201q135 189 378.5 257.5t460.5 68.5zM1428 54q331 0 576 202v1174h-296q-796 0 -796 -746q0 -630 516 -630zM2772 1428 q221 -82 461 -82h691q0 738 -173 957q-110 139 -431 139t-430 -221t-118 -702v-91zM2200 1748q0 238 -69 417q72 -43 131.5 -93.5t130.5 -50.5h1q72 0 133 53.5t136 99.5q-80 -256 -87 -653v-668q2 -247 37 -425q-36 36 -70 77q-61 73 -136 73q-80 0 -137 -47l-70 -55v1272z M847 1225q-131 -218 -131 -521.5t92 -489.5q-468 115 -468 470q0 388 507 541zM766 2180q26 -44 61 -80t35 -77.5t-28.5 -70t-69.5 -28.5t-70 29t-29 87.5t101 139.5zM4022 2193q400 -227 463 -749h-366q-7 481 -97 749z" />
<glyph unicode="&#xc7;" horiz-adv-x="2803" d="M833 2193q-84 -284 -84 -945q0 -728 78 -944q-454 257 -454 944q0 686 460 945zM1082 101q-97 84 -166 240t-69 850t76 961q41 144 138 236q-282 -74 -466 -250q-320 -304 -320 -891t316 -889q191 -184 491 -257zM2265 2151q116 -86 116 -189q0 -41 -30.5 -73t-68 -32 t-65.5 28t-28 61.5t8 46.5t17 32q38 82 51 126zM2149 2328q18 -29 23 -71q7 -50 -4 -85.5t-44 -100.5t-33 -131.5t57 -123.5t135.5 -57t137 61t58.5 142q0 214 -330 366zM1521 2442q-414 0 -504 -317q-72 -254 -72 -877q0 -730 72 -892q134 -302 504 -302q349 0 653 170 q303 169 483 452l83 -53q-194 -304 -518 -485q-327 -182 -701 -182q-44 0 -86 1l-33 -144q66 33 166 33q252 0 452 -189q134 -126 134 -312q0 -172 -202 -304q-150 -97 -374 -97q-276 0 -480 228l28 103q212 -232 434 -232q298 0 298 409q0 309 -288 309q-184 0 -284 -80 l62 281q-526 39 -825 325q-346 332 -346 961q0 628 350 961q347 331 994 331q412 0 694 -134q362 -172 362 -444q0 -120 -86.5 -210.5t-206.5 -90.5t-205.5 85.5t-85.5 205.5q0 81 39 146q48 100 48 128q0 70 -91 113q-217 103 -468 103zM1877 -890q11 6 22 13 q157 102 157 222q0 143 -103 241l-14 12q17 -65 17 -146q0 -104 -18 -188q-18 -82 -50 -136z" />
<glyph unicode="&#xc8;" d="M1726 2679h-202l-306 289q-142 134 -343 139v48h624q24 0 53 -38q26 -54 174 -438zM1266 3057l19 -18l278 -262h20q-87 225 -111 280h-206zM1464 54q445 0 713 150q304 170 483 452l83 -53q-189 -297 -518 -485q-283 -162 -761 -162q-652 0 -998 331t-346 961 q0 628 350 961q347 331 994 331q646 0 994 -331q350 -333 350 -961h-1920q0 -730 72 -892q134 -302 504 -302zM888 1346h1152q0 647 -72 803q-135 293 -504 293q-366 0 -470 -245q-106 -251 -106 -851zM790 1346q0 621 114 889q24 57 60 104q22 28 44 50q-284 -74 -470 -251 q-320 -304 -320 -890q0 -588 316 -890q192 -184 491 -257q-97 84 -155 215q-80 181 -80 932v98zM1909 2392q91 -80 148 -202q81 -176 81 -844h570q-25 514 -318 792q-190 181 -481 254zM692 1346v-98q0 -726 78 -944q-94 53 -169 125q-285 273 -285 819q0 544 289 819 q80 76 181 131q-94 -288 -94 -852zM2163 2186q88 -51 160 -119q235 -223 279 -623h-366q-6 541 -73 742z" />
<glyph unicode="&#xc9;" d="M1353 2679q89 326 174 438q29 38 53 38h624v-48q-201 -5 -343 -139l-306 -289h-202zM1484 2777h32l278 262l19 18h-209q-55 -73 -120 -280zM1464 54q445 0 713 150q304 170 483 452l83 -53q-189 -297 -518 -485q-283 -162 -761 -162q-652 0 -998 331t-346 961 q0 628 350 961q347 331 994 331q646 0 994 -331q350 -333 350 -961h-1920q0 -730 72 -892q134 -302 504 -302zM888 1346h1152q0 647 -72 803q-135 293 -504 293q-366 0 -470 -245q-106 -251 -106 -851zM790 1346q0 621 114 889q24 57 60 104q22 28 44 50q-284 -74 -470 -251 q-320 -304 -320 -890q0 -588 316 -890q192 -184 491 -257q-97 84 -155 215q-80 181 -80 932v98zM1909 2392q91 -80 148 -202q81 -176 81 -844h570q-25 514 -318 792q-190 181 -481 254zM692 1346v-98q0 -726 78 -944q-94 53 -169 125q-285 273 -285 819q0 544 289 819 q80 76 181 131q-94 -288 -94 -852zM2163 2186q88 -51 160 -119q235 -223 279 -623h-366q-6 541 -73 742z" />
<glyph unicode="&#xca;" d="M1129 3149h767l278 -470h-184l-228 207q-138 125 -249 125q-112 0 -250 -125l-228 -207h-184zM1972 2827l-132 224h-135q60 -35 123 -92zM1321 3051h-136l-132 -224l144 132q63 57 124 92zM1464 54q445 0 713 150q304 170 483 452l83 -53q-189 -297 -518 -485 q-283 -162 -761 -162q-652 0 -998 331t-346 961q0 628 350 961q347 331 994 331q646 0 994 -331q350 -333 350 -961h-1920q0 -730 72 -892q134 -302 504 -302zM888 1346h1152q0 647 -72 803q-135 293 -504 293q-366 0 -470 -245q-106 -251 -106 -851zM790 1346 q0 621 114 889q24 57 60 104q22 28 44 50q-284 -74 -470 -251q-320 -304 -320 -890q0 -588 316 -890q192 -184 491 -257q-97 84 -155 215q-80 181 -80 932v98zM1909 2392q91 -80 148 -202q81 -176 81 -844h570q-25 514 -318 792q-190 181 -481 254zM692 1346v-98 q0 -726 78 -944q-94 53 -169 125q-285 273 -285 819q0 544 289 819q80 76 181 131q-94 -288 -94 -852zM2163 2186q88 -51 160 -119q235 -223 279 -623h-366q-6 541 -73 742z" />
<glyph unicode="&#xcb;" d="M1851 2995q0 -77 56.5 -133.5t133.5 -56.5t133.5 56.5t56.5 133.5t-56.5 133.5t-133.5 56.5t-133.5 -56.5t-56.5 -133.5zM618 2995q0 -77 56.5 -133.5t133.5 -56.5t133.5 56.5t56.5 133.5t-56.5 133.5t-133.5 56.5t-133.5 -56.5t-56.5 -133.5zM1949 2995q0 37 27.5 64.5 t64.5 27.5t64.5 -27.5t27.5 -64.5t-27.5 -64.5t-64.5 -27.5t-64.5 27.5t-27.5 64.5zM1838 3198q85 85 203 85t203 -85t85 -203t-85 -203t-203 -85t-203 85t-85 203t85 203zM716 2995q0 37 27.5 64.5t64.5 27.5t64.5 -27.5t27.5 -64.5t-27.5 -64.5t-64.5 -27.5t-64.5 27.5 t-27.5 64.5zM605 3198q85 85 203 85t203 -85t85 -203t-85 -203t-203 -85t-203 85t-85 203t85 203zM1464 54q445 0 713 150q304 170 483 452l83 -53q-189 -297 -518 -485q-283 -162 -761 -162q-652 0 -998 331t-346 961q0 628 350 961q347 331 994 331q646 0 994 -331 q350 -333 350 -961h-1920q0 -730 72 -892q134 -302 504 -302zM888 1346h1152q0 647 -72 803q-135 293 -504 293q-366 0 -470 -245q-106 -251 -106 -851zM790 1346q0 621 114 889q24 57 60 104q22 28 44 50q-284 -74 -470 -251q-320 -304 -320 -890q0 -588 316 -890 q192 -184 491 -257q-97 84 -155 215q-80 181 -80 932v98zM1909 2392q91 -80 148 -202q81 -176 81 -844h570q-25 514 -318 792q-190 181 -481 254zM692 1346v-98q0 -726 78 -944q-94 53 -169 125q-285 273 -285 819q0 544 289 819q80 76 181 131q-94 -288 -94 -852z M2163 2186q88 -51 160 -119q235 -223 279 -623h-366q-6 541 -73 742z" />
<glyph unicode="&#xcc;" horiz-adv-x="1776" d="M1150 2679h-202l-306 289q-142 134 -343 139v48h624q24 0 53 -38q26 -54 174 -438zM690 3057l19 -18l278 -262h20q-87 225 -111 280h-206zM120 2496h1536v-98q-384 0 -384 -336v-1628q0 -336 384 -336v-98h-1536v98q384 0 384 336v1628q0 336 -384 336v98zM461 98h854 q-141 113 -141 336v1628q0 223 141 336h-854q141 -113 141 -336v-1628q0 -223 -141 -336zM655 196q45 104 45 238v1628q0 134 -45 238h466q-45 -104 -45 -238v-1628q0 -134 45 -238h-466z" />
<glyph unicode="&#xcd;" horiz-adv-x="1776" d="M681 2679q89 326 174 438q29 38 53 38h624v-48q-201 -5 -343 -139l-306 -289h-202zM812 2777h32l278 262l19 18h-209q-55 -73 -120 -280zM120 2496h1536v-98q-384 0 -384 -336v-1628q0 -336 384 -336v-98h-1536v98q384 0 384 336v1628q0 336 -384 336v98zM461 98h854 q-141 113 -141 336v1628q0 223 141 336h-854q141 -113 141 -336v-1628q0 -223 -141 -336zM655 196q45 104 45 238v1628q0 134 -45 238h466q-45 -104 -45 -238v-1628q0 -134 45 -238h-466z" />
<glyph unicode="&#xce;" horiz-adv-x="1776" d="M505 3149h767l278 -470h-184l-228 207q-138 125 -249 125q-112 0 -250 -125l-228 -207h-184zM1348 2827l-132 224h-135q60 -35 123 -92zM697 3051h-136l-132 -224l144 132q63 57 124 92zM120 2496h1536v-98q-384 0 -384 -336v-1628q0 -336 384 -336v-98h-1536v98 q384 0 384 336v1628q0 336 -384 336v98zM461 98h854q-141 113 -141 336v1628q0 223 141 336h-854q141 -113 141 -336v-1628q0 -223 -141 -336zM655 196q45 104 45 238v1628q0 134 -45 238h466q-45 -104 -45 -238v-1628q0 -134 45 -238h-466z" />
<glyph unicode="&#xcf;" horiz-adv-x="1776" d="M1216 2996q0 -77 56.5 -133.5t133.5 -56.5t133.5 56.5t56.5 133.5t-56.5 133.5t-133.5 56.5t-133.5 -56.5t-56.5 -133.5zM180 2996q0 -77 56.5 -133.5t133.5 -56.5t133.5 56.5t56.5 133.5t-56.5 133.5t-133.5 56.5t-133.5 -56.5t-56.5 -133.5zM120 2496h1536v-98 q-384 0 -384 -336v-1628q0 -336 384 -336v-98h-1536v98q384 0 384 336v1628q0 336 -384 336v98zM461 98h854q-141 113 -141 336v1628q0 223 141 336h-854q141 -113 141 -336v-1628q0 -223 -141 -336zM655 196q45 104 45 238v1628q0 134 -45 238h466q-45 -104 -45 -238v-1628 q0 -134 45 -238h-466zM1314 2996q0 37 27.5 64.5t64.5 27.5t64.5 -27.5t27.5 -64.5t-27.5 -64.5t-64.5 -27.5t-64.5 27.5t-27.5 64.5zM1203 3199q85 85 203 85t203 -85t85 -203t-85 -203t-203 -85t-203 85t-85 203t85 203zM278 2996q0 37 27.5 64.5t64.5 27.5t64.5 -27.5 t27.5 -64.5t-27.5 -64.5t-64.5 -27.5t-64.5 27.5t-27.5 64.5zM167 3199q85 85 203 85t203 -85t85 -203t-85 -203t-203 -85t-203 85t-85 203t85 203z" />
<glyph unicode="&#xd0;" horiz-adv-x="3224" d="M1296 2398v-1030h464l-24 -240h-440v-1030h488q365 0 470 254q106 259 106 897t-106 895q-105 254 -470 254h-488zM2231 148q294 73 483 254q316 301 316 846q0 542 -320 846q-189 180 -478 253q73 -69 113 -166q113 -275 113 -933t-113 -933q-40 -98 -114 -167z M2458 2157q103 -56 185 -134q289 -275 289 -775q0 -503 -285 -775q-84 -80 -190 -136q99 297 99 911q0 612 -98 909zM1198 2398h-713q141 -113 141 -336v-1673q-9 -189 -136 -291h708v2300zM1100 2300v-2104h-417q36 85 41 190v1676q0 134 -45 238h421zM1784 0h-1640v98 q370 0 384 293v737h-360l24 240h336v694q0 336 -384 336v98h1640q646 0 994 -331q350 -333 350 -917q0 -586 -346 -917q-348 -331 -998 -331z" />
<glyph unicode="&#xd1;" horiz-adv-x="3504" d="M2527 3122q1 -13 1 -26q0 -429 -449 -429q-99 0 -246 53l-371 134q-141 51 -216 51q-155 0 -188 -172h-98q-4 33 -4 63q0 416 436 416q111 0 262 -55l370 -135q121 -44 200 -44q145 0 205 144h98zM2405 2935q-66 -51 -172 -51q-117 0 -243 46l-370 135q-135 49 -247 49 q-233 0 -295 -161q58 46 159 46q111 0 258 -53l371 -134q131 -47 241 -47q234 0 298 170zM461 2398q141 -113 141 -336v-1628q0 -223 -141 -336h843q-130 113 -130 336v1628q0 136 -6 191q-2 19 2 36q-6 4 -12 9q-18 16 -63 70q-17 21 -29 30h-605zM3043 98 q-141 113 -141 336v1198q0 128 -27 235.5t-87.5 201.5t-155 163.5t-233 119t-317.5 71.5q248 -220 248 -839v-1150q0 -223 -130 -336h843zM504 434v1628q0 336 -384 336v98h955q43 0 96.5 -66t63.5 -66q252 176 517 176q1248 0 1248 -908v-1198q0 -336 384 -336v-98h-1496 v98q344 0 344 336v1150q0 858 -480 858q-247 0 -487 -178q7 -60 7 -202v-1628q0 -336 344 -336v-98h-1496v98q384 0 384 336zM655 2300h370q39 -48 46 -65q5 -51 5 -173v-1628q0 -134 42 -238h-463q45 104 45 238v1628q0 134 -45 238zM2849 196h-463q42 104 42 238v1150 q0 439 -122 695q31 -9 108.5 -36.5t158.5 -88t132.5 -140t75 -173t23.5 -209.5v-1198q0 -134 45 -238z" />
<glyph unicode="&#xd2;" d="M1694 2679h-202l-306 289q-142 134 -343 139v48h624q24 0 53 -38q26 -54 174 -438zM1234 3057l19 -18l278 -262h20q-87 225 -111 280h-206zM866 344q-76 267 -76 904t76 904q41 145 138 236q-282 -74 -466 -250q-320 -304 -320 -890q0 -588 317 -891q185 -177 470 -251 q-98 92 -139 238zM1912 2391q73 -69 113 -166q113 -275 113 -977t-113 -977q-40 -98 -114 -167q294 73 483 254q316 301 316 890q0 586 -320 890q-188 180 -478 253zM771 318l6 -18q-97 54 -175 128q-286 274 -286 820q0 544 289 819q76 73 171 126l-5 -15 q-79 -280 -79 -930t79 -930zM2137 293q99 301 99 955q0 652 -98 953q103 -56 185 -134q289 -275 289 -819q0 -547 -285 -819q-84 -80 -190 -136zM1464 -44q-652 0 -998 331t-346 961q0 628 350 961q347 331 994 331q646 0 994 -331q350 -333 350 -961q0 -630 -346 -961 q-348 -331 -998 -331zM1464 54q365 0 470 254q106 259 106 940q0 683 -106 940q-105 254 -470 254q-414 0 -504 -317q-72 -254 -72 -877t72 -877q90 -317 504 -317z" />
<glyph unicode="&#xd3;" d="M1295 2679q89 326 174 438q29 38 53 38h624v-48q-201 -5 -343 -139l-306 -289h-202zM1426 2777h32l278 262l19 18h-209q-55 -73 -120 -280zM866 344q-76 267 -76 904t76 904q41 145 138 236q-282 -74 -466 -250q-320 -304 -320 -890q0 -588 317 -891q185 -177 470 -251 q-98 92 -139 238zM1912 2391q73 -69 113 -166q113 -275 113 -977t-113 -977q-40 -98 -114 -167q294 73 483 254q316 301 316 890q0 586 -320 890q-188 180 -478 253zM771 318l6 -18q-97 54 -175 128q-286 274 -286 820q0 544 289 819q76 73 171 126l-5 -15 q-79 -280 -79 -930t79 -930zM2137 293q99 301 99 955q0 652 -98 953q103 -56 185 -134q289 -275 289 -819q0 -547 -285 -819q-84 -80 -190 -136zM1464 -44q-652 0 -998 331t-346 961q0 628 350 961q347 331 994 331q646 0 994 -331q350 -333 350 -961q0 -630 -346 -961 q-348 -331 -998 -331zM1464 54q365 0 470 254q106 259 106 940q0 683 -106 940q-105 254 -470 254q-414 0 -504 -317q-72 -254 -72 -877t72 -877q90 -317 504 -317z" />
<glyph unicode="&#xd4;" d="M1081 3149h767l278 -470h-184l-228 207q-138 125 -249 125q-112 0 -250 -125l-228 -207h-184zM1924 2827l-132 224h-135q60 -35 123 -92zM1273 3051h-136l-132 -224l144 132q63 57 124 92zM866 344q-76 267 -76 904t76 904q41 145 138 236q-282 -74 -466 -250 q-320 -304 -320 -890q0 -588 317 -891q185 -177 470 -251q-98 92 -139 238zM1912 2391q73 -69 113 -166q113 -275 113 -977t-113 -977q-40 -98 -114 -167q294 73 483 254q316 301 316 890q0 586 -320 890q-188 180 -478 253zM771 318l6 -18q-97 54 -175 128 q-286 274 -286 820q0 544 289 819q76 73 171 126l-5 -15q-79 -280 -79 -930t79 -930zM2137 293q99 301 99 955q0 652 -98 953q103 -56 185 -134q289 -275 289 -819q0 -547 -285 -819q-84 -80 -190 -136zM1464 -44q-652 0 -998 331t-346 961q0 628 350 961q347 331 994 331 q646 0 994 -331q350 -333 350 -961q0 -630 -346 -961q-348 -331 -998 -331zM1464 54q365 0 470 254q106 259 106 940q0 683 -106 940q-105 254 -470 254q-414 0 -504 -317q-72 -254 -72 -877t72 -877q90 -317 504 -317z" />
<glyph unicode="&#xd5;" d="M2236 3108q1 -13 1 -26q0 -429 -449 -429q-99 0 -246 53l-371 134q-141 51 -216 51q-155 0 -188 -172h-98q-4 33 -4 63q0 416 436 416q111 0 262 -55l370 -135q121 -44 200 -44q145 0 205 144h98zM2114 2921q-66 -51 -172 -51q-117 0 -243 46l-370 135q-135 49 -247 49 q-233 0 -295 -161q58 46 159 46q111 0 258 -53l371 -134q131 -47 241 -47q234 0 298 170zM866 344q-76 267 -76 904t76 904q41 145 138 236q-282 -74 -466 -250q-320 -304 -320 -890q0 -588 317 -891q185 -177 470 -251q-98 92 -139 238zM1912 2391q73 -69 113 -166 q113 -275 113 -977t-113 -977q-40 -98 -114 -167q294 73 483 254q316 301 316 890q0 586 -320 890q-188 180 -478 253zM771 318l6 -18q-97 54 -175 128q-286 274 -286 820q0 544 289 819q76 73 171 126l-5 -15q-79 -280 -79 -930t79 -930zM2137 293q99 301 99 955 q0 652 -98 953q103 -56 185 -134q289 -275 289 -819q0 -547 -285 -819q-84 -80 -190 -136zM1464 -44q-652 0 -998 331t-346 961q0 628 350 961q347 331 994 331q646 0 994 -331q350 -333 350 -961q0 -630 -346 -961q-348 -331 -998 -331zM1464 54q365 0 470 254 q106 259 106 940q0 683 -106 940q-105 254 -470 254q-414 0 -504 -317q-72 -254 -72 -877t72 -877q90 -317 504 -317z" />
<glyph unicode="&#xd6;" d="M1891 2995q0 -77 56.5 -133.5t133.5 -56.5t133.5 56.5t56.5 133.5t-56.5 133.5t-133.5 56.5t-133.5 -56.5t-56.5 -133.5zM658 2995q0 -77 56.5 -133.5t133.5 -56.5t133.5 56.5t56.5 133.5t-56.5 133.5t-133.5 56.5t-133.5 -56.5t-56.5 -133.5zM1989 2995q0 37 27.5 64.5 t64.5 27.5t64.5 -27.5t27.5 -64.5t-27.5 -64.5t-64.5 -27.5t-64.5 27.5t-27.5 64.5zM1878 3198q85 85 203 85t203 -85t85 -203t-85 -203t-203 -85t-203 85t-85 203t85 203zM756 2995q0 37 27.5 64.5t64.5 27.5t64.5 -27.5t27.5 -64.5t-27.5 -64.5t-64.5 -27.5t-64.5 27.5 t-27.5 64.5zM645 3198q85 85 203 85t203 -85t85 -203t-85 -203t-203 -85t-203 85t-85 203t85 203zM866 344q-76 267 -76 904t76 904q41 145 138 236q-282 -74 -466 -250q-320 -304 -320 -890q0 -588 317 -891q185 -177 470 -251q-98 92 -139 238zM1912 2391q73 -69 113 -166 q113 -275 113 -977t-113 -977q-40 -98 -114 -167q294 73 483 254q316 301 316 890q0 586 -320 890q-188 180 -478 253zM771 318l6 -18q-97 54 -175 128q-286 274 -286 820q0 544 289 819q76 73 171 126l-5 -15q-79 -280 -79 -930t79 -930zM2137 293q99 301 99 955 q0 652 -98 953q103 -56 185 -134q289 -275 289 -819q0 -547 -285 -819q-84 -80 -190 -136zM1464 -44q-652 0 -998 331t-346 961q0 628 350 961q347 331 994 331q646 0 994 -331q350 -333 350 -961q0 -630 -346 -961q-348 -331 -998 -331zM1464 54q365 0 470 254 q106 259 106 940q0 683 -106 940q-105 254 -470 254q-414 0 -504 -317q-72 -254 -72 -877t72 -877q90 -317 504 -317z" />
<glyph unicode="&#xd7;" horiz-adv-x="1886" d="M1075 1248l682 -677l-144 -129l-672 672l-667 -672l-130 144l662 662l-686 686l144 130l677 -682l696 696l129 -139z" />
<glyph unicode="&#xd8;" d="M866 344q-76 267 -76 904t76 904q41 145 138 236q-282 -74 -466 -250q-320 -304 -320 -890q0 -588 317 -891q185 -177 470 -251q-98 92 -139 238zM1912 2391q73 -69 113 -166q113 -275 113 -977t-113 -977q-40 -98 -114 -167q294 73 483 254q316 301 316 890 q0 586 -320 890q-188 180 -478 253zM771 318l6 -18q-97 54 -175 128q-286 274 -286 820q0 544 289 819q76 73 171 126l-5 -15q-79 -280 -79 -930t79 -930zM2137 293q99 301 99 955q0 652 -98 953q103 -56 185 -134q289 -275 289 -819q0 -547 -285 -819q-84 -80 -190 -136z M1464 54q365 0 470 254q106 259 106 940q0 257 -15 454l-1108 -1094q17 -144 43 -237q90 -317 504 -317zM262 -38l-68 70l265 262q-339 331 -339 954q0 628 350 961q347 331 994 331q618 0 963 -303l303 299l68 -70l-300 -297q310 -330 310 -921q0 -630 -346 -961 q-348 -331 -998 -331q-592 0 -932 273zM905 734l1108 1094q-26 232 -79 360q-105 254 -470 254q-414 0 -504 -317q-72 -254 -72 -877q0 -300 17 -514z" />
<glyph unicode="&#xd9;" horiz-adv-x="3444" d="M1854 2679h-202l-306 289q-142 134 -343 139v48h624q24 0 53 -38q26 -54 174 -438zM1394 3057l19 -18l278 -262h20q-87 225 -111 280h-206zM2983 98q-141 113 -141 336v1997q-180 -77 -572 -86v-1911q0 -112 7 -194q4 -51 60 -112q21 -23 34 -30h612zM401 2398 q141 -113 141 -336v-1198q0 -124 25 -227.5t81 -195.5t143 -161.5t214.5 -120.5t291.5 -77q-183 158 -183 496v1484q0 203 -42 291q-20 45 -52 45h-619zM2940 434q0 -336 384 -336v-98h-960q-43 0 -99.5 62.5t-66.5 62.5q-247 -169 -506 -169q-1248 0 -1248 908v1198 q0 336 -384 336v98h960q192 0 192 -434v-1484q0 -524 480 -524q247 0 487 178q-7 86 -7 202v2008q504 0 672 99l96 -1v-2106zM2789 196h-381q-32 37 -34 52q-6 78 -6 186v1816q225 10 376 46v-1862q0 -134 45 -238zM595 2300h393q28 -76 28 -238v-1484q0 -195 57 -340 l-31 12q-114 45 -190 106q-73 59 -120 136q-48 79 -70 167q-22 93 -22 205v1198q0 134 -45 238z" />
<glyph unicode="&#xda;" horiz-adv-x="3444" d="M1513 2679q89 326 174 438q29 38 53 38h624v-48q-201 -5 -343 -139l-306 -289h-202zM1644 2777h32l278 262l19 18h-209q-55 -73 -120 -280zM2983 98q-141 113 -141 336v1997q-180 -77 -572 -86v-1911q0 -112 7 -194q4 -51 60 -112q21 -23 34 -30h612zM401 2398 q141 -113 141 -336v-1198q0 -124 25 -227.5t81 -195.5t143 -161.5t214.5 -120.5t291.5 -77q-183 158 -183 496v1484q0 203 -42 291q-20 45 -52 45h-619zM2940 434q0 -336 384 -336v-98h-960q-43 0 -99.5 62.5t-66.5 62.5q-247 -169 -506 -169q-1248 0 -1248 908v1198 q0 336 -384 336v98h960q192 0 192 -434v-1484q0 -524 480 -524q247 0 487 178q-7 86 -7 202v2008q504 0 672 99l96 -1v-2106zM2789 196h-381q-32 37 -34 52q-6 78 -6 186v1816q225 10 376 46v-1862q0 -134 45 -238zM595 2300h393q28 -76 28 -238v-1484q0 -195 57 -340 l-31 12q-114 45 -190 106q-73 59 -120 136q-48 79 -70 167q-22 93 -22 205v1198q0 134 -45 238z" />
<glyph unicode="&#xdb;" horiz-adv-x="3444" d="M1309 3149h767l278 -470h-184l-228 207q-138 125 -249 125q-112 0 -250 -125l-228 -207h-184zM2152 2827l-132 224h-135q60 -35 123 -92zM1501 3051h-136l-132 -224l144 132q63 57 124 92zM2983 98q-141 113 -141 336v1997q-180 -77 -572 -86v-1911q0 -112 7 -194 q4 -51 60 -112q21 -23 34 -30h612zM401 2398q141 -113 141 -336v-1198q0 -124 25 -227.5t81 -195.5t143 -161.5t214.5 -120.5t291.5 -77q-183 158 -183 496v1484q0 203 -42 291q-20 45 -52 45h-619zM2940 434q0 -336 384 -336v-98h-960q-43 0 -99.5 62.5t-66.5 62.5 q-247 -169 -506 -169q-1248 0 -1248 908v1198q0 336 -384 336v98h960q192 0 192 -434v-1484q0 -524 480 -524q247 0 487 178q-7 86 -7 202v2008q504 0 672 99l96 -1v-2106zM2789 196h-381q-32 37 -34 52q-6 78 -6 186v1816q225 10 376 46v-1862q0 -134 45 -238zM595 2300 h393q28 -76 28 -238v-1484q0 -195 57 -340l-31 12q-114 45 -190 106q-73 59 -120 136q-48 79 -70 167q-22 93 -22 205v1198q0 134 -45 238z" />
<glyph unicode="&#xdc;" horiz-adv-x="3444" d="M2111 2995q0 -77 56.5 -133.5t133.5 -56.5t133.5 56.5t56.5 133.5t-56.5 133.5t-133.5 56.5t-133.5 -56.5t-56.5 -133.5zM878 2995q0 -77 56.5 -133.5t133.5 -56.5t133.5 56.5t56.5 133.5t-56.5 133.5t-133.5 56.5t-133.5 -56.5t-56.5 -133.5zM2209 2995q0 37 27.5 64.5 t64.5 27.5t64.5 -27.5t27.5 -64.5t-27.5 -64.5t-64.5 -27.5t-64.5 27.5t-27.5 64.5zM2098 3198q85 85 203 85t203 -85t85 -203t-85 -203t-203 -85t-203 85t-85 203t85 203zM976 2995q0 37 27.5 64.5t64.5 27.5t64.5 -27.5t27.5 -64.5t-27.5 -64.5t-64.5 -27.5t-64.5 27.5 t-27.5 64.5zM865 3198q85 85 203 85t203 -85t85 -203t-85 -203t-203 -85t-203 85t-85 203t85 203zM2983 98q-141 113 -141 336v1997q-180 -77 -572 -86v-1911q0 -112 7 -194q4 -51 60 -112q21 -23 34 -30h612zM401 2398q141 -113 141 -336v-1198q0 -124 25 -227.5t81 -195.5 t143 -161.5t214.5 -120.5t291.5 -77q-183 158 -183 496v1484q0 203 -42 291q-20 45 -52 45h-619zM2940 434q0 -336 384 -336v-98h-960q-43 0 -99.5 62.5t-66.5 62.5q-247 -169 -506 -169q-1248 0 -1248 908v1198q0 336 -384 336v98h960q192 0 192 -434v-1484 q0 -524 480 -524q247 0 487 178q-7 86 -7 202v2008q504 0 672 99l96 -1v-2106zM2789 196h-381q-32 37 -34 52q-6 78 -6 186v1816q225 10 376 46v-1862q0 -134 45 -238zM595 2300h393q28 -76 28 -238v-1484q0 -195 57 -340l-31 12q-114 45 -190 106q-73 59 -120 136 q-48 79 -70 167q-22 93 -22 205v1198q0 134 -45 238z" />
<glyph unicode="&#xdd;" horiz-adv-x="3026" d="M2450 2398q35 -35 49 -82q44 47 93 82h-142zM1992 98q-141 113 -141 336v719q-44 7 -68 48l-513 893q-63 121 -120.5 196t-102.5 99q-16 8 -32 9h-624q119 -82 201 -228l675 -1210q12 -22 12 -48v-478q0 -223 -141 -336h854zM1868 1250l511 891q32 56 32 109 q0 145 -301 148v98h796v-98q-269 0 -427 -276l-530 -927v-761q0 -336 384 -336v-98h-1536v98q384 0 384 336v478l-675 1210q-154 276 -446 276v98h955q157 0 341 -355zM1798 196h-466q45 104 45 238v478q0 51 -25 95l-675 1210q-24 44 -52 83h379q27 -16 68 -70 q52 -68 112 -183l514 -895q22 -38 55 -62v-656q0 -134 45 -238zM1211 2678q89 326 174 438q29 38 53 38h624v-48q-201 -5 -343 -139l-306 -289h-202zM1342 2776h32l278 262l19 18h-209q-55 -73 -120 -280z" />
<glyph unicode="&#xde;" horiz-adv-x="3120" d="M1198 2062q0 68 3 107q13 146 118 229h-834q141 -113 141 -336v-1628q0 -223 -141 -336h854q-141 114 -141 336v1628zM2097 2039q37 -27 71 -65q58 -61 97.5 -142t64 -200t24.5 -264t-24.5 -264t-64.5 -200q-39 -81 -97 -142q-37 -39 -75 -67q312 35 477 131 q180 105 268 239t88 303q0 267 -363 523q-154 108 -466 148zM144 2496h1536v-98q-360 0 -381 -238h381q670 0 939 -189q405 -285 405 -603q0 -391 -405 -627q-283 -165 -939 -165h-384v-142q0 -336 384 -336v-98h-1536v98q384 0 384 336v1628q0 336 -384 336v98zM1296 2062 v-1388h384q576 0 576 694t-576 694h-384zM1100 2062v-1628q0 -134 45 -238h-466q45 104 45 238v1628q0 134 -45 238h452q-21 -57 -27 -123q-4 -42 -4 -115zM2342 839l11 22q45 92 72 223q27 129 27 284t-27 284q-26 131 -72 223l-5 11q96 -32 158 -75q322 -227 322 -443 q0 -139 -72 -249q-76 -116 -236 -209q-71 -42 -178 -71z" />
<glyph unicode="&#xdf;" horiz-adv-x="3408" d="M1619 257q34 18 85 22q-39 59 -76 135zM2685 92q505 106 505 527q0 239 -299 448l-441 307q-301 210 -310 378q-1 27 4 55l-156 -91q-216 -126 -216 -336t310 -425l422 -293q253 -176 253 -369q0 -119 -72 -201zM461 98h713v1222q0 811 370 1085q-900 -163 -942 -1089 q-1 -24 -12 -45q12 -22 12 -49v-788q0 -223 -141 -336zM1992 2540q542 0 789 -276v-81l-415 -238q-128 -80 -128 -184q0 -120 268 -307l441 -307q341 -237 341 -528q0 -663 -1026 -663q-258 0 -448 178q-51 48 -101 48q-110 0 -110 -182h-98l39 653h98q0 -45 78 -204 q193 -395 542 -395q397 0 397 239q0 142 -211 288l-422 293q-352 244 -352 512q0 261 265 415l704 410v30q-188 201 -651 201q-720 0 -720 -1122v-1320h-1152v98q384 0 384 336v788h-184v98h184q56 1220 1488 1220zM2853 247q2 23 2 46q0 244 -295 449l-422 293 q-268 186 -268 345q0 77 40.5 139t127.5 113l27 15q65 -170 329 -354l441 -307q257 -179 257 -367q0 -132 -59 -224t-180 -148zM655 196q45 104 45 238v788v89q15 339 152.5 566t405.5 343q-182 -326 -182 -900v-1124h-421z" />
<glyph unicode="&#xe0;" horiz-adv-x="3252" d="M1782 2679h-202l-306 289q-142 134 -343 139v48h624q24 0 53 -38q26 -54 174 -438zM1322 3057l19 -18l278 -262h20q-87 225 -111 280h-206zM1980 1430h-296q-796 0 -796 -746q0 -630 516 -630q341 0 586 202q-10 298 -10 625v549zM445 2023q0 103 62 191q134 187 413 266 q213 60 426 60q1402 0 1402 -1272v-834q0 -336 384 -336v-98h-960q-48 0 -101 80t-72 68q-242 -192 -595 -192q-1284 0 -1284 728q0 844 1644 844h216v220q0 694 -634 694q-170 0 -340 -38q-109 -24 -109 -81q0 -39 51 -93q86 -84 86 -208q0 -122 -86 -208t-208 -86t-208 86 t-87 209zM543 2023q0 -82 58 -140q57 -57 138.5 -57t139 57.5t57.5 138.5q0 83 -58 139q-53 56 -70 107q-1 4 -2.5 12t-3 21t-3.5 22v8q-136 -66 -212 -174q-44 -62 -44 -134zM1017 74q-29 24 -57 54q-52 56 -88.5 130t-59 183.5t-22.5 242.5q0 408 224 626q76 73 98 77 q-228 -35 -386 -91q-178 -64 -292 -157t-165 -205t-51 -250q0 -116 39 -211t127 -174t224 -133q136 -52 337 -82zM2110 192q16 -18 43 -58q18 -27 29 -36h609q-141 113 -141 336v834q0 175 -27 323t-88 279.5t-155 232t-232 175t-316 115.5q246 -199 246 -645v-867 q0 -324 10 -622l2 -48zM641 2024q0 41 26 76q31 44 75 80q26 -44 66 -87q30 -29 30 -71q0 -41 -28.5 -69.5t-69.5 -28.5t-69 29q-30 29 -30 71zM823 1225q-131 -218 -131 -541q0 -143 25 -262q25 -122 67 -207v-1q-78 19 -140 44q-120 47 -195 114q-71 64 -101 138 q-32 77 -32 174q0 117 42 209q42 91 138 171q101 83 264 140q30 11 63 21zM2229 196q-26 37 -43 57v10q-10 296 -10 618v867q0 259 -78 445l3 -2q124 -67 207.5 -156t137.5 -206q56 -120 80 -255q26 -139 26 -306v-834q0 -134 45 -238h-368z" />
<glyph unicode="&#xe1;" horiz-adv-x="3252" d="M1980 1430h-296q-796 0 -796 -746q0 -630 516 -630q341 0 586 202q-10 298 -10 625v549zM445 2023q0 103 62 191q134 187 413 266q213 60 426 60q1402 0 1402 -1272v-834q0 -336 384 -336v-98h-960q-48 0 -101 80t-72 68q-242 -192 -595 -192q-1284 0 -1284 728 q0 844 1644 844h216v220q0 694 -634 694q-170 0 -340 -38q-109 -24 -109 -81q0 -39 51 -93q86 -84 86 -208q0 -122 -86 -208t-208 -86t-208 86t-87 209zM543 2023q0 -82 58 -140q57 -57 138.5 -57t139 57.5t57.5 138.5q0 83 -58 139q-53 56 -70 107q-1 4 -2.5 12t-3 21 t-3.5 22v8q-136 -66 -212 -174q-44 -62 -44 -134zM1017 74q-29 24 -57 54q-52 56 -88.5 130t-59 183.5t-22.5 242.5q0 408 224 626q76 73 98 77q-228 -35 -386 -91q-178 -64 -292 -157t-165 -205t-51 -250q0 -116 39 -211t127 -174t224 -133q136 -52 337 -82zM2110 192 q16 -18 43 -58q18 -27 29 -36h609q-141 113 -141 336v834q0 175 -27 323t-88 279.5t-155 232t-232 175t-316 115.5q246 -199 246 -645v-867q0 -324 10 -622l2 -48zM641 2024q0 41 26 76q31 44 75 80q26 -44 66 -87q30 -29 30 -71q0 -41 -28.5 -69.5t-69.5 -28.5t-69 29 q-30 29 -30 71zM823 1225q-131 -218 -131 -541q0 -143 25 -262q25 -122 67 -207v-1q-78 19 -140 44q-120 47 -195 114q-71 64 -101 138q-32 77 -32 174q0 117 42 209q42 91 138 171q101 83 264 140q30 11 63 21zM2229 196q-26 37 -43 57v10q-10 296 -10 618v867 q0 259 -78 445l3 -2q124 -67 207.5 -156t137.5 -206q56 -120 80 -255q26 -139 26 -306v-834q0 -134 45 -238h-368zM1246 2679q89 326 174 438q29 38 53 38h624v-48q-201 -5 -343 -139l-306 -289h-202zM1377 2777h32l278 262l19 18h-209q-55 -73 -120 -280z" />
<glyph unicode="&#xe2;" horiz-adv-x="3252" d="M1980 1430h-296q-796 0 -796 -746q0 -630 516 -630q341 0 586 202q-10 298 -10 625v549zM445 2023q0 103 62 191q134 187 413 266q213 60 426 60q1402 0 1402 -1272v-834q0 -336 384 -336v-98h-960q-48 0 -101 80t-72 68q-242 -192 -595 -192q-1284 0 -1284 728 q0 844 1644 844h216v220q0 694 -634 694q-170 0 -340 -38q-109 -24 -109 -81q0 -39 51 -93q86 -84 86 -208q0 -122 -86 -208t-208 -86t-208 86t-87 209zM543 2023q0 -82 58 -140q57 -57 138.5 -57t139 57.5t57.5 138.5q0 83 -58 139q-53 56 -70 107q-1 4 -2.5 12t-3 21 t-3.5 22v8q-136 -66 -212 -174q-44 -62 -44 -134zM1017 74q-29 24 -57 54q-52 56 -88.5 130t-59 183.5t-22.5 242.5q0 408 224 626q76 73 98 77q-228 -35 -386 -91q-178 -64 -292 -157t-165 -205t-51 -250q0 -116 39 -211t127 -174t224 -133q136 -52 337 -82zM2110 192 q16 -18 43 -58q18 -27 29 -36h609q-141 113 -141 336v834q0 175 -27 323t-88 279.5t-155 232t-232 175t-316 115.5q246 -199 246 -645v-867q0 -324 10 -622l2 -48zM641 2024q0 41 26 76q31 44 75 80q26 -44 66 -87q30 -29 30 -71q0 -41 -28.5 -69.5t-69.5 -28.5t-69 29 q-30 29 -30 71zM823 1225q-131 -218 -131 -541q0 -143 25 -262q25 -122 67 -207v-1q-78 19 -140 44q-120 47 -195 114q-71 64 -101 138q-32 77 -32 174q0 117 42 209q42 91 138 171q101 83 264 140q30 11 63 21zM2229 196q-26 37 -43 57v10q-10 296 -10 618v867 q0 259 -78 445l3 -2q124 -67 207.5 -156t137.5 -206q56 -120 80 -255q26 -139 26 -306v-834q0 -134 45 -238h-368zM1162 3149h767l278 -470h-184l-228 207q-138 125 -249 125q-112 0 -250 -125l-228 -207h-184zM2005 2827l-132 224h-135q60 -35 123 -92zM1354 3051h-136 l-132 -224l144 132q63 57 124 92z" />
<glyph unicode="&#xe3;" horiz-adv-x="3252" d="M1980 1430h-296q-796 0 -796 -746q0 -630 516 -630q341 0 586 202q-10 298 -10 625v549zM445 2023q0 103 62 191q134 187 413 266q213 60 426 60q1402 0 1402 -1272v-834q0 -336 384 -336v-98h-960q-48 0 -101 80t-72 68q-242 -192 -595 -192q-1284 0 -1284 728 q0 844 1644 844h216v220q0 694 -634 694q-170 0 -340 -38q-109 -24 -109 -81q0 -39 51 -93q86 -84 86 -208q0 -122 -86 -208t-208 -86t-208 86t-87 209zM543 2023q0 -82 58 -140q57 -57 138.5 -57t139 57.5t57.5 138.5q0 83 -58 139q-53 56 -70 107q-1 4 -2.5 12t-3 21 t-3.5 22v8q-136 -66 -212 -174q-44 -62 -44 -134zM1017 74q-29 24 -57 54q-52 56 -88.5 130t-59 183.5t-22.5 242.5q0 408 224 626q76 73 98 77q-228 -35 -386 -91q-178 -64 -292 -157t-165 -205t-51 -250q0 -116 39 -211t127 -174t224 -133q136 -52 337 -82zM2110 192 q16 -18 43 -58q18 -27 29 -36h609q-141 113 -141 336v834q0 175 -27 323t-88 279.5t-155 232t-232 175t-316 115.5q246 -199 246 -645v-867q0 -324 10 -622l2 -48zM641 2024q0 41 26 76q31 44 75 80q26 -44 66 -87q30 -29 30 -71q0 -41 -28.5 -69.5t-69.5 -28.5t-69 29 q-30 29 -30 71zM823 1225q-131 -218 -131 -541q0 -143 25 -262q25 -122 67 -207v-1q-78 19 -140 44q-120 47 -195 114q-71 64 -101 138q-32 77 -32 174q0 117 42 209q42 91 138 171q101 83 264 140q30 11 63 21zM2229 196q-26 37 -43 57v10q-10 296 -10 618v867 q0 259 -78 445l3 -2q124 -67 207.5 -156t137.5 -206q56 -120 80 -255q26 -139 26 -306v-834q0 -134 45 -238h-368zM2340 3108q1 -13 1 -26q0 -429 -449 -429q-99 0 -246 53l-371 134q-141 51 -216 51q-155 0 -188 -172h-98q-4 33 -4 63q0 416 436 416q111 0 262 -55 l370 -135q121 -44 200 -44q145 0 205 144h98zM2218 2921q-66 -51 -172 -51q-117 0 -243 46l-370 135q-135 49 -247 49q-233 0 -295 -161q58 46 159 46q111 0 258 -53l371 -134q131 -47 241 -47q234 0 298 170z" />
<glyph unicode="&#xe4;" horiz-adv-x="3252" d="M1980 1430h-296q-796 0 -796 -746q0 -630 516 -630q341 0 586 202q-10 298 -10 625v549zM445 2023q0 103 62 191q134 187 413 266q213 60 426 60q1402 0 1402 -1272v-834q0 -336 384 -336v-98h-960q-48 0 -101 80t-72 68q-242 -192 -595 -192q-1284 0 -1284 728 q0 844 1644 844h216v220q0 694 -634 694q-170 0 -340 -38q-109 -24 -109 -81q0 -39 51 -93q86 -84 86 -208q0 -122 -86 -208t-208 -86t-208 86t-87 209zM543 2023q0 -82 58 -140q57 -57 138.5 -57t139 57.5t57.5 138.5q0 83 -58 139q-53 56 -70 107q-1 4 -2.5 12t-3 21 t-3.5 22v8q-136 -66 -212 -174q-44 -62 -44 -134zM1017 74q-29 24 -57 54q-52 56 -88.5 130t-59 183.5t-22.5 242.5q0 408 224 626q76 73 98 77q-228 -35 -386 -91q-178 -64 -292 -157t-165 -205t-51 -250q0 -116 39 -211t127 -174t224 -133q136 -52 337 -82zM2110 192 q16 -18 43 -58q18 -27 29 -36h609q-141 113 -141 336v834q0 175 -27 323t-88 279.5t-155 232t-232 175t-316 115.5q246 -199 246 -645v-867q0 -324 10 -622l2 -48zM641 2024q0 41 26 76q31 44 75 80q26 -44 66 -87q30 -29 30 -71q0 -41 -28.5 -69.5t-69.5 -28.5t-69 29 q-30 29 -30 71zM823 1225q-131 -218 -131 -541q0 -143 25 -262q25 -122 67 -207v-1q-78 19 -140 44q-120 47 -195 114q-71 64 -101 138q-32 77 -32 174q0 117 42 209q42 91 138 171q101 83 264 140q30 11 63 21zM2229 196q-26 37 -43 57v10q-10 296 -10 618v867 q0 259 -78 445l3 -2q124 -67 207.5 -156t137.5 -206q56 -120 80 -255q26 -139 26 -306v-834q0 -134 45 -238h-368zM1924 2995q0 -77 56.5 -133.5t133.5 -56.5t133.5 56.5t56.5 133.5t-56.5 133.5t-133.5 56.5t-133.5 -56.5t-56.5 -133.5zM691 2995q0 -77 56.5 -133.5 t133.5 -56.5t133.5 56.5t56.5 133.5t-56.5 133.5t-133.5 56.5t-133.5 -56.5t-56.5 -133.5zM2022 2995q0 37 27.5 64.5t64.5 27.5t64.5 -27.5t27.5 -64.5t-27.5 -64.5t-64.5 -27.5t-64.5 27.5t-27.5 64.5zM1911 3198q85 85 203 85t203 -85t85 -203t-85 -203t-203 -85t-203 85 t-85 203t85 203zM789 2995q0 37 27.5 64.5t64.5 27.5t64.5 -27.5t27.5 -64.5t-27.5 -64.5t-64.5 -27.5t-64.5 27.5t-27.5 64.5zM678 3198q85 85 203 85t203 -85t85 -203t-85 -203t-203 -85t-203 85t-85 203t85 203z" />
<glyph unicode="&#xe5;" horiz-adv-x="3252" d="M1980 1430h-296q-796 0 -796 -746q0 -630 516 -630q341 0 586 202q-10 298 -10 625v549zM445 2023q0 103 62 191q134 187 413 266q213 60 426 60q1402 0 1402 -1272v-834q0 -336 384 -336v-98h-960q-48 0 -101 80t-72 68q-242 -192 -595 -192q-1284 0 -1284 728 q0 844 1644 844h216v220q0 694 -634 694q-170 0 -340 -38q-109 -24 -109 -81q0 -39 51 -93q86 -84 86 -208q0 -122 -86 -208t-208 -86t-208 86t-87 209zM543 2023q0 -82 58 -140q57 -57 138.5 -57t139 57.5t57.5 138.5q0 83 -58 139q-53 56 -70 107q-1 4 -2.5 12t-3 21 t-3.5 22v8q-136 -66 -212 -174q-44 -62 -44 -134zM1017 74q-29 24 -57 54q-52 56 -88.5 130t-59 183.5t-22.5 242.5q0 408 224 626q76 73 98 77q-228 -35 -386 -91q-178 -64 -292 -157t-165 -205t-51 -250q0 -116 39 -211t127 -174t224 -133q136 -52 337 -82zM2110 192 q16 -18 43 -58q18 -27 29 -36h609q-141 113 -141 336v834q0 175 -27 323t-88 279.5t-155 232t-232 175t-316 115.5q246 -199 246 -645v-867q0 -324 10 -622l2 -48zM641 2024q0 41 26 76q31 44 75 80q26 -44 66 -87q30 -29 30 -71q0 -41 -28.5 -69.5t-69.5 -28.5t-69 29 q-30 29 -30 71zM823 1225q-131 -218 -131 -541q0 -143 25 -262q25 -122 67 -207v-1q-78 19 -140 44q-120 47 -195 114q-71 64 -101 138q-32 77 -32 174q0 117 42 209q42 91 138 171q101 83 264 140q30 11 63 21zM2229 196q-26 37 -43 57v10q-10 296 -10 618v867 q0 259 -78 445l3 -2q124 -67 207.5 -156t137.5 -206q56 -120 80 -255q26 -139 26 -306v-834q0 -134 45 -238h-368zM1469 3269q116 0 214 -95t98 -217t-98 -217t-214 -95t-214 97t-98 215q0 122 98 217t214 95zM1469 3238q-156 0 -156 -281t156 -281t156 281t-156 281z" />
<glyph unicode="&#xe6;" horiz-adv-x="4788" d="M2798 154q-142 192 -145 713.5t-3 652.5q12 645 199 855q-236 -74 -416 -231q-64 -55 -127 -1q-191 162 -458 237q230 -210 230 -632v-1467q104 73 229 174q33 26 71.5 22.5t65.5 -35.5q161 -191 354 -288zM1017 74q-227 185 -227 602q0 502 321 711q-893 -134 -893 -703 q0 -518 799 -610zM799 2331q-136 -66 -196 -151q-63 -88 -63 -162t61 -135q57 -57 138.5 -57t139 57.5t57.5 139.5t-55 138t-64.5 83.5t-11 35.5t-3 21t-2.5 18t-1 8v4zM3786 2385q212 -231 212 -1039h569q-26 494 -318 781q-185 181 -463 258zM1346 2540q644 0 1023 -322 q369 322 983.5 322t965 -343.5t350.5 -948.5h-1459q-231 0 -461 77v-471q5 -446 115.5 -623t460 -177t653 169.5t483.5 452.5l83 -53q-194 -304 -518 -485q-327 -182 -701 -182q-346 0 -562 106t-393 317q-305 -254 -502 -336q-177 -87 -463 -87q-1284 0 -1284 728 q0 844 1644 844h216v220q0 694 -634 694q-172 0 -310.5 -31t-138.5 -88q0 -39 51 -93q86 -84 86 -207t-86 -209t-208 -86t-208 86t-86 199t61 201q135 189 378.5 257.5t460.5 68.5zM1404 54q331 0 576 202v1174h-296q-796 0 -796 -746q0 -630 516 -630zM2748 1428 q221 -82 461 -82h691q0 738 -173 957q-110 139 -431 139t-430 -221t-118 -702v-91zM2176 1748q0 238 -69 417q72 -43 131.5 -93.5t130.5 -50.5h1q72 0 133 53.5t136 99.5q-80 -256 -87 -653v-668q2 -247 37 -425q-36 36 -70 77q-61 73 -136 73q-80 0 -137 -47l-70 -55v1272z M823 1225q-131 -218 -131 -521.5t92 -489.5q-468 115 -468 470q0 388 507 541zM742 2180q26 -44 61 -80t35 -77.5t-28.5 -70t-69.5 -28.5t-70 29t-29 87.5t101 139.5zM3998 2193q400 -227 463 -749h-366q-7 481 -97 749z" />
<glyph unicode="&#xe7;" horiz-adv-x="2803" d="M776 2193q-84 -284 -84 -945q0 -728 78 -944q-454 257 -454 944q0 686 460 945zM1025 101q-97 84 -166 240t-69 850t76 961q41 144 138 236q-282 -74 -466 -250q-320 -304 -320 -891t316 -889q191 -184 491 -257zM2208 2151q116 -86 116 -189q0 -41 -30.5 -73t-68 -32 t-65.5 28t-28 61.5t8 46.5t17 32q38 82 51 126zM2092 2328q18 -29 23 -71q7 -50 -4 -85.5t-44 -100.5t-33 -131.5t57 -123.5t135.5 -57t137 61t58.5 142q0 214 -330 366zM1464 2442q-414 0 -504 -317q-72 -254 -72 -877q0 -730 72 -892q134 -302 504 -302q349 0 653 170 q303 169 483 452l83 -53q-194 -304 -518 -485q-327 -182 -701 -182q-44 0 -86 1l-33 -144q66 33 166 33q252 0 452 -189q134 -126 134 -312q0 -172 -202 -304q-150 -97 -374 -97q-276 0 -480 228l28 103q212 -232 434 -232q298 0 298 409q0 309 -288 309q-184 0 -284 -80 l62 281q-526 39 -825 325q-346 332 -346 961q0 628 350 961q347 331 994 331q412 0 694 -134q362 -172 362 -444q0 -120 -86.5 -210.5t-206.5 -90.5t-205.5 85.5t-85.5 205.5q0 81 39 146q48 100 48 128q0 70 -91 113q-217 103 -468 103zM1820 -890q11 6 22 13 q157 102 157 222q0 143 -103 241l-14 12q17 -65 17 -146q0 -104 -18 -188q-18 -82 -50 -136z" />
<glyph unicode="&#xe8;" d="M1464 54q445 0 713 150q304 170 483 452l83 -53q-189 -297 -518 -485q-283 -162 -761 -162q-652 0 -998 331t-346 961q0 628 350 961q347 331 994 331q646 0 994 -331q350 -333 350 -961h-1920q0 -730 72 -892q134 -302 504 -302zM888 1346h1152q0 647 -72 803 q-135 293 -504 293q-366 0 -470 -245q-106 -251 -106 -851zM790 1346q0 621 114 889q24 57 60 104q22 28 44 50q-284 -74 -470 -251q-320 -304 -320 -890q0 -588 316 -890q192 -184 491 -257q-97 84 -155 215q-80 181 -80 932v98zM1909 2392q91 -80 148 -202 q81 -176 81 -844h570q-25 514 -318 792q-190 181 -481 254zM692 1346v-98q0 -726 78 -944q-94 53 -169 125q-285 273 -285 819q0 544 289 819q80 76 181 131q-94 -288 -94 -852zM2163 2186q88 -51 160 -119q235 -223 279 -623h-366q-6 541 -73 742zM1726 2679h-202l-306 289 q-142 134 -343 139v48h624q24 0 53 -38q26 -54 174 -438zM1266 3057l19 -18l278 -262h20q-87 225 -111 280h-206z" />
<glyph unicode="&#xe9;" d="M1464 54q445 0 713 150q304 170 483 452l83 -53q-189 -297 -518 -485q-283 -162 -761 -162q-652 0 -998 331t-346 961q0 628 350 961q347 331 994 331q646 0 994 -331q350 -333 350 -961h-1920q0 -730 72 -892q134 -302 504 -302zM888 1346h1152q0 647 -72 803 q-135 293 -504 293q-366 0 -470 -245q-106 -251 -106 -851zM790 1346q0 621 114 889q24 57 60 104q22 28 44 50q-284 -74 -470 -251q-320 -304 -320 -890q0 -588 316 -890q192 -184 491 -257q-97 84 -155 215q-80 181 -80 932v98zM1909 2392q91 -80 148 -202 q81 -176 81 -844h570q-25 514 -318 792q-190 181 -481 254zM692 1346v-98q0 -726 78 -944q-94 53 -169 125q-285 273 -285 819q0 544 289 819q80 76 181 131q-94 -288 -94 -852zM2163 2186q88 -51 160 -119q235 -223 279 -623h-366q-6 541 -73 742zM1353 2679 q89 326 174 438q29 38 53 38h624v-48q-201 -5 -343 -139l-306 -289h-202zM1484 2777h32l278 262l19 18h-209q-55 -73 -120 -280z" />
<glyph unicode="&#xea;" d="M1464 54q445 0 713 150q304 170 483 452l83 -53q-189 -297 -518 -485q-283 -162 -761 -162q-652 0 -998 331t-346 961q0 628 350 961q347 331 994 331q646 0 994 -331q350 -333 350 -961h-1920q0 -730 72 -892q134 -302 504 -302zM888 1346h1152q0 647 -72 803 q-135 293 -504 293q-366 0 -470 -245q-106 -251 -106 -851zM790 1346q0 621 114 889q24 57 60 104q22 28 44 50q-284 -74 -470 -251q-320 -304 -320 -890q0 -588 316 -890q192 -184 491 -257q-97 84 -155 215q-80 181 -80 932v98zM1909 2392q91 -80 148 -202 q81 -176 81 -844h570q-25 514 -318 792q-190 181 -481 254zM692 1346v-98q0 -726 78 -944q-94 53 -169 125q-285 273 -285 819q0 544 289 819q80 76 181 131q-94 -288 -94 -852zM2163 2186q88 -51 160 -119q235 -223 279 -623h-366q-6 541 -73 742zM1129 3149h767l278 -470 h-184l-228 207q-138 125 -249 125q-112 0 -250 -125l-228 -207h-184zM1972 2827l-132 224h-135q60 -35 123 -92zM1321 3051h-136l-132 -224l144 132q63 57 124 92z" />
<glyph unicode="&#xeb;" d="M1464 54q445 0 713 150q304 170 483 452l83 -53q-189 -297 -518 -485q-283 -162 -761 -162q-652 0 -998 331t-346 961q0 628 350 961q347 331 994 331q646 0 994 -331q350 -333 350 -961h-1920q0 -730 72 -892q134 -302 504 -302zM888 1346h1152q0 647 -72 803 q-135 293 -504 293q-366 0 -470 -245q-106 -251 -106 -851zM790 1346q0 621 114 889q24 57 60 104q22 28 44 50q-284 -74 -470 -251q-320 -304 -320 -890q0 -588 316 -890q192 -184 491 -257q-97 84 -155 215q-80 181 -80 932v98zM1909 2392q91 -80 148 -202 q81 -176 81 -844h570q-25 514 -318 792q-190 181 -481 254zM692 1346v-98q0 -726 78 -944q-94 53 -169 125q-285 273 -285 819q0 544 289 819q80 76 181 131q-94 -288 -94 -852zM2163 2186q88 -51 160 -119q235 -223 279 -623h-366q-6 541 -73 742zM1851 2995 q0 -77 56.5 -133.5t133.5 -56.5t133.5 56.5t56.5 133.5t-56.5 133.5t-133.5 56.5t-133.5 -56.5t-56.5 -133.5zM618 2995q0 -77 56.5 -133.5t133.5 -56.5t133.5 56.5t56.5 133.5t-56.5 133.5t-133.5 56.5t-133.5 -56.5t-56.5 -133.5zM1949 2995q0 37 27.5 64.5t64.5 27.5 t64.5 -27.5t27.5 -64.5t-27.5 -64.5t-64.5 -27.5t-64.5 27.5t-27.5 64.5zM1838 3198q85 85 203 85t203 -85t85 -203t-85 -203t-203 -85t-203 85t-85 203t85 203zM716 2995q0 37 27.5 64.5t64.5 27.5t64.5 -27.5t27.5 -64.5t-27.5 -64.5t-64.5 -27.5t-64.5 27.5t-27.5 64.5z M605 3198q85 85 203 85t203 -85t85 -203t-85 -203t-203 -85t-203 85t-85 203t85 203z" />
<glyph unicode="&#xec;" horiz-adv-x="1776" d="M120 1958h1536v-98q-384 0 -384 -336v-1090q0 -336 384 -336v-98h-1536v98q384 0 384 336v1090q0 336 -384 336v98zM461 98h854q-141 113 -141 336v1090q0 223 141 336h-854q141 -113 141 -336v-1090q0 -223 -141 -336zM655 196q45 104 45 238v1090q0 134 -45 238h466 q-45 -104 -45 -238v-1090q0 -134 45 -238h-466zM1100 2539h-202l-306 289q-142 134 -343 139v48h624q24 0 53 -38q26 -54 174 -438zM640 2917l19 -18l278 -262h20q-87 225 -111 280h-206z" />
<glyph unicode="&#xed;" horiz-adv-x="1776" d="M120 1958h1536v-98q-384 0 -384 -336v-1090q0 -336 384 -336v-98h-1536v98q384 0 384 336v1090q0 336 -384 336v98zM461 98h854q-141 113 -141 336v1090q0 223 141 336h-854q141 -113 141 -336v-1090q0 -223 -141 -336zM655 196q45 104 45 238v1090q0 134 -45 238h466 q-45 -104 -45 -238v-1090q0 -134 45 -238h-466zM681 2539q89 326 174 438q29 38 53 38h624v-48q-201 -5 -343 -139l-306 -289h-202zM812 2637h32l278 262l19 18h-209q-55 -73 -120 -280z" />
<glyph unicode="&#xee;" horiz-adv-x="1776" d="M120 1958h1536v-98q-384 0 -384 -336v-1090q0 -336 384 -336v-98h-1536v98q384 0 384 336v1090q0 336 -384 336v98zM461 98h854q-141 113 -141 336v1090q0 223 141 336h-854q141 -113 141 -336v-1090q0 -223 -141 -336zM655 196q45 104 45 238v1090q0 134 -45 238h466 q-45 -104 -45 -238v-1090q0 -134 45 -238h-466zM505 3009h767l278 -470h-184l-228 207q-138 125 -249 125q-112 0 -250 -125l-228 -207h-184zM1348 2687l-132 224h-135q60 -35 123 -92zM697 2911h-136l-132 -224l144 132q63 57 124 92z" />
<glyph unicode="&#xef;" horiz-adv-x="1776" d="M120 1958h1536v-98q-384 0 -384 -336v-1090q0 -336 384 -336v-98h-1536v98q384 0 384 336v1090q0 336 -384 336v98zM461 98h854q-141 113 -141 336v1090q0 223 141 336h-854q141 -113 141 -336v-1090q0 -223 -141 -336zM655 196q45 104 45 238v1090q0 134 -45 238h466 q-45 -104 -45 -238v-1090q0 -134 45 -238h-466zM1214 2758q0 -77 57 -133.5t134 -56.5t133 56.5t56 133.5t-56 133.5t-133 56.5t-134 -56.5t-57 -133.5zM182 2758q0 -77 56 -133.5t133 -56.5t134 56.5t57 133.5t-57 133.5t-134 56.5t-133 -56.5t-56 -133.5zM1312 2758 q0 37 28 64.5t65 27.5t64 -27.5t27 -64.5t-27 -64.5t-64 -27.5t-65 27.5t-28 64.5zM1201 2961q85 85 203 85t203 -85t85 -203t-85 -203t-203 -85t-203 85t-85 203t85 203zM280 2758q0 37 27 64.5t64 27.5t65 -27.5t28 -64.5t-28 -64.5t-65 -27.5t-64 27.5t-27 64.5z M169 2961q85 85 203 85t203 -85t85 -203t-85 -203t-203 -85t-203 85t-85 203t85 203z" />
<glyph unicode="&#xf0;" horiz-adv-x="3224" d="M1272 2398v-1030h464l-24 -240h-440v-1030h488q365 0 470 254q106 259 106 897t-106 895q-105 254 -470 254h-488zM2207 148q294 73 483 254q316 301 316 846q0 542 -320 846q-189 180 -478 253q73 -69 113 -166q113 -275 113 -933t-113 -933q-40 -98 -114 -167z M2434 2157q103 -56 185 -134q289 -275 289 -775q0 -503 -285 -775q-84 -80 -190 -136q99 297 99 911q0 612 -98 909zM1174 2398h-713q141 -113 141 -336v-1673q-9 -189 -136 -291h708v2300zM1076 2300v-2104h-417q36 85 41 190v1676q0 134 -45 238h421zM1760 0h-1640v98 q370 0 384 293v737h-360l24 240h336v694q0 336 -384 336v98h1640q646 0 994 -331q350 -333 350 -917q0 -586 -346 -917q-348 -331 -998 -331z" />
<glyph unicode="&#xf1;" horiz-adv-x="3504" d="M461 2398q141 -113 141 -336v-1628q0 -223 -141 -336h843q-130 113 -130 336v1628q0 136 -6 191q-2 19 2 36q-6 4 -12 9q-18 16 -63 70q-17 21 -29 30h-605zM3043 98q-141 113 -141 336v1198q0 128 -27 235.5t-87.5 201.5t-155 163.5t-233 119t-317.5 71.5 q248 -220 248 -839v-1150q0 -223 -130 -336h843zM504 434v1628q0 336 -384 336v98h955q43 0 96.5 -66t63.5 -66q252 176 517 176q1248 0 1248 -908v-1198q0 -336 384 -336v-98h-1496v98q344 0 344 336v1150q0 858 -480 858q-247 0 -487 -178q7 -60 7 -202v-1628 q0 -336 344 -336v-98h-1496v98q384 0 384 336zM655 2300h370q39 -48 46 -65q5 -51 5 -173v-1628q0 -134 42 -238h-463q45 104 45 238v1628q0 134 -45 238zM2849 196h-463q42 104 42 238v1150q0 439 -122 695q31 -9 108.5 -36.5t158.5 -88t132.5 -140t75 -173t23.5 -209.5 v-1198q0 -134 45 -238zM2527 3122q1 -13 1 -26q0 -429 -449 -429q-99 0 -246 53l-371 134q-141 51 -216 51q-155 0 -188 -172h-98q-4 33 -4 63q0 416 436 416q111 0 262 -55l370 -135q121 -44 200 -44q145 0 205 144h98zM2405 2935q-66 -51 -172 -51q-117 0 -243 46 l-370 135q-135 49 -247 49q-233 0 -295 -161q58 46 159 46q111 0 258 -53l371 -134q131 -47 241 -47q234 0 298 170z" />
<glyph unicode="&#xf2;" d="M866 344q-76 267 -76 904t76 904q41 145 138 236q-282 -74 -466 -250q-320 -304 -320 -890q0 -588 317 -891q185 -177 470 -251q-98 92 -139 238zM1912 2391q73 -69 113 -166q113 -275 113 -977t-113 -977q-40 -98 -114 -167q294 73 483 254q316 301 316 890 q0 586 -320 890q-188 180 -478 253zM771 318l6 -18q-97 54 -175 128q-286 274 -286 820q0 544 289 819q76 73 171 126l-5 -15q-79 -280 -79 -930t79 -930zM2137 293q99 301 99 955q0 652 -98 953q103 -56 185 -134q289 -275 289 -819q0 -547 -285 -819q-84 -80 -190 -136z M1464 -44q-652 0 -998 331t-346 961q0 628 350 961q347 331 994 331q646 0 994 -331q350 -333 350 -961q0 -630 -346 -961q-348 -331 -998 -331zM1464 54q365 0 470 254q106 259 106 940q0 683 -106 940q-105 254 -470 254q-414 0 -504 -317q-72 -254 -72 -877t72 -877 q90 -317 504 -317zM1774 2679h-202l-306 289q-142 134 -343 139v48h624q24 0 53 -38q26 -54 174 -438zM1314 3057l19 -18l278 -262h20q-87 225 -111 280h-206z" />
<glyph unicode="&#xf3;" d="M866 344q-76 267 -76 904t76 904q41 145 138 236q-282 -74 -466 -250q-320 -304 -320 -890q0 -588 317 -891q185 -177 470 -251q-98 92 -139 238zM1912 2391q73 -69 113 -166q113 -275 113 -977t-113 -977q-40 -98 -114 -167q294 73 483 254q316 301 316 890 q0 586 -320 890q-188 180 -478 253zM771 318l6 -18q-97 54 -175 128q-286 274 -286 820q0 544 289 819q76 73 171 126l-5 -15q-79 -280 -79 -930t79 -930zM2137 293q99 301 99 955q0 652 -98 953q103 -56 185 -134q289 -275 289 -819q0 -547 -285 -819q-84 -80 -190 -136z M1464 -44q-652 0 -998 331t-346 961q0 628 350 961q347 331 994 331q646 0 994 -331q350 -333 350 -961q0 -630 -346 -961q-348 -331 -998 -331zM1464 54q365 0 470 254q106 259 106 940q0 683 -106 940q-105 254 -470 254q-414 0 -504 -317q-72 -254 -72 -877t72 -877 q90 -317 504 -317zM1295 2679q89 326 174 438q29 38 53 38h624v-48q-201 -5 -343 -139l-306 -289h-202zM1426 2777h32l278 262l19 18h-209q-55 -73 -120 -280z" />
<glyph unicode="&#xf4;" d="M866 344q-76 267 -76 904t76 904q41 145 138 236q-282 -74 -466 -250q-320 -304 -320 -890q0 -588 317 -891q185 -177 470 -251q-98 92 -139 238zM1912 2391q73 -69 113 -166q113 -275 113 -977t-113 -977q-40 -98 -114 -167q294 73 483 254q316 301 316 890 q0 586 -320 890q-188 180 -478 253zM771 318l6 -18q-97 54 -175 128q-286 274 -286 820q0 544 289 819q76 73 171 126l-5 -15q-79 -280 -79 -930t79 -930zM2137 293q99 301 99 955q0 652 -98 953q103 -56 185 -134q289 -275 289 -819q0 -547 -285 -819q-84 -80 -190 -136z M1464 -44q-652 0 -998 331t-346 961q0 628 350 961q347 331 994 331q646 0 994 -331q350 -333 350 -961q0 -630 -346 -961q-348 -331 -998 -331zM1464 54q365 0 470 254q106 259 106 940q0 683 -106 940q-105 254 -470 254q-414 0 -504 -317q-72 -254 -72 -877t72 -877 q90 -317 504 -317zM1081 3149h767l278 -470h-184l-228 207q-138 125 -249 125q-112 0 -250 -125l-228 -207h-184zM1924 2827l-132 224h-135q60 -35 123 -92zM1273 3051h-136l-132 -224l144 132q63 57 124 92z" />
<glyph unicode="&#xf5;" d="M866 344q-76 267 -76 904t76 904q41 145 138 236q-282 -74 -466 -250q-320 -304 -320 -890q0 -588 317 -891q185 -177 470 -251q-98 92 -139 238zM1912 2391q73 -69 113 -166q113 -275 113 -977t-113 -977q-40 -98 -114 -167q294 73 483 254q316 301 316 890 q0 586 -320 890q-188 180 -478 253zM771 318l6 -18q-97 54 -175 128q-286 274 -286 820q0 544 289 819q76 73 171 126l-5 -15q-79 -280 -79 -930t79 -930zM2137 293q99 301 99 955q0 652 -98 953q103 -56 185 -134q289 -275 289 -819q0 -547 -285 -819q-84 -80 -190 -136z M1464 -44q-652 0 -998 331t-346 961q0 628 350 961q347 331 994 331q646 0 994 -331q350 -333 350 -961q0 -630 -346 -961q-348 -331 -998 -331zM1464 54q365 0 470 254q106 259 106 940q0 683 -106 940q-105 254 -470 254q-414 0 -504 -317q-72 -254 -72 -877t72 -877 q90 -317 504 -317zM2236 3108q1 -13 1 -26q0 -429 -449 -429q-99 0 -246 53l-371 134q-141 51 -216 51q-155 0 -188 -172h-98q-4 33 -4 63q0 416 436 416q111 0 262 -55l370 -135q121 -44 200 -44q145 0 205 144h98zM2114 2921q-66 -51 -172 -51q-117 0 -243 46l-370 135 q-135 49 -247 49q-233 0 -295 -161q58 46 159 46q111 0 258 -53l371 -134q131 -47 241 -47q234 0 298 170z" />
<glyph unicode="&#xf6;" d="M866 344q-76 267 -76 904t76 904q41 145 138 236q-282 -74 -466 -250q-320 -304 -320 -890q0 -588 317 -891q185 -177 470 -251q-98 92 -139 238zM1912 2391q73 -69 113 -166q113 -275 113 -977t-113 -977q-40 -98 -114 -167q294 73 483 254q316 301 316 890 q0 586 -320 890q-188 180 -478 253zM771 318l6 -18q-97 54 -175 128q-286 274 -286 820q0 544 289 819q76 73 171 126l-5 -15q-79 -280 -79 -930t79 -930zM2137 293q99 301 99 955q0 652 -98 953q103 -56 185 -134q289 -275 289 -819q0 -547 -285 -819q-84 -80 -190 -136z M1464 -44q-652 0 -998 331t-346 961q0 628 350 961q347 331 994 331q646 0 994 -331q350 -333 350 -961q0 -630 -346 -961q-348 -331 -998 -331zM1464 54q365 0 470 254q106 259 106 940q0 683 -106 940q-105 254 -470 254q-414 0 -504 -317q-72 -254 -72 -877t72 -877 q90 -317 504 -317zM1891 2995q0 -77 56.5 -133.5t133.5 -56.5t133.5 56.5t56.5 133.5t-56.5 133.5t-133.5 56.5t-133.5 -56.5t-56.5 -133.5zM658 2995q0 -77 56.5 -133.5t133.5 -56.5t133.5 56.5t56.5 133.5t-56.5 133.5t-133.5 56.5t-133.5 -56.5t-56.5 -133.5zM1989 2995 q0 37 27.5 64.5t64.5 27.5t64.5 -27.5t27.5 -64.5t-27.5 -64.5t-64.5 -27.5t-64.5 27.5t-27.5 64.5zM1878 3198q85 85 203 85t203 -85t85 -203t-85 -203t-203 -85t-203 85t-85 203t85 203zM756 2995q0 37 27.5 64.5t64.5 27.5t64.5 -27.5t27.5 -64.5t-27.5 -64.5 t-64.5 -27.5t-64.5 27.5t-27.5 64.5zM645 3198q85 85 203 85t203 -85t85 -203t-85 -203t-203 -85t-203 85t-85 203t85 203z" />
<glyph unicode="&#xf7;" horiz-adv-x="2376" d="M2143 1248l5 44h-1915l-5 -44h1915zM842 2206q0 -117 84.5 -201.5t201.5 -84.5t201.5 84.5t84.5 201.5t-84.5 201.5t-201.5 84.5t-201.5 -84.5t-84.5 -201.5zM842 286q0 -117 84.5 -201.5t201.5 -84.5t201.5 84.5t84.5 201.5t-84.5 201.5t-201.5 84.5t-201.5 -84.5 t-84.5 -201.5zM940 2206q0 77 55.5 132.5t132.5 55.5t132.5 -55.5t55.5 -132.5t-55.5 -132.5t-132.5 -55.5t-132.5 55.5t-55.5 132.5zM857 2477q113 113 271 113t271 -113t113 -271t-113 -271t-271 -113t-271 113t-113 271t113 271zM940 286q0 77 55.5 132.5t132.5 55.5 t132.5 -55.5t55.5 -132.5t-55.5 -132.5t-132.5 -55.5t-132.5 55.5t-55.5 132.5zM857 557q113 113 271 113t271 -113t113 -271t-113 -271t-271 -113t-271 113t-113 271t113 271zM2232 1150h-2112l24 240h2112z" />
<glyph unicode="&#xf8;" d="M866 344q-76 267 -76 904t76 904q41 145 138 236q-282 -74 -466 -250q-320 -304 -320 -890q0 -588 317 -891q185 -177 470 -251q-98 92 -139 238zM1912 2391q73 -69 113 -166q113 -275 113 -977t-113 -977q-40 -98 -114 -167q294 73 483 254q316 301 316 890 q0 586 -320 890q-188 180 -478 253zM771 318l6 -18q-97 54 -175 128q-286 274 -286 820q0 544 289 819q76 73 171 126l-5 -15q-79 -280 -79 -930t79 -930zM2137 293q99 301 99 955q0 652 -98 953q103 -56 185 -134q289 -275 289 -819q0 -547 -285 -819q-84 -80 -190 -136z M1464 54q365 0 470 254q106 259 106 940q0 257 -15 454l-1108 -1094q17 -144 43 -237q90 -317 504 -317zM262 -38l-68 70l265 262q-339 331 -339 954q0 628 350 961q347 331 994 331q618 0 963 -303l303 299l68 -70l-300 -297q310 -330 310 -921q0 -630 -346 -961 q-348 -331 -998 -331q-592 0 -932 273zM905 734l1108 1094q-26 232 -79 360q-105 254 -470 254q-414 0 -504 -317q-72 -254 -72 -877q0 -300 17 -514z" />
<glyph unicode="&#xf9;" horiz-adv-x="3444" d="M2983 98q-141 113 -141 336v1997q-180 -77 -572 -86v-1911q0 -112 7 -194q4 -51 60 -112q21 -23 34 -30h612zM401 2398q141 -113 141 -336v-1198q0 -124 25 -227.5t81 -195.5t143 -161.5t214.5 -120.5t291.5 -77q-183 158 -183 496v1484q0 203 -42 291q-20 45 -52 45 h-619zM2940 434q0 -336 384 -336v-98h-960q-43 0 -99.5 62.5t-66.5 62.5q-247 -169 -506 -169q-1248 0 -1248 908v1198q0 336 -384 336v98h960q192 0 192 -434v-1484q0 -524 480 -524q247 0 487 178q-7 86 -7 202v2008q504 0 672 99l96 -1v-2106zM2789 196h-381 q-32 37 -34 52q-6 78 -6 186v1816q225 10 376 46v-1862q0 -134 45 -238zM595 2300h393q28 -76 28 -238v-1484q0 -195 57 -340l-31 12q-114 45 -190 106q-73 59 -120 136q-48 79 -70 167q-22 93 -22 205v1198q0 134 -45 238zM1854 2679h-202l-306 289q-142 134 -343 139v48 h624q24 0 53 -38q26 -54 174 -438zM1394 3057l19 -18l278 -262h20q-87 225 -111 280h-206z" />
<glyph unicode="&#xfa;" horiz-adv-x="3444" d="M2983 98q-141 113 -141 336v1997q-180 -77 -572 -86v-1911q0 -112 7 -194q4 -51 60 -112q21 -23 34 -30h612zM401 2398q141 -113 141 -336v-1198q0 -124 25 -227.5t81 -195.5t143 -161.5t214.5 -120.5t291.5 -77q-183 158 -183 496v1484q0 203 -42 291q-20 45 -52 45 h-619zM2940 434q0 -336 384 -336v-98h-960q-43 0 -99.5 62.5t-66.5 62.5q-247 -169 -506 -169q-1248 0 -1248 908v1198q0 336 -384 336v98h960q192 0 192 -434v-1484q0 -524 480 -524q247 0 487 178q-7 86 -7 202v2008q504 0 672 99l96 -1v-2106zM2789 196h-381 q-32 37 -34 52q-6 78 -6 186v1816q225 10 376 46v-1862q0 -134 45 -238zM595 2300h393q28 -76 28 -238v-1484q0 -195 57 -340l-31 12q-114 45 -190 106q-73 59 -120 136q-48 79 -70 167q-22 93 -22 205v1198q0 134 -45 238zM1513 2679q89 326 174 438q29 38 53 38h624v-48 q-201 -5 -343 -139l-306 -289h-202zM1644 2777h32l278 262l19 18h-209q-55 -73 -120 -280z" />
<glyph unicode="&#xfb;" horiz-adv-x="3444" d="M2983 98q-141 113 -141 336v1997q-180 -77 -572 -86v-1911q0 -112 7 -194q4 -51 60 -112q21 -23 34 -30h612zM401 2398q141 -113 141 -336v-1198q0 -124 25 -227.5t81 -195.5t143 -161.5t214.5 -120.5t291.5 -77q-183 158 -183 496v1484q0 203 -42 291q-20 45 -52 45 h-619zM2940 434q0 -336 384 -336v-98h-960q-43 0 -99.5 62.5t-66.5 62.5q-247 -169 -506 -169q-1248 0 -1248 908v1198q0 336 -384 336v98h960q192 0 192 -434v-1484q0 -524 480 -524q247 0 487 178q-7 86 -7 202v2008q504 0 672 99l96 -1v-2106zM2789 196h-381 q-32 37 -34 52q-6 78 -6 186v1816q225 10 376 46v-1862q0 -134 45 -238zM595 2300h393q28 -76 28 -238v-1484q0 -195 57 -340l-31 12q-114 45 -190 106q-73 59 -120 136q-48 79 -70 167q-22 93 -22 205v1198q0 134 -45 238zM1309 3149h767l278 -470h-184l-228 207 q-138 125 -249 125q-112 0 -250 -125l-228 -207h-184zM2152 2827l-132 224h-135q60 -35 123 -92zM1501 3051h-136l-132 -224l144 132q63 57 124 92z" />
<glyph unicode="&#xfc;" horiz-adv-x="3444" d="M2983 98q-141 113 -141 336v1997q-180 -77 -572 -86v-1911q0 -112 7 -194q4 -51 60 -112q21 -23 34 -30h612zM401 2398q141 -113 141 -336v-1198q0 -124 25 -227.5t81 -195.5t143 -161.5t214.5 -120.5t291.5 -77q-183 158 -183 496v1484q0 203 -42 291q-20 45 -52 45 h-619zM2940 434q0 -336 384 -336v-98h-960q-43 0 -99.5 62.5t-66.5 62.5q-247 -169 -506 -169q-1248 0 -1248 908v1198q0 336 -384 336v98h960q192 0 192 -434v-1484q0 -524 480 -524q247 0 487 178q-7 86 -7 202v2008q504 0 672 99l96 -1v-2106zM2789 196h-381 q-32 37 -34 52q-6 78 -6 186v1816q225 10 376 46v-1862q0 -134 45 -238zM595 2300h393q28 -76 28 -238v-1484q0 -195 57 -340l-31 12q-114 45 -190 106q-73 59 -120 136q-48 79 -70 167q-22 93 -22 205v1198q0 134 -45 238zM2111 2995q0 -77 56.5 -133.5t133.5 -56.5 t133.5 56.5t56.5 133.5t-56.5 133.5t-133.5 56.5t-133.5 -56.5t-56.5 -133.5zM878 2995q0 -77 56.5 -133.5t133.5 -56.5t133.5 56.5t56.5 133.5t-56.5 133.5t-133.5 56.5t-133.5 -56.5t-56.5 -133.5zM2209 2995q0 37 27.5 64.5t64.5 27.5t64.5 -27.5t27.5 -64.5t-27.5 -64.5 t-64.5 -27.5t-64.5 27.5t-27.5 64.5zM2098 3198q85 85 203 85t203 -85t85 -203t-85 -203t-203 -85t-203 85t-85 203t85 203zM976 2995q0 37 27.5 64.5t64.5 27.5t64.5 -27.5t27.5 -64.5t-27.5 -64.5t-64.5 -27.5t-64.5 27.5t-27.5 64.5zM865 3198q85 85 203 85t203 -85 t85 -203t-85 -203t-203 -85t-203 85t-85 203t85 203z" />
<glyph unicode="&#xfd;" horiz-adv-x="3026" d="M2450 2398q35 -35 49 -82q44 47 93 82h-142zM1992 98q-141 113 -141 336v719q-44 7 -68 48l-513 893q-63 121 -120.5 196t-102.5 99q-16 8 -32 9h-624q119 -82 201 -228l675 -1210q12 -22 12 -48v-478q0 -223 -141 -336h854zM1868 1250l511 891q32 56 32 109 q0 145 -301 148v98h796v-98q-269 0 -427 -276l-530 -927v-761q0 -336 384 -336v-98h-1536v98q384 0 384 336v478l-675 1210q-154 276 -446 276v98h955q157 0 341 -355zM1798 196h-466q45 104 45 238v478q0 51 -25 95l-675 1210q-24 44 -52 83h379q27 -16 68 -70 q52 -68 112 -183l514 -895q22 -38 55 -62v-656q0 -134 45 -238zM1305 2679q89 326 174 438q29 38 53 38h624v-48q-201 -5 -343 -139l-306 -289h-202zM1436 2777h32l278 262l19 18h-209q-55 -73 -120 -280z" />
<glyph unicode="&#xfe;" horiz-adv-x="3120" d="M1174 2062q0 68 3 107q13 146 118 229h-834q141 -113 141 -336v-1628q0 -223 -141 -336h854q-141 114 -141 336v1628zM2073 2039q37 -27 71 -65q58 -61 97.5 -142t64 -200t24.5 -264t-24.5 -264t-64.5 -200q-39 -81 -97 -142q-37 -39 -75 -67q312 35 477 131 q180 105 268 239t88 303q0 267 -363 523q-154 108 -466 148zM120 2496h1536v-98q-360 0 -381 -238h381q670 0 939 -189q405 -285 405 -603q0 -391 -405 -627q-283 -165 -939 -165h-384v-142q0 -336 384 -336v-98h-1536v98q384 0 384 336v1628q0 336 -384 336v98zM1272 2062 v-1388h384q576 0 576 694t-576 694h-384zM1076 2062v-1628q0 -134 45 -238h-466q45 104 45 238v1628q0 134 -45 238h452q-21 -57 -27 -123q-4 -42 -4 -115zM2318 839l11 22q45 92 72 223q27 129 27 284t-27 284q-26 131 -72 223l-5 11q96 -32 158 -75q322 -227 322 -443 q0 -139 -72 -249q-76 -116 -236 -209q-71 -42 -178 -71z" />
<glyph unicode="&#xff;" horiz-adv-x="3026" d="M2450 2398q35 -35 49 -82q44 47 93 82h-142zM1992 98q-141 113 -141 336v719q-44 7 -68 48l-513 893q-63 121 -120.5 196t-102.5 99q-16 8 -32 9h-624q119 -82 201 -228l675 -1210q12 -22 12 -48v-478q0 -223 -141 -336h854zM1868 1250l511 891q32 56 32 109 q0 145 -301 148v98h796v-98q-269 0 -427 -276l-530 -927v-761q0 -336 384 -336v-98h-1536v98q384 0 384 336v478l-675 1210q-154 276 -446 276v98h955q157 0 341 -355zM1798 196h-466q45 104 45 238v478q0 51 -25 95l-675 1210q-24 44 -52 83h379q27 -16 68 -70 q52 -68 112 -183l514 -895q22 -38 55 -62v-656q0 -134 45 -238zM1931 2995q0 -77 56.5 -133.5t133.5 -56.5t133.5 56.5t56.5 133.5t-56.5 133.5t-133.5 56.5t-133.5 -56.5t-56.5 -133.5zM698 2995q0 -77 56.5 -133.5t133.5 -56.5t133.5 56.5t56.5 133.5t-56.5 133.5 t-133.5 56.5t-133.5 -56.5t-56.5 -133.5zM2029 2995q0 37 27.5 64.5t64.5 27.5t64.5 -27.5t27.5 -64.5t-27.5 -64.5t-64.5 -27.5t-64.5 27.5t-27.5 64.5zM1918 3198q85 85 203 85t203 -85t85 -203t-85 -203t-203 -85t-203 85t-85 203t85 203zM796 2995q0 37 27.5 64.5 t64.5 27.5t64.5 -27.5t27.5 -64.5t-27.5 -64.5t-64.5 -27.5t-64.5 27.5t-27.5 64.5zM685 3198q85 85 203 85t203 -85t85 -203t-85 -203t-203 -85t-203 85t-85 203t85 203z" />
<glyph unicode="&#x152;" horiz-adv-x="4848" d="M2734 1346q0 769 177 996q-203 -82 -405 -230q-63 -46 -122 5q-193 166 -421 247q54 -60 86 -139q113 -274 113 -977q-2 -580 -33 -749q-38 -202 -85.5 -267t-106.5 -117q249 73 449 235q64 51 126 -2q203 -175 481 -246q-119 97 -156.5 172t-57 177t-28.5 240 q-16 237 -17 557v98zM1058 100q-70 57 -108 109.5t-42 61.5q-94 187 -94 900.5t76 980.5q41 145 138 236q-282 -74 -466 -250q-320 -305 -320 -891.5t316 -888.5q195 -186 500 -258zM3853 2392q91 -80 160 -229t69 -817h570q-25 513 -318 792q-190 181 -481 254zM3408 -44 q-591 0 -960 318q-394 -318 -960 -318q-652 0 -998 331t-346 961q0 628 350 961q346 331 994 331q554 0 960 -349q473 349 960 349q647 0 994 -331q350 -333 350 -961h-1920q0 -802 96 -934q189 -259 480 -260q349 0 653 170q303 169 483 452l83 -53q-194 -304 -518 -485 q-327 -182 -701 -182zM2832 1346h1152q0 647 -72 803q-135 293 -504 293q-366 0 -470 -245q-106 -251 -106 -851zM1488 2442q-414 0 -504 -317q-72 -254 -72 -877q0 -823 96 -954q176 -240 480 -240t480 240q96 131 96 954q0 684 -106 940q-105 254 -470 254zM2636 1346v-98 q1 -324 17 -564q10 -143 30 -251q11 -57 27 -108q-71 43 -134 97q-44 30 -45 31q-40 20 -83 20q-12 -2 -27.5 -4t-20.5 -3t-13 -4t-19 -8q-22 -10 -43 -27q-64 -52 -133 -94q17 63 33 148q34 183 35 767q0 598 -83 901q74 -48 143 -107q44 -29 45 -30q39 -20 82 -20l20 4 l27 4q13 2 17 4q27 10 53 29q74 54 147 99q-75 -282 -75 -786zM789 307q-91 52 -164 122q-285 273 -285 817.5t289 820.5q77 73 171 126l-5 -15q-79 -280 -79 -1007q0 -624 73 -864zM4111 2185q86 -50 156 -118q235 -224 279 -623h-366q-4 570 -69 741z" />
<glyph unicode="&#x153;" horiz-adv-x="4848" d="M2710 1346q0 769 177 996q-203 -82 -405 -230q-63 -46 -122 5q-193 166 -421 247q54 -60 86 -139q113 -274 113 -977q-2 -580 -33 -749q-38 -202 -85.5 -267t-106.5 -117q249 73 449 235q64 51 126 -2q203 -175 481 -246q-119 97 -156.5 172t-57 177t-28.5 240 q-16 237 -17 557v98zM1034 100q-70 57 -108 109.5t-42 61.5q-94 187 -94 900.5t76 980.5q41 145 138 236q-282 -74 -466 -250q-320 -305 -320 -891.5t316 -888.5q195 -186 500 -258zM3829 2392q91 -80 160 -229t69 -817h570q-25 513 -318 792q-190 181 -481 254zM3384 -44 q-591 0 -960 318q-394 -318 -960 -318q-652 0 -998 331t-346 961q0 628 350 961q346 331 994 331q554 0 960 -349q473 349 960 349q647 0 994 -331q350 -333 350 -961h-1920q0 -802 96 -934q189 -259 480 -260q349 0 653 170q303 169 483 452l83 -53q-194 -304 -518 -485 q-327 -182 -701 -182zM2808 1346h1152q0 647 -72 803q-135 293 -504 293q-366 0 -470 -245q-106 -251 -106 -851zM1464 2442q-414 0 -504 -317q-72 -254 -72 -877q0 -823 96 -954q176 -240 480 -240t480 240q96 131 96 954q0 684 -106 940q-105 254 -470 254zM2612 1346v-98 q1 -324 17 -564q10 -143 30 -251q11 -57 27 -108q-71 43 -134 97q-44 30 -45 31q-40 20 -83 20q-12 -2 -27.5 -4t-20.5 -3t-13 -4t-19 -8q-22 -10 -43 -27q-64 -52 -133 -94q17 63 33 148q34 183 35 767q0 598 -83 901q74 -48 143 -107q44 -29 45 -30q39 -20 82 -20l20 4 l27 4q13 2 17 4q27 10 53 29q74 54 147 99q-75 -282 -75 -786zM765 307q-91 52 -164 122q-285 273 -285 817.5t289 820.5q77 73 171 126l-5 -15q-79 -280 -79 -1007q0 -624 73 -864zM4087 2185q86 -50 156 -118q235 -224 279 -623h-366q-4 570 -69 741z" />
<glyph unicode="&#x178;" horiz-adv-x="3026" d="M1931 2995q0 -77 56.5 -133.5t133.5 -56.5t133.5 56.5t56.5 133.5t-56.5 133.5t-133.5 56.5t-133.5 -56.5t-56.5 -133.5zM698 2995q0 -77 56.5 -133.5t133.5 -56.5t133.5 56.5t56.5 133.5t-56.5 133.5t-133.5 56.5t-133.5 -56.5t-56.5 -133.5zM2029 2995q0 37 27.5 64.5 t64.5 27.5t64.5 -27.5t27.5 -64.5t-27.5 -64.5t-64.5 -27.5t-64.5 27.5t-27.5 64.5zM1918 3198q85 85 203 85t203 -85t85 -203t-85 -203t-203 -85t-203 85t-85 203t85 203zM796 2995q0 37 27.5 64.5t64.5 27.5t64.5 -27.5t27.5 -64.5t-27.5 -64.5t-64.5 -27.5t-64.5 27.5 t-27.5 64.5zM685 3198q85 85 203 85t203 -85t85 -203t-85 -203t-203 -85t-203 85t-85 203t85 203zM2450 2398q35 -35 49 -82q44 47 93 82h-142zM1992 98q-141 113 -141 336v719q-44 7 -68 48l-513 893q-63 121 -120.5 196t-102.5 99q-16 8 -32 9h-624q119 -82 201 -228 l675 -1210q12 -22 12 -48v-478q0 -223 -141 -336h854zM1868 1250l511 891q32 56 32 109q0 145 -301 148v98h796v-98q-269 0 -427 -276l-530 -927v-761q0 -336 384 -336v-98h-1536v98q384 0 384 336v478l-675 1210q-154 276 -446 276v98h955q157 0 341 -355zM1798 196h-466 q45 104 45 238v478q0 51 -25 95l-675 1210q-24 44 -52 83h379q27 -16 68 -70q52 -68 112 -183l514 -895q22 -38 55 -62v-656q0 -134 45 -238z" />
<glyph unicode="&#x2c6;" horiz-adv-x="3264" d="M1249 3149h767l278 -470h-184l-228 207q-138 125 -249 125q-112 0 -250 -125l-228 -207h-184zM2092 2827l-132 224h-135q60 -35 123 -92zM1441 3051h-136l-132 -224l144 132q63 57 124 92z" />
<glyph unicode="&#x2dc;" horiz-adv-x="2360" d="M1828 3108q1 -13 1 -26q0 -429 -449 -429q-99 0 -246 53l-371 134q-141 51 -216 51q-155 0 -188 -172h-98q-4 33 -4 63q0 416 436 416q111 0 262 -55l370 -135q121 -44 200 -44q145 0 205 144h98zM1706 2921q-66 -51 -172 -51q-117 0 -243 46l-370 135q-135 49 -247 49 q-233 0 -295 -161q58 46 159 46q111 0 258 -53l371 -134q131 -47 241 -47q234 0 298 170z" />
<glyph unicode="&#x2000;" horiz-adv-x="1724" />
<glyph unicode="&#x2001;" horiz-adv-x="3448" />
<glyph unicode="&#x2002;" horiz-adv-x="1724" />
<glyph unicode="&#x2003;" horiz-adv-x="3448" />
<glyph unicode="&#x2004;" horiz-adv-x="1149" />
<glyph unicode="&#x2005;" horiz-adv-x="862" />
<glyph unicode="&#x2006;" horiz-adv-x="574" />
<glyph unicode="&#x2007;" horiz-adv-x="574" />
<glyph unicode="&#x2008;" horiz-adv-x="431" />
<glyph unicode="&#x2009;" horiz-adv-x="689" />
<glyph unicode="&#x200a;" horiz-adv-x="191" />
<glyph unicode="&#x2010;" horiz-adv-x="1960" d="M1816 1152h-1696l24 192h1696z" />
<glyph unicode="&#x2011;" horiz-adv-x="1960" d="M1816 1152h-1696l24 192h1696z" />
<glyph unicode="&#x2012;" horiz-adv-x="1960" d="M1816 1152h-1696l24 192h1696z" />
<glyph unicode="&#x2013;" horiz-adv-x="2048" d="M120 1152v192h1808v-192h-1808z" />
<glyph unicode="&#x2014;" horiz-adv-x="4096" d="M120 1152v192h3856v-192h-3856z" />
<glyph unicode="&#x2018;" horiz-adv-x="1008" d="M888 2622q0 -158 -113 -271t-271 -113t-271 113t-113 271q0 372 175 600q173 226 387 226v-98q-106 0 -202 -78.5t-96 -169.5q0 -96 120 -96q158 0 271 -113t113 -271zM790 2622q0 117 -84.5 201.5t-201.5 84.5q-34 0 -62 6q-113 23 -146 121q-78 -171 -78 -413 q0 -117 84.5 -201.5t201.5 -84.5t201.5 84.5t84.5 201.5zM692 2622q0 -77 -55.5 -132.5t-132.5 -55.5t-132.5 55.5t-55.5 132.5q0 122 22 224q38 -19 84 -28q39 -8 82 -8q77 0 132.5 -55.5t55.5 -132.5z" />
<glyph unicode="&#x2019;" horiz-adv-x="1008" d="M120 3064q0 158 113 271t271 113t271 -113t113 -271q0 -372 -175 -600q-173 -226 -387 -226v98q106 0 202 78.5t96 169.5q0 96 -120 96q-158 0 -271 113t-113 271zM218 3064q0 -117 84.5 -201.5t201.5 -84.5q34 0 62 -6q113 -23 146 -121q78 171 78 413 q0 117 -84.5 201.5t-201.5 84.5t-201.5 -84.5t-84.5 -201.5zM316 3064q0 77 55.5 132.5t132.5 55.5t132.5 -55.5t55.5 -132.5q0 -122 -22 -224q-38 19 -84 28q-39 8 -82 8q-77 0 -132.5 55.5t-55.5 132.5z" />
<glyph unicode="&#x201a;" horiz-adv-x="1008" d="M120 48q0 158 113 271t271 113t271 -113t113 -271q0 -372 -175 -600q-173 -226 -387 -226v98q106 0 202 78.5t96 169.5q0 96 -120 96q-158 0 -271 113t-113 271zM218 48q0 -117 84.5 -201.5t201.5 -84.5q34 0 62 -6q113 -23 146 -121q78 171 78 413q0 117 -84.5 201.5 t-201.5 84.5t-201.5 -84.5t-84.5 -201.5zM316 48q0 77 55.5 132.5t132.5 55.5t132.5 -55.5t55.5 -132.5q0 -122 -22 -224q-38 19 -84 28q-39 8 -82 8q-77 0 -132.5 55.5t-55.5 132.5z" />
<glyph unicode="&#x201c;" horiz-adv-x="1872" d="M888 2622q0 -158 -113 -271t-271 -113t-271 113t-113 271q0 372 175 600q173 226 387 226v-98q-106 0 -202 -78.5t-96 -169.5q0 -96 120 -96q158 0 271 -113t113 -271zM790 2622q0 117 -84.5 201.5t-201.5 84.5q-34 0 -62 6q-113 23 -146 121q-78 -171 -78 -413 q0 -117 84.5 -201.5t201.5 -84.5t201.5 84.5t84.5 201.5zM692 2622q0 -77 -55.5 -132.5t-132.5 -55.5t-132.5 55.5t-55.5 132.5q0 122 22 224q38 -19 84 -28q39 -8 82 -8q77 0 132.5 -55.5t55.5 -132.5zM1752 2622q0 -158 -113 -271t-271 -113t-271 113t-113 271 q0 372 175 600q173 226 387 226v-98q-106 0 -202 -78.5t-96 -169.5q0 -96 120 -96q158 0 271 -113t113 -271zM1654 2622q0 117 -84.5 201.5t-201.5 84.5q-34 0 -62 6q-113 23 -146 121q-78 -171 -78 -413q0 -117 84.5 -201.5t201.5 -84.5t201.5 84.5t84.5 201.5zM1556 2622 q0 -77 -55.5 -132.5t-132.5 -55.5t-132.5 55.5t-55.5 132.5q0 122 22 224q38 -19 84 -28q39 -8 82 -8q77 0 132.5 -55.5t55.5 -132.5z" />
<glyph unicode="&#x201d;" horiz-adv-x="1872" d="M120 3064q0 158 113 271t271 113t271 -113t113 -271q0 -372 -175 -600q-173 -226 -387 -226v98q106 0 202 78.5t96 169.5q0 96 -120 96q-158 0 -271 113t-113 271zM218 3064q0 -117 84.5 -201.5t201.5 -84.5q34 0 62 -6q113 -23 146 -121q78 171 78 413 q0 117 -84.5 201.5t-201.5 84.5t-201.5 -84.5t-84.5 -201.5zM316 3064q0 77 55.5 132.5t132.5 55.5t132.5 -55.5t55.5 -132.5q0 -122 -22 -224q-38 19 -84 28q-39 8 -82 8q-77 0 -132.5 55.5t-55.5 132.5zM984 3064q0 158 113 271t271 113t271 -113t113 -271 q0 -372 -175 -600q-173 -226 -387 -226v98q106 0 202 78.5t96 169.5q0 96 -120 96q-158 0 -271 113t-113 271zM1082 3064q0 -117 84.5 -201.5t201.5 -84.5q34 0 62 -6q113 -23 146 -121q78 171 78 413q0 117 -84.5 201.5t-201.5 84.5t-201.5 -84.5t-84.5 -201.5zM1180 3064 q0 77 55.5 132.5t132.5 55.5t132.5 -55.5t55.5 -132.5q0 -122 -22 -224q-38 19 -84 28q-39 8 -82 8q-77 0 -132.5 55.5t-55.5 132.5z" />
<glyph unicode="&#x201e;" horiz-adv-x="1872" d="M120 48q0 158 113 271t271 113t271 -113t113 -271q0 -372 -175 -600q-173 -226 -387 -226v98q106 0 202 78.5t96 169.5q0 96 -120 96q-158 0 -271 113t-113 271zM218 48q0 -117 84.5 -201.5t201.5 -84.5q34 0 62 -6q113 -23 146 -121q78 171 78 413q0 117 -84.5 201.5 t-201.5 84.5t-201.5 -84.5t-84.5 -201.5zM316 48q0 77 55.5 132.5t132.5 55.5t132.5 -55.5t55.5 -132.5q0 -122 -22 -224q-38 19 -84 28q-39 8 -82 8q-77 0 -132.5 55.5t-55.5 132.5zM984 48q0 158 113 271t271 113t271 -113t113 -271q0 -372 -175 -600q-173 -226 -387 -226 v98q106 0 202 78.5t96 169.5q0 96 -120 96q-158 0 -271 113t-113 271zM1082 48q0 -117 84.5 -201.5t201.5 -84.5q34 0 62 -6q113 -23 146 -121q78 171 78 413q0 117 -84.5 201.5t-201.5 84.5t-201.5 -84.5t-84.5 -201.5zM1180 48q0 77 55.5 132.5t132.5 55.5t132.5 -55.5 t55.5 -132.5q0 -122 -22 -224q-38 19 -84 28q-39 8 -82 8q-77 0 -132.5 55.5t-55.5 132.5z" />
<glyph unicode="&#x2026;" d="M1178 288q0 -117 84.5 -201.5t201.5 -84.5t201.5 84.5t84.5 201.5t-84.5 201.5t-201.5 84.5t-201.5 -84.5t-84.5 -201.5zM1276 288q0 77 55.5 132.5t132.5 55.5t132.5 -55.5t55.5 -132.5t-55.5 -132.5t-132.5 -55.5t-132.5 55.5t-55.5 132.5zM1193 559q113 113 271 113 t271 -113t113 -271t-113 -271t-271 -113t-271 113t-113 271t113 271zM2138 288q0 -117 84.5 -201.5t201.5 -84.5t201.5 84.5t84.5 201.5t-84.5 201.5t-201.5 84.5t-201.5 -84.5t-84.5 -201.5zM2236 288q0 77 55.5 132.5t132.5 55.5t132.5 -55.5t55.5 -132.5t-55.5 -132.5 t-132.5 -55.5t-132.5 55.5t-55.5 132.5zM2153 559q113 113 271 113t271 -113t113 -271t-113 -271t-271 -113t-271 113t-113 271t113 271zM218 288q0 -117 84.5 -201.5t201.5 -84.5t201.5 84.5t84.5 201.5t-84.5 201.5t-201.5 84.5t-201.5 -84.5t-84.5 -201.5zM316 288 q0 77 55.5 132.5t132.5 55.5t132.5 -55.5t55.5 -132.5t-55.5 -132.5t-132.5 -55.5t-132.5 55.5t-55.5 132.5zM233 559q113 113 271 113t271 -113t113 -271t-113 -271t-271 -113t-271 113t-113 271t113 271z" />
<glyph unicode="&#x202f;" horiz-adv-x="689" />
<glyph unicode="&#x205f;" horiz-adv-x="862" />
<glyph unicode="&#x20ac;" horiz-adv-x="2876" d="M618 886q71 -310 276 -508q199 -192 485 -270q-90 81 -146 203q-61 133 -78 559l-2 193q-3 93 -3 195.5t3 194.5l3 194q17 339 72 522q40 130 129 216q-277 -76 -461 -253q-207 -198 -278 -521q-21 -93 -31 -182q-9 -86 -9 -181.5t9 -180.5q11 -94 31 -181zM2654 2333 q-15 -9 -33 -16q-36 -13 -88 -16q48 -42 82 -89q28 -38 51 -75zM2774 296q-55 -57 -253 -169q-302 -171 -702 -171q-629 0 -993 351q-227 219 -304 557l-402 -5l72 192l298 5q-10 91 -10 192t10 192l-298 -5l72 192l258 5q78 353 306 571q352 337 1001 337q224 0 419 -74 q185 -69 257 -69q123 0 140 75h98l43 -677h-98q-17 176 -152 359q-84 114 -278 202q-190 86 -429 86q-415 0 -507 -302q-52 -171 -68 -498l930 10l-72 -192l-861 -10q-3 -91 -3 -192t3 -192l861 10l-72 -192l-787 -10q16 -407 69 -522q137 -298 497 -298q373 0 648 152 q159 88 248 168zM713 908q-19 81 -28 169q-9 81 -9 171.5t9 170.5q9 83 28 171q66 294 251 471q76 73 168 126q-57 -193 -74 -537l-3 -194q-3 -94 -3 -197.5t3 -197.5l2 -193q15 -384 67 -546q-88 55 -162 126q-185 179 -249 460z" />
<glyph unicode="&#x25fc;" horiz-adv-x="2495" d="M0 2495h2495v-2495h-2495v2495z" />
</font>
</defs>
</svg>
